<svg width="12" height="10" viewBox="0 0 12 10" fill="none" xmlns="http://www.w3.org/2000/svg">
<path d="M10.6334 3.55881L5.94265 4.71193L4.38866 0.930664H11.4104L10.6334 3.55881Z" stroke="white" stroke-width="0.75" stroke-linecap="round" stroke-linejoin="round"/>
<path d="M10.6336 6.37031L5.22337 6.37438L2.99105 0.930664H0.988937" stroke="white" stroke-width="0.75" stroke-linecap="round" stroke-linejoin="round"/>
<path d="M5.95086 8.74163C6.29597 8.74163 6.57573 8.46434 6.57573 8.12228C6.57573 7.78022 6.29597 7.50293 5.95086 7.50293C5.60575 7.50293 5.32599 7.78022 5.32599 8.12228C5.32599 8.46434 5.60575 8.74163 5.95086 8.74163Z" stroke="white" stroke-width="0.75" stroke-linecap="round" stroke-linejoin="round"/>
<path d="M9.63855 8.74163C9.98368 8.74163 10.2635 8.46434 10.2635 8.12228C10.2635 7.78022 9.98368 7.50293 9.63855 7.50293C9.29343 7.50293 9.01366 7.78022 9.01366 8.12228C9.01366 8.46434 9.29343 8.74163 9.63855 8.74163Z" stroke="white" stroke-width="0.75" stroke-linecap="round" stroke-linejoin="round"/>
</svg>
