<svg width="415" height="629" viewBox="0 0 415 629" fill="none" xmlns="http://www.w3.org/2000/svg">
<rect x="38.5" y="115.791" width="99" height="99" rx="49.5" stroke="white"/>
<path d="M72.9502 168.379C72.3635 168.379 71.8172 168.28 71.3112 168.082C70.8125 167.884 70.3799 167.609 70.0132 167.257C69.6465 166.897 69.3605 166.479 69.1552 166.003C68.9499 165.526 68.8472 165.005 68.8472 164.441C68.8472 163.876 68.9499 163.355 69.1552 162.879C69.3605 162.402 69.6465 161.988 70.0132 161.636C70.3799 161.276 70.8125 160.998 71.3112 160.8C71.8099 160.602 72.3562 160.503 72.9502 160.503C73.5369 160.503 74.0759 160.602 74.5672 160.8C75.0659 160.99 75.4985 161.265 75.8652 161.625C76.2392 161.977 76.5252 162.391 76.7232 162.868C76.9285 163.344 77.0312 163.869 77.0312 164.441C77.0312 165.013 76.9285 165.537 76.7232 166.014C76.5252 166.49 76.2392 166.908 75.8652 167.268C75.4985 167.62 75.0659 167.895 74.5672 168.093C74.0759 168.283 73.5369 168.379 72.9502 168.379ZM75.4692 169.897C75.2125 169.897 74.9669 169.864 74.7322 169.798C74.4975 169.739 74.2629 169.64 74.0282 169.501C73.7935 169.369 73.5515 169.193 73.3022 168.973C73.0529 168.76 72.7815 168.496 72.4882 168.181L73.6652 167.873C73.8852 168.144 74.0942 168.364 74.2922 168.533C74.4975 168.709 74.6992 168.833 74.8972 168.907C75.0952 168.987 75.2895 169.028 75.4802 169.028C76.0302 169.028 76.4995 168.808 76.8882 168.368L77.4052 168.995C76.9065 169.596 76.2612 169.897 75.4692 169.897ZM72.9502 167.4C73.3755 167.4 73.7679 167.326 74.1272 167.18C74.4939 167.033 74.8092 166.824 75.0732 166.553C75.3445 166.281 75.5535 165.966 75.7002 165.607C75.8542 165.247 75.9312 164.859 75.9312 164.441C75.9312 164.015 75.8542 163.623 75.7002 163.264C75.5535 162.904 75.3445 162.593 75.0732 162.329C74.8092 162.057 74.4939 161.848 74.1272 161.702C73.7679 161.555 73.3755 161.482 72.9502 161.482C72.5175 161.482 72.1179 161.555 71.7512 161.702C71.3919 161.848 71.0765 162.057 70.8052 162.329C70.5339 162.593 70.3212 162.904 70.1672 163.264C70.0205 163.623 69.9472 164.015 69.9472 164.441C69.9472 164.859 70.0205 165.247 70.1672 165.607C70.3212 165.966 70.5339 166.281 70.8052 166.553C71.0765 166.824 71.3919 167.033 71.7512 167.18C72.1179 167.326 72.5175 167.4 72.9502 167.4ZM81.0115 168.357C80.5128 168.357 80.0728 168.265 79.6915 168.082C79.3175 167.898 79.0242 167.62 78.8115 167.246C78.6062 166.864 78.5035 166.388 78.5035 165.816V162.461H79.5595V165.695C79.5595 166.267 79.6952 166.696 79.9665 166.982C80.2452 167.268 80.6338 167.411 81.1325 167.411C81.4992 167.411 81.8182 167.337 82.0895 167.191C82.3608 167.037 82.5698 166.817 82.7165 166.531C82.8632 166.237 82.9365 165.885 82.9365 165.475V162.461H83.9925V168.291H82.9915V166.718L83.1565 167.136C82.9658 167.524 82.6798 167.825 82.2985 168.038C81.9172 168.25 81.4882 168.357 81.0115 168.357ZM89.6218 168.291V167.059L89.5668 166.828V164.727C89.5668 164.279 89.4348 163.935 89.1708 163.693C88.9142 163.443 88.5255 163.319 88.0048 163.319C87.6602 163.319 87.3228 163.377 86.9928 163.495C86.6628 163.605 86.3842 163.755 86.1568 163.946L85.7168 163.154C86.0175 162.912 86.3768 162.728 86.7948 162.604C87.2202 162.472 87.6638 162.406 88.1258 162.406C88.9252 162.406 89.5412 162.6 89.9738 162.989C90.4065 163.377 90.6228 163.971 90.6228 164.771V168.291H89.6218ZM87.7078 168.357C87.2752 168.357 86.8938 168.283 86.5638 168.137C86.2412 167.99 85.9918 167.788 85.8158 167.532C85.6398 167.268 85.5518 166.971 85.5518 166.641C85.5518 166.325 85.6252 166.039 85.7718 165.783C85.9258 165.526 86.1715 165.321 86.5088 165.167C86.8535 165.013 87.3155 164.936 87.8948 164.936H89.7428V165.695H87.9388C87.4108 165.695 87.0552 165.783 86.8718 165.959C86.6885 166.135 86.5968 166.347 86.5968 166.597C86.5968 166.883 86.7105 167.114 86.9378 167.29C87.1652 167.458 87.4805 167.543 87.8838 167.543C88.2798 167.543 88.6245 167.455 88.9178 167.279C89.2185 167.103 89.4348 166.846 89.5668 166.509L89.7758 167.235C89.6365 167.579 89.3908 167.854 89.0388 168.06C88.6868 168.258 88.2432 168.357 87.7078 168.357ZM92.577 168.291V160.129H93.633V168.291H92.577ZM95.6493 168.291V162.461H96.7053V168.291H95.6493ZM96.1773 161.339C95.972 161.339 95.7996 161.273 95.6603 161.141C95.5283 161.009 95.4623 160.847 95.4623 160.657C95.4623 160.459 95.5283 160.294 95.6603 160.162C95.7996 160.03 95.972 159.964 96.1773 159.964C96.3826 159.964 96.5513 160.03 96.6833 160.162C96.8226 160.286 96.8923 160.444 96.8923 160.635C96.8923 160.833 96.8263 161.001 96.6943 161.141C96.5623 161.273 96.39 161.339 96.1773 161.339ZM100.724 168.357C100.137 168.357 99.6822 168.199 99.3596 167.884C99.0369 167.568 98.8756 167.117 98.8756 166.531V161.185H99.9316V166.487C99.9316 166.802 100.009 167.044 100.163 167.213C100.324 167.381 100.551 167.466 100.845 167.466C101.175 167.466 101.45 167.374 101.67 167.191L102 167.95C101.838 168.089 101.644 168.192 101.417 168.258C101.197 168.324 100.966 168.357 100.724 168.357ZM97.8856 163.33V162.461H101.604V163.33H97.8856ZM103.422 170.491C103.143 170.491 102.872 170.443 102.608 170.348C102.344 170.26 102.117 170.128 101.926 169.952L102.377 169.16C102.524 169.299 102.685 169.405 102.861 169.479C103.037 169.552 103.224 169.589 103.422 169.589C103.679 169.589 103.891 169.523 104.06 169.391C104.229 169.259 104.386 169.024 104.533 168.687L104.896 167.884L105.006 167.752L107.294 162.461H108.328L105.501 168.874C105.332 169.284 105.142 169.607 104.929 169.842C104.724 170.076 104.496 170.241 104.247 170.337C103.998 170.439 103.723 170.491 103.422 170.491ZM104.808 168.478L102.146 162.461H103.246L105.512 167.653L104.808 168.478Z" fill="white"/>
<rect x="195.5" y="230.791" width="99" height="99" rx="49.5" stroke="white"/>
<path d="M222.742 277.291V269.591H225.987C226.808 269.591 227.53 269.752 228.154 270.075C228.784 270.397 229.272 270.848 229.617 271.428C229.969 272.007 230.145 272.678 230.145 273.441C230.145 274.203 229.969 274.874 229.617 275.454C229.272 276.033 228.784 276.484 228.154 276.807C227.53 277.129 226.808 277.291 225.987 277.291H222.742ZM223.842 276.334H225.921C226.559 276.334 227.109 276.213 227.571 275.971C228.04 275.729 228.403 275.391 228.66 274.959C228.916 274.519 229.045 274.013 229.045 273.441C229.045 272.861 228.916 272.355 228.66 271.923C228.403 271.49 228.04 271.153 227.571 270.911C227.109 270.669 226.559 270.548 225.921 270.548H223.842V276.334ZM234.272 277.357C233.648 277.357 233.098 277.228 232.622 276.972C232.152 276.715 231.786 276.363 231.522 275.916C231.265 275.468 231.137 274.955 231.137 274.376C231.137 273.796 231.261 273.283 231.511 272.836C231.767 272.388 232.116 272.04 232.556 271.791C233.003 271.534 233.505 271.406 234.063 271.406C234.627 271.406 235.126 271.53 235.559 271.78C235.991 272.029 236.329 272.381 236.571 272.836C236.82 273.283 236.945 273.807 236.945 274.409C236.945 274.453 236.941 274.504 236.934 274.563C236.934 274.621 236.93 274.676 236.923 274.728H231.962V273.969H236.373L235.944 274.233C235.951 273.859 235.874 273.525 235.713 273.232C235.551 272.938 235.328 272.711 235.042 272.55C234.763 272.381 234.437 272.297 234.063 272.297C233.696 272.297 233.37 272.381 233.084 272.55C232.798 272.711 232.574 272.942 232.413 273.243C232.251 273.536 232.171 273.873 232.171 274.255V274.431C232.171 274.819 232.259 275.168 232.435 275.476C232.618 275.776 232.871 276.011 233.194 276.18C233.516 276.348 233.887 276.433 234.305 276.433C234.649 276.433 234.961 276.374 235.24 276.257C235.526 276.139 235.775 275.963 235.988 275.729L236.571 276.411C236.307 276.719 235.977 276.953 235.581 277.115C235.192 277.276 234.756 277.357 234.272 277.357ZM238.411 277.291V269.129H239.467V277.291H238.411ZM241.483 277.291V271.461H242.539V277.291H241.483ZM242.011 270.339C241.806 270.339 241.634 270.273 241.494 270.141C241.362 270.009 241.296 269.847 241.296 269.657C241.296 269.459 241.362 269.294 241.494 269.162C241.634 269.03 241.806 268.964 242.011 268.964C242.217 268.964 242.385 269.03 242.517 269.162C242.657 269.286 242.726 269.444 242.726 269.635C242.726 269.833 242.66 270.001 242.528 270.141C242.396 270.273 242.224 270.339 242.011 270.339ZM246.085 277.291L243.533 271.461H244.633L246.899 276.741H246.371L248.681 271.461H249.715L247.163 277.291H246.085ZM253.135 277.357C252.512 277.357 251.962 277.228 251.485 276.972C251.016 276.715 250.649 276.363 250.385 275.916C250.128 275.468 250 274.955 250 274.376C250 273.796 250.125 273.283 250.374 272.836C250.631 272.388 250.979 272.04 251.419 271.791C251.866 271.534 252.369 271.406 252.926 271.406C253.491 271.406 253.989 271.53 254.422 271.78C254.855 272.029 255.192 272.381 255.434 272.836C255.683 273.283 255.808 273.807 255.808 274.409C255.808 274.453 255.804 274.504 255.797 274.563C255.797 274.621 255.793 274.676 255.786 274.728H250.825V273.969H255.236L254.807 274.233C254.814 273.859 254.737 273.525 254.576 273.232C254.415 272.938 254.191 272.711 253.905 272.55C253.626 272.381 253.3 272.297 252.926 272.297C252.559 272.297 252.233 272.381 251.947 272.55C251.661 272.711 251.437 272.942 251.276 273.243C251.115 273.536 251.034 273.873 251.034 274.255V274.431C251.034 274.819 251.122 275.168 251.298 275.476C251.481 275.776 251.734 276.011 252.057 276.18C252.38 276.348 252.75 276.433 253.168 276.433C253.513 276.433 253.824 276.374 254.103 276.257C254.389 276.139 254.638 275.963 254.851 275.729L255.434 276.411C255.17 276.719 254.84 276.953 254.444 277.115C254.055 277.276 253.619 277.357 253.135 277.357ZM257.274 277.291V271.461H258.286V273.045L258.187 272.649C258.349 272.245 258.62 271.937 259.001 271.725C259.383 271.512 259.852 271.406 260.409 271.406V272.429C260.365 272.421 260.321 272.418 260.277 272.418C260.241 272.418 260.204 272.418 260.167 272.418C259.603 272.418 259.155 272.586 258.825 272.924C258.495 273.261 258.33 273.749 258.33 274.387V277.291H257.274ZM262.2 279.491C261.922 279.491 261.65 279.443 261.386 279.348C261.122 279.26 260.895 279.128 260.704 278.952L261.155 278.16C261.302 278.299 261.463 278.405 261.639 278.479C261.815 278.552 262.002 278.589 262.2 278.589C262.457 278.589 262.67 278.523 262.838 278.391C263.007 278.259 263.165 278.024 263.311 277.687L263.674 276.884L263.784 276.752L266.072 271.461H267.106L264.279 277.874C264.111 278.284 263.92 278.607 263.707 278.842C263.502 279.076 263.275 279.241 263.025 279.337C262.776 279.439 262.501 279.491 262.2 279.491ZM263.586 277.478L260.924 271.461H262.024L264.29 276.653L263.586 277.478ZM221.576 288.291V280.591H224.579C225.254 280.591 225.83 280.697 226.306 280.91C226.783 281.122 227.15 281.43 227.406 281.834C227.663 282.237 227.791 282.717 227.791 283.275C227.791 283.832 227.663 284.312 227.406 284.716C227.15 285.112 226.783 285.42 226.306 285.64C225.83 285.852 225.254 285.959 224.579 285.959H222.181L222.676 285.442V288.291H221.576ZM222.676 285.552L222.181 285.002H224.546C225.25 285.002 225.782 284.851 226.141 284.551C226.508 284.25 226.691 283.825 226.691 283.275C226.691 282.725 226.508 282.299 226.141 281.999C225.782 281.698 225.25 281.548 224.546 281.548H222.181L222.676 280.998V285.552ZM232.819 288.291V287.059L232.764 286.828V284.727C232.764 284.279 232.632 283.935 232.368 283.693C232.111 283.443 231.722 283.319 231.202 283.319C230.857 283.319 230.52 283.377 230.19 283.495C229.86 283.605 229.581 283.755 229.354 283.946L228.914 283.154C229.214 282.912 229.574 282.728 229.992 282.604C230.417 282.472 230.861 282.406 231.323 282.406C232.122 282.406 232.738 282.6 233.171 282.989C233.603 283.377 233.82 283.971 233.82 284.771V288.291H232.819ZM230.905 288.357C230.472 288.357 230.091 288.283 229.761 288.137C229.438 287.99 229.189 287.788 229.013 287.532C228.837 287.268 228.749 286.971 228.749 286.641C228.749 286.325 228.822 286.039 228.969 285.783C229.123 285.526 229.368 285.321 229.706 285.167C230.05 285.013 230.512 284.936 231.092 284.936H232.94V285.695H231.136C230.608 285.695 230.252 285.783 230.069 285.959C229.885 286.135 229.794 286.347 229.794 286.597C229.794 286.883 229.907 287.114 230.135 287.29C230.362 287.458 230.677 287.543 231.081 287.543C231.477 287.543 231.821 287.455 232.115 287.279C232.415 287.103 232.632 286.846 232.764 286.509L232.973 287.235C232.833 287.579 232.588 287.854 232.236 288.06C231.884 288.258 231.44 288.357 230.905 288.357ZM235.919 290.491C235.641 290.491 235.369 290.443 235.105 290.348C234.841 290.26 234.614 290.128 234.423 289.952L234.874 289.16C235.021 289.299 235.182 289.405 235.358 289.479C235.534 289.552 235.721 289.589 235.919 289.589C236.176 289.589 236.389 289.523 236.557 289.391C236.726 289.259 236.884 289.024 237.03 288.687L237.393 287.884L237.503 287.752L239.791 282.461H240.825L237.998 288.874C237.83 289.284 237.639 289.607 237.426 289.842C237.221 290.076 236.994 290.241 236.744 290.337C236.495 290.439 236.22 290.491 235.919 290.491ZM237.305 288.478L234.643 282.461H235.743L238.009 287.653L237.305 288.478ZM249.104 282.406C249.573 282.406 249.988 282.497 250.347 282.681C250.706 282.864 250.985 283.143 251.183 283.517C251.388 283.891 251.491 284.364 251.491 284.936V288.291H250.435V285.057C250.435 284.492 250.303 284.067 250.039 283.781C249.775 283.495 249.405 283.352 248.928 283.352C248.576 283.352 248.268 283.425 248.004 283.572C247.74 283.718 247.535 283.935 247.388 284.221C247.249 284.507 247.179 284.862 247.179 285.288V288.291H246.123V285.057C246.123 284.492 245.991 284.067 245.727 283.781C245.47 283.495 245.1 283.352 244.616 283.352C244.271 283.352 243.967 283.425 243.703 283.572C243.439 283.718 243.234 283.935 243.087 284.221C242.94 284.507 242.867 284.862 242.867 285.288V288.291H241.811V282.461H242.823V284.012L242.658 283.616C242.841 283.234 243.124 282.937 243.505 282.725C243.886 282.512 244.33 282.406 244.836 282.406C245.393 282.406 245.874 282.545 246.277 282.824C246.68 283.095 246.944 283.509 247.069 284.067L246.64 283.891C246.816 283.443 247.124 283.084 247.564 282.813C248.004 282.541 248.517 282.406 249.104 282.406ZM256.03 288.357C255.407 288.357 254.857 288.228 254.38 287.972C253.911 287.715 253.544 287.363 253.28 286.916C253.023 286.468 252.895 285.955 252.895 285.376C252.895 284.796 253.02 284.283 253.269 283.836C253.526 283.388 253.874 283.04 254.314 282.791C254.761 282.534 255.264 282.406 255.821 282.406C256.386 282.406 256.884 282.53 257.317 282.78C257.75 283.029 258.087 283.381 258.329 283.836C258.578 284.283 258.703 284.807 258.703 285.409C258.703 285.453 258.699 285.504 258.692 285.563C258.692 285.621 258.688 285.676 258.681 285.728H253.72V284.969H258.131L257.702 285.233C257.709 284.859 257.632 284.525 257.471 284.232C257.31 283.938 257.086 283.711 256.8 283.55C256.521 283.381 256.195 283.297 255.821 283.297C255.454 283.297 255.128 283.381 254.842 283.55C254.556 283.711 254.332 283.942 254.171 284.243C254.01 284.536 253.929 284.873 253.929 285.255V285.431C253.929 285.819 254.017 286.168 254.193 286.476C254.376 286.776 254.629 287.011 254.952 287.18C255.275 287.348 255.645 287.433 256.063 287.433C256.408 287.433 256.719 287.374 256.998 287.257C257.284 287.139 257.533 286.963 257.746 286.729L258.329 287.411C258.065 287.719 257.735 287.953 257.339 288.115C256.95 288.276 256.514 288.357 256.03 288.357ZM263.282 282.406C263.759 282.406 264.177 282.497 264.536 282.681C264.903 282.864 265.189 283.143 265.394 283.517C265.6 283.891 265.702 284.364 265.702 284.936V288.291H264.646V285.057C264.646 284.492 264.507 284.067 264.228 283.781C263.957 283.495 263.572 283.352 263.073 283.352C262.699 283.352 262.373 283.425 262.094 283.572C261.816 283.718 261.599 283.935 261.445 284.221C261.299 284.507 261.225 284.862 261.225 285.288V288.291H260.169V282.461H261.181V284.034L261.016 283.616C261.207 283.234 261.5 282.937 261.896 282.725C262.292 282.512 262.754 282.406 263.282 282.406ZM269.659 288.357C269.072 288.357 268.617 288.199 268.295 287.884C267.972 287.568 267.811 287.117 267.811 286.531V281.185H268.867V286.487C268.867 286.802 268.944 287.044 269.098 287.213C269.259 287.381 269.486 287.466 269.78 287.466C270.11 287.466 270.385 287.374 270.605 287.191L270.935 287.95C270.773 288.089 270.579 288.192 270.352 288.258C270.132 288.324 269.901 288.357 269.659 288.357ZM266.821 283.33V282.461H270.539V283.33H266.821Z" fill="white"/>
<rect x="38.5" y="230.791" width="99" height="99" rx="49.5" stroke="white"/>
<path d="M77.6454 283.379C77.1907 283.379 76.7654 283.283 76.3694 283.093C75.9734 282.902 75.6507 282.627 75.4014 282.268L76.0394 281.52C76.252 281.813 76.4904 282.04 76.7544 282.202C77.0257 282.356 77.3227 282.433 77.6454 282.433C78.5254 282.433 78.9654 281.912 78.9654 280.871V276.548H76.1824V275.591H80.0544V280.816C80.0544 281.674 79.849 282.315 79.4384 282.741C79.035 283.166 78.4374 283.379 77.6454 283.379ZM84.638 283.357C84.0513 283.357 83.5307 283.228 83.076 282.972C82.6213 282.715 82.262 282.363 81.998 281.916C81.734 281.461 81.602 280.948 81.602 280.376C81.602 279.796 81.734 279.283 81.998 278.836C82.262 278.388 82.6213 278.04 83.076 277.791C83.5307 277.534 84.0513 277.406 84.638 277.406C85.2173 277.406 85.7343 277.534 86.189 277.791C86.651 278.04 87.0103 278.388 87.267 278.836C87.531 279.276 87.663 279.789 87.663 280.376C87.663 280.955 87.531 281.468 87.267 281.916C87.0103 282.363 86.651 282.715 86.189 282.972C85.7343 283.228 85.2173 283.357 84.638 283.357ZM84.638 282.433C85.012 282.433 85.3457 282.348 85.639 282.18C85.9397 282.011 86.1743 281.773 86.343 281.465C86.5117 281.149 86.596 280.786 86.596 280.376C86.596 279.958 86.5117 279.598 86.343 279.298C86.1743 278.99 85.9397 278.751 85.639 278.583C85.3457 278.414 85.012 278.33 84.638 278.33C84.264 278.33 83.9303 278.414 83.637 278.583C83.3437 278.751 83.109 278.99 82.933 279.298C82.757 279.598 82.669 279.958 82.669 280.376C82.669 280.786 82.757 281.149 82.933 281.465C83.109 281.773 83.3437 282.011 83.637 282.18C83.9303 282.348 84.264 282.433 84.638 282.433ZM92.2144 283.357C91.7158 283.357 91.2648 283.247 90.8614 283.027C90.4654 282.799 90.1501 282.466 89.9154 282.026C89.6881 281.586 89.5744 281.036 89.5744 280.376C89.5744 279.716 89.6918 279.166 89.9264 278.726C90.1684 278.286 90.4874 277.956 90.8834 277.736C91.2868 277.516 91.7304 277.406 92.2144 277.406C92.7864 277.406 93.2924 277.53 93.7324 277.78C94.1724 278.029 94.5208 278.377 94.7774 278.825C95.0341 279.265 95.1624 279.782 95.1624 280.376C95.1624 280.97 95.0341 281.49 94.7774 281.938C94.5208 282.385 94.1724 282.733 93.7324 282.983C93.2924 283.232 92.7864 283.357 92.2144 283.357ZM89.1234 283.291V275.129H90.1794V279.012L90.0694 280.365L90.1354 281.718V283.291H89.1234ZM92.1264 282.433C92.5004 282.433 92.8341 282.348 93.1274 282.18C93.4281 282.011 93.6628 281.773 93.8314 281.465C94.0074 281.149 94.0954 280.786 94.0954 280.376C94.0954 279.958 94.0074 279.598 93.8314 279.298C93.6628 278.99 93.4281 278.751 93.1274 278.583C92.8341 278.414 92.5004 278.33 92.1264 278.33C91.7598 278.33 91.4261 278.414 91.1254 278.583C90.8321 278.751 90.5974 278.99 90.4214 279.298C90.2528 279.598 90.1684 279.958 90.1684 280.376C90.1684 280.786 90.2528 281.149 90.4214 281.465C90.5974 281.773 90.8321 282.011 91.1254 282.18C91.4261 282.348 91.7598 282.433 92.1264 282.433ZM98.2935 283.357C97.8095 283.357 97.3475 283.291 96.9075 283.159C96.4748 283.027 96.1338 282.865 95.8845 282.675L96.3245 281.839C96.5738 282.007 96.8818 282.15 97.2485 282.268C97.6152 282.385 97.9892 282.444 98.3705 282.444C98.8618 282.444 99.2138 282.374 99.4265 282.235C99.6465 282.095 99.7565 281.901 99.7565 281.652C99.7565 281.468 99.6905 281.325 99.5585 281.223C99.4265 281.12 99.2505 281.043 99.0305 280.992C98.8178 280.94 98.5795 280.896 98.3155 280.86C98.0515 280.816 97.7875 280.764 97.5235 280.706C97.2595 280.64 97.0175 280.552 96.7975 280.442C96.5775 280.324 96.4015 280.167 96.2695 279.969C96.1375 279.763 96.0715 279.492 96.0715 279.155C96.0715 278.803 96.1705 278.495 96.3685 278.231C96.5665 277.967 96.8452 277.765 97.2045 277.626C97.5712 277.479 98.0038 277.406 98.5025 277.406C98.8838 277.406 99.2688 277.453 99.6575 277.549C100.053 277.637 100.376 277.765 100.625 277.934L100.174 278.77C99.9105 278.594 99.6355 278.473 99.3495 278.407C99.0635 278.341 98.7775 278.308 98.4915 278.308C98.0295 278.308 97.6848 278.385 97.4575 278.539C97.2302 278.685 97.1165 278.876 97.1165 279.111C97.1165 279.309 97.1825 279.463 97.3145 279.573C97.4538 279.675 97.6298 279.756 97.8425 279.815C98.0625 279.873 98.3045 279.925 98.5685 279.969C98.8325 280.005 99.0965 280.057 99.3605 280.123C99.6245 280.181 99.8628 280.266 100.075 280.376C100.295 280.486 100.471 280.64 100.603 280.838C100.743 281.036 100.812 281.3 100.812 281.63C100.812 281.982 100.71 282.286 100.504 282.543C100.299 282.799 100.009 283.001 99.6355 283.148C99.2615 283.287 98.8142 283.357 98.2935 283.357Z" fill="white"/>
<rect x="195.5" y="345.791" width="99" height="99" rx="49.5" stroke="white"/>
<path d="M212.843 392.291V384.591H215.846C216.521 384.591 217.096 384.697 217.573 384.91C218.05 385.122 218.416 385.43 218.673 385.834C218.93 386.237 219.058 386.717 219.058 387.275C219.058 387.832 218.93 388.312 218.673 388.716C218.416 389.112 218.05 389.42 217.573 389.64C217.096 389.852 216.521 389.959 215.846 389.959H213.448L213.943 389.442V392.291H212.843ZM213.943 389.552L213.448 389.002H215.813C216.517 389.002 217.049 388.851 217.408 388.551C217.775 388.25 217.958 387.825 217.958 387.275C217.958 386.725 217.775 386.299 217.408 385.999C217.049 385.698 216.517 385.548 215.813 385.548H213.448L213.943 384.998V389.552ZM220.412 392.291V386.461H221.424V388.045L221.325 387.649C221.487 387.245 221.758 386.937 222.139 386.725C222.521 386.512 222.99 386.406 223.547 386.406V387.429C223.503 387.421 223.459 387.418 223.415 387.418C223.379 387.418 223.342 387.418 223.305 387.418C222.741 387.418 222.293 387.586 221.963 387.924C221.633 388.261 221.468 388.749 221.468 389.387V392.291H220.412ZM227.292 392.357C226.706 392.357 226.185 392.228 225.73 391.972C225.276 391.715 224.916 391.363 224.652 390.916C224.388 390.461 224.256 389.948 224.256 389.376C224.256 388.796 224.388 388.283 224.652 387.836C224.916 387.388 225.276 387.04 225.73 386.791C226.185 386.534 226.706 386.406 227.292 386.406C227.872 386.406 228.389 386.534 228.843 386.791C229.305 387.04 229.665 387.388 229.921 387.836C230.185 388.276 230.317 388.789 230.317 389.376C230.317 389.955 230.185 390.468 229.921 390.916C229.665 391.363 229.305 391.715 228.843 391.972C228.389 392.228 227.872 392.357 227.292 392.357ZM227.292 391.433C227.666 391.433 228 391.348 228.293 391.18C228.594 391.011 228.829 390.773 228.997 390.465C229.166 390.149 229.25 389.786 229.25 389.376C229.25 388.958 229.166 388.598 228.997 388.298C228.829 387.99 228.594 387.751 228.293 387.583C228 387.414 227.666 387.33 227.292 387.33C226.918 387.33 226.585 387.414 226.291 387.583C225.998 387.751 225.763 387.99 225.587 388.298C225.411 388.598 225.323 388.958 225.323 389.376C225.323 389.786 225.411 390.149 225.587 390.465C225.763 390.773 225.998 391.011 226.291 391.18C226.585 391.348 226.918 391.433 227.292 391.433ZM239.071 386.406C239.54 386.406 239.954 386.497 240.314 386.681C240.673 386.864 240.952 387.143 241.15 387.517C241.355 387.891 241.458 388.364 241.458 388.936V392.291H240.402V389.057C240.402 388.492 240.27 388.067 240.006 387.781C239.742 387.495 239.371 387.352 238.895 387.352C238.543 387.352 238.235 387.425 237.971 387.572C237.707 387.718 237.501 387.935 237.355 388.221C237.215 388.507 237.146 388.862 237.146 389.288V392.291H236.09V389.057C236.09 388.492 235.958 388.067 235.694 387.781C235.437 387.495 235.067 387.352 234.583 387.352C234.238 387.352 233.934 387.425 233.67 387.572C233.406 387.718 233.2 387.935 233.054 388.221C232.907 388.507 232.834 388.862 232.834 389.288V392.291H231.778V386.461H232.79V388.012L232.625 387.616C232.808 387.234 233.09 386.937 233.472 386.725C233.853 386.512 234.297 386.406 234.803 386.406C235.36 386.406 235.84 386.545 236.244 386.824C236.647 387.095 236.911 387.509 237.036 388.067L236.607 387.891C236.783 387.443 237.091 387.084 237.531 386.813C237.971 386.541 238.484 386.406 239.071 386.406ZM245.898 392.357C245.311 392.357 244.79 392.228 244.336 391.972C243.881 391.715 243.522 391.363 243.258 390.916C242.994 390.461 242.862 389.948 242.862 389.376C242.862 388.796 242.994 388.283 243.258 387.836C243.522 387.388 243.881 387.04 244.336 386.791C244.79 386.534 245.311 386.406 245.898 386.406C246.477 386.406 246.994 386.534 247.449 386.791C247.911 387.04 248.27 387.388 248.527 387.836C248.791 388.276 248.923 388.789 248.923 389.376C248.923 389.955 248.791 390.468 248.527 390.916C248.27 391.363 247.911 391.715 247.449 391.972C246.994 392.228 246.477 392.357 245.898 392.357ZM245.898 391.433C246.272 391.433 246.605 391.348 246.899 391.18C247.199 391.011 247.434 390.773 247.603 390.465C247.771 390.149 247.856 389.786 247.856 389.376C247.856 388.958 247.771 388.598 247.603 388.298C247.434 387.99 247.199 387.751 246.899 387.583C246.605 387.414 246.272 387.33 245.898 387.33C245.524 387.33 245.19 387.414 244.897 387.583C244.603 387.751 244.369 387.99 244.193 388.298C244.017 388.598 243.929 388.958 243.929 389.376C243.929 389.786 244.017 390.149 244.193 390.465C244.369 390.773 244.603 391.011 244.897 391.18C245.19 391.348 245.524 391.433 245.898 391.433ZM252.385 392.357C251.799 392.357 251.344 392.199 251.021 391.884C250.699 391.568 250.537 391.117 250.537 390.531V385.185H251.593V390.487C251.593 390.802 251.67 391.044 251.824 391.213C251.986 391.381 252.213 391.466 252.506 391.466C252.836 391.466 253.111 391.374 253.331 391.191L253.661 391.95C253.5 392.089 253.306 392.192 253.078 392.258C252.858 392.324 252.627 392.357 252.385 392.357ZM249.547 387.33V386.461H253.265V387.33H249.547ZM254.938 392.291V386.461H255.994V392.291H254.938ZM255.466 385.339C255.261 385.339 255.088 385.273 254.949 385.141C254.817 385.009 254.751 384.847 254.751 384.657C254.751 384.459 254.817 384.294 254.949 384.162C255.088 384.03 255.261 383.964 255.466 383.964C255.671 383.964 255.84 384.03 255.972 384.162C256.111 384.286 256.181 384.444 256.181 384.635C256.181 384.833 256.115 385.001 255.983 385.141C255.851 385.273 255.679 385.339 255.466 385.339ZM260.507 392.357C259.92 392.357 259.4 392.228 258.945 391.972C258.49 391.715 258.131 391.363 257.867 390.916C257.603 390.461 257.471 389.948 257.471 389.376C257.471 388.796 257.603 388.283 257.867 387.836C258.131 387.388 258.49 387.04 258.945 386.791C259.4 386.534 259.92 386.406 260.507 386.406C261.086 386.406 261.603 386.534 262.058 386.791C262.52 387.04 262.879 387.388 263.136 387.836C263.4 388.276 263.532 388.789 263.532 389.376C263.532 389.955 263.4 390.468 263.136 390.916C262.879 391.363 262.52 391.715 262.058 391.972C261.603 392.228 261.086 392.357 260.507 392.357ZM260.507 391.433C260.881 391.433 261.215 391.348 261.508 391.18C261.809 391.011 262.043 390.773 262.212 390.465C262.381 390.149 262.465 389.786 262.465 389.376C262.465 388.958 262.381 388.598 262.212 388.298C262.043 387.99 261.809 387.751 261.508 387.583C261.215 387.414 260.881 387.33 260.507 387.33C260.133 387.33 259.799 387.414 259.506 387.583C259.213 387.751 258.978 387.99 258.802 388.298C258.626 388.598 258.538 388.958 258.538 389.376C258.538 389.786 258.626 390.149 258.802 390.465C258.978 390.773 259.213 391.011 259.506 391.18C259.799 391.348 260.133 391.433 260.507 391.433ZM268.106 386.406C268.582 386.406 269 386.497 269.36 386.681C269.726 386.864 270.012 387.143 270.218 387.517C270.423 387.891 270.526 388.364 270.526 388.936V392.291H269.47V389.057C269.47 388.492 269.33 388.067 269.052 387.781C268.78 387.495 268.395 387.352 267.897 387.352C267.523 387.352 267.196 387.425 266.918 387.572C266.639 387.718 266.423 387.935 266.269 388.221C266.122 388.507 266.049 388.862 266.049 389.288V392.291H264.993V386.461H266.005V388.034L265.84 387.616C266.03 387.234 266.324 386.937 266.72 386.725C267.116 386.512 267.578 386.406 268.106 386.406ZM274.152 392.357C273.668 392.357 273.206 392.291 272.766 392.159C272.333 392.027 271.992 391.865 271.743 391.675L272.183 390.839C272.432 391.007 272.74 391.15 273.107 391.268C273.474 391.385 273.848 391.444 274.229 391.444C274.72 391.444 275.072 391.374 275.285 391.235C275.505 391.095 275.615 390.901 275.615 390.652C275.615 390.468 275.549 390.325 275.417 390.223C275.285 390.12 275.109 390.043 274.889 389.992C274.676 389.94 274.438 389.896 274.174 389.86C273.91 389.816 273.646 389.764 273.382 389.706C273.118 389.64 272.876 389.552 272.656 389.442C272.436 389.324 272.26 389.167 272.128 388.969C271.996 388.763 271.93 388.492 271.93 388.155C271.93 387.803 272.029 387.495 272.227 387.231C272.425 386.967 272.704 386.765 273.063 386.626C273.43 386.479 273.862 386.406 274.361 386.406C274.742 386.406 275.127 386.453 275.516 386.549C275.912 386.637 276.235 386.765 276.484 386.934L276.033 387.77C275.769 387.594 275.494 387.473 275.208 387.407C274.922 387.341 274.636 387.308 274.35 387.308C273.888 387.308 273.543 387.385 273.316 387.539C273.089 387.685 272.975 387.876 272.975 388.111C272.975 388.309 273.041 388.463 273.173 388.573C273.312 388.675 273.488 388.756 273.701 388.815C273.921 388.873 274.163 388.925 274.427 388.969C274.691 389.005 274.955 389.057 275.219 389.123C275.483 389.181 275.721 389.266 275.934 389.376C276.154 389.486 276.33 389.64 276.462 389.838C276.601 390.036 276.671 390.3 276.671 390.63C276.671 390.982 276.568 391.286 276.363 391.543C276.158 391.799 275.868 392.001 275.494 392.148C275.12 392.287 274.673 392.357 274.152 392.357ZM223.457 403.291V402.059L223.402 401.828V399.727C223.402 399.279 223.27 398.935 223.006 398.693C222.749 398.443 222.36 398.319 221.84 398.319C221.495 398.319 221.158 398.377 220.828 398.495C220.498 398.605 220.219 398.755 219.992 398.946L219.552 398.154C219.852 397.912 220.212 397.728 220.63 397.604C221.055 397.472 221.499 397.406 221.961 397.406C222.76 397.406 223.376 397.6 223.809 397.989C224.241 398.377 224.458 398.971 224.458 399.771V403.291H223.457ZM221.543 403.357C221.11 403.357 220.729 403.283 220.399 403.137C220.076 402.99 219.827 402.788 219.651 402.532C219.475 402.268 219.387 401.971 219.387 401.641C219.387 401.325 219.46 401.039 219.607 400.783C219.761 400.526 220.006 400.321 220.344 400.167C220.688 400.013 221.15 399.936 221.73 399.936H223.578V400.695H221.774C221.246 400.695 220.89 400.783 220.707 400.959C220.523 401.135 220.432 401.347 220.432 401.597C220.432 401.883 220.545 402.114 220.773 402.29C221 402.458 221.315 402.543 221.719 402.543C222.115 402.543 222.459 402.455 222.753 402.279C223.053 402.103 223.27 401.846 223.402 401.509L223.611 402.235C223.471 402.579 223.226 402.854 222.874 403.06C222.522 403.258 222.078 403.357 221.543 403.357ZM229.525 397.406C230.002 397.406 230.42 397.497 230.779 397.681C231.146 397.864 231.432 398.143 231.637 398.517C231.842 398.891 231.945 399.364 231.945 399.936V403.291H230.889V400.057C230.889 399.492 230.75 399.067 230.471 398.781C230.2 398.495 229.815 398.352 229.316 398.352C228.942 398.352 228.616 398.425 228.337 398.572C228.058 398.718 227.842 398.935 227.688 399.221C227.541 399.507 227.468 399.862 227.468 400.288V403.291H226.412V397.461H227.424V399.034L227.259 398.616C227.45 398.234 227.743 397.937 228.139 397.725C228.535 397.512 228.997 397.406 229.525 397.406ZM236.308 403.357C235.744 403.357 235.238 403.232 234.79 402.983C234.35 402.733 234.002 402.385 233.745 401.938C233.489 401.49 233.36 400.97 233.36 400.376C233.36 399.782 233.489 399.265 233.745 398.825C234.002 398.377 234.35 398.029 234.79 397.78C235.238 397.53 235.744 397.406 236.308 397.406C236.8 397.406 237.243 397.516 237.639 397.736C238.035 397.956 238.351 398.286 238.585 398.726C238.827 399.166 238.948 399.716 238.948 400.376C238.948 401.036 238.831 401.586 238.596 402.026C238.369 402.466 238.057 402.799 237.661 403.027C237.265 403.247 236.814 403.357 236.308 403.357ZM236.396 402.433C236.763 402.433 237.093 402.348 237.386 402.18C237.687 402.011 237.922 401.773 238.09 401.465C238.266 401.149 238.354 400.786 238.354 400.376C238.354 399.958 238.266 399.598 238.09 399.298C237.922 398.99 237.687 398.751 237.386 398.583C237.093 398.414 236.763 398.33 236.396 398.33C236.022 398.33 235.689 398.414 235.395 398.583C235.102 398.751 234.867 398.99 234.691 399.298C234.515 399.598 234.427 399.958 234.427 400.376C234.427 400.786 234.515 401.149 234.691 401.465C234.867 401.773 235.102 402.011 235.395 402.18C235.689 402.348 236.022 402.433 236.396 402.433ZM238.387 403.291V401.718L238.453 400.365L238.343 399.012V395.129H239.399V403.291H238.387ZM247.464 397.406C247.941 397.406 248.359 397.497 248.718 397.681C249.085 397.864 249.371 398.143 249.576 398.517C249.782 398.891 249.884 399.364 249.884 399.936V403.291H248.828V400.057C248.828 399.492 248.689 399.067 248.41 398.781C248.139 398.495 247.754 398.352 247.255 398.352C246.881 398.352 246.555 398.425 246.276 398.572C245.998 398.718 245.781 398.935 245.627 399.221C245.481 399.507 245.407 399.862 245.407 400.288V403.291H244.351V397.461H245.363V399.034L245.198 398.616C245.389 398.234 245.682 397.937 246.078 397.725C246.474 397.512 246.936 397.406 247.464 397.406ZM254.435 403.357C253.811 403.357 253.261 403.228 252.785 402.972C252.315 402.715 251.949 402.363 251.685 401.916C251.428 401.468 251.3 400.955 251.3 400.376C251.3 399.796 251.424 399.283 251.674 398.836C251.93 398.388 252.279 398.04 252.719 397.791C253.166 397.534 253.668 397.406 254.226 397.406C254.79 397.406 255.289 397.53 255.722 397.78C256.154 398.029 256.492 398.381 256.734 398.836C256.983 399.283 257.108 399.807 257.108 400.409C257.108 400.453 257.104 400.504 257.097 400.563C257.097 400.621 257.093 400.676 257.086 400.728H252.125V399.969H256.536L256.107 400.233C256.114 399.859 256.037 399.525 255.876 399.232C255.714 398.938 255.491 398.711 255.205 398.55C254.926 398.381 254.6 398.297 254.226 398.297C253.859 398.297 253.533 398.381 253.247 398.55C252.961 398.711 252.737 398.942 252.576 399.243C252.414 399.536 252.334 399.873 252.334 400.255V400.431C252.334 400.819 252.422 401.168 252.598 401.476C252.781 401.776 253.034 402.011 253.357 402.18C253.679 402.348 254.05 402.433 254.468 402.433C254.812 402.433 255.124 402.374 255.403 402.257C255.689 402.139 255.938 401.963 256.151 401.729L256.734 402.411C256.47 402.719 256.14 402.953 255.744 403.115C255.355 403.276 254.919 403.357 254.435 403.357ZM259.699 403.291L257.532 397.461H258.533L260.458 402.741H259.985L261.987 397.461H262.878L264.836 402.741H264.374L266.343 397.461H267.289L265.111 403.291H264.099L262.262 398.473H262.57L260.711 403.291H259.699ZM269.957 403.357C269.473 403.357 269.011 403.291 268.571 403.159C268.138 403.027 267.797 402.865 267.548 402.675L267.988 401.839C268.237 402.007 268.545 402.15 268.912 402.268C269.279 402.385 269.653 402.444 270.034 402.444C270.525 402.444 270.877 402.374 271.09 402.235C271.31 402.095 271.42 401.901 271.42 401.652C271.42 401.468 271.354 401.325 271.222 401.223C271.09 401.12 270.914 401.043 270.694 400.992C270.481 400.94 270.243 400.896 269.979 400.86C269.715 400.816 269.451 400.764 269.187 400.706C268.923 400.64 268.681 400.552 268.461 400.442C268.241 400.324 268.065 400.167 267.933 399.969C267.801 399.763 267.735 399.492 267.735 399.155C267.735 398.803 267.834 398.495 268.032 398.231C268.23 397.967 268.509 397.765 268.868 397.626C269.235 397.479 269.667 397.406 270.166 397.406C270.547 397.406 270.932 397.453 271.321 397.549C271.717 397.637 272.04 397.765 272.289 397.934L271.838 398.77C271.574 398.594 271.299 398.473 271.013 398.407C270.727 398.341 270.441 398.308 270.155 398.308C269.693 398.308 269.348 398.385 269.121 398.539C268.894 398.685 268.78 398.876 268.78 399.111C268.78 399.309 268.846 399.463 268.978 399.573C269.117 399.675 269.293 399.756 269.506 399.815C269.726 399.873 269.968 399.925 270.232 399.969C270.496 400.005 270.76 400.057 271.024 400.123C271.288 400.181 271.526 400.266 271.739 400.376C271.959 400.486 272.135 400.64 272.267 400.838C272.406 401.036 272.476 401.3 272.476 401.63C272.476 401.982 272.373 402.286 272.168 402.543C271.963 402.799 271.673 403.001 271.299 403.148C270.925 403.287 270.478 403.357 269.957 403.357Z" fill="white"/>
<rect x="38.5" y="0.790527" width="99" height="99" rx="49.5" stroke="white"/>
<path d="M69.5597 47.2905L73.0467 39.5905H74.1357L77.6337 47.2905H76.4787L73.3657 40.2065H73.8057L70.6927 47.2905H69.5597ZM71.0447 45.3655L71.3417 44.4855H75.6757L75.9947 45.3655H71.0447ZM81.7193 47.3565C81.2207 47.3565 80.7697 47.2465 80.3663 47.0265C79.9703 46.7992 79.655 46.4655 79.4203 46.0255C79.193 45.5855 79.0793 45.0355 79.0793 44.3755C79.0793 43.7155 79.1967 43.1655 79.4313 42.7255C79.6733 42.2855 79.9923 41.9555 80.3883 41.7355C80.7917 41.5155 81.2353 41.4055 81.7193 41.4055C82.2913 41.4055 82.7973 41.5302 83.2373 41.7795C83.6773 42.0289 84.0257 42.3772 84.2823 42.8245C84.539 43.2645 84.6673 43.7815 84.6673 44.3755C84.6673 44.9695 84.539 45.4902 84.2823 45.9375C84.0257 46.3849 83.6773 46.7332 83.2373 46.9825C82.7973 47.2319 82.2913 47.3565 81.7193 47.3565ZM78.6283 47.2905V39.1285H79.6843V43.0115L79.5743 44.3645L79.6403 45.7175V47.2905H78.6283ZM81.6313 46.4325C82.0053 46.4325 82.339 46.3482 82.6323 46.1795C82.933 46.0109 83.1677 45.7725 83.3363 45.4645C83.5123 45.1492 83.6003 44.7862 83.6003 44.3755C83.6003 43.9575 83.5123 43.5982 83.3363 43.2975C83.1677 42.9895 82.933 42.7512 82.6323 42.5825C82.339 42.4139 82.0053 42.3295 81.6313 42.3295C81.2647 42.3295 80.931 42.4139 80.6303 42.5825C80.337 42.7512 80.1023 42.9895 79.9263 43.2975C79.7577 43.5982 79.6733 43.9575 79.6733 44.3755C79.6733 44.7862 79.7577 45.1492 79.9263 45.4645C80.1023 45.7725 80.337 46.0109 80.6303 46.1795C80.931 46.3482 81.2647 46.4325 81.6313 46.4325ZM88.6234 47.3565C88.0367 47.3565 87.516 47.2282 87.0614 46.9715C86.6067 46.7149 86.2474 46.3629 85.9834 45.9155C85.7194 45.4609 85.5874 44.9475 85.5874 44.3755C85.5874 43.7962 85.7194 43.2829 85.9834 42.8355C86.2474 42.3882 86.6067 42.0399 87.0614 41.7905C87.516 41.5339 88.0367 41.4055 88.6234 41.4055C89.2027 41.4055 89.7197 41.5339 90.1744 41.7905C90.6364 42.0399 90.9957 42.3882 91.2524 42.8355C91.5164 43.2755 91.6484 43.7889 91.6484 44.3755C91.6484 44.9549 91.5164 45.4682 91.2524 45.9155C90.9957 46.3629 90.6364 46.7149 90.1744 46.9715C89.7197 47.2282 89.2027 47.3565 88.6234 47.3565ZM88.6234 46.4325C88.9974 46.4325 89.331 46.3482 89.6244 46.1795C89.925 46.0109 90.1597 45.7725 90.3284 45.4645C90.497 45.1492 90.5814 44.7862 90.5814 44.3755C90.5814 43.9575 90.497 43.5982 90.3284 43.2975C90.1597 42.9895 89.925 42.7512 89.6244 42.5825C89.331 42.4139 88.9974 42.3295 88.6234 42.3295C88.2494 42.3295 87.9157 42.4139 87.6224 42.5825C87.329 42.7512 87.0944 42.9895 86.9184 43.2975C86.7424 43.5982 86.6544 43.9575 86.6544 44.3755C86.6544 44.7862 86.7424 45.1492 86.9184 45.4645C87.0944 45.7725 87.329 46.0109 87.6224 46.1795C87.9157 46.3482 88.2494 46.4325 88.6234 46.4325ZM95.5618 47.3565C95.0631 47.3565 94.6231 47.2649 94.2418 47.0815C93.8678 46.8982 93.5745 46.6195 93.3618 46.2455C93.1565 45.8642 93.0538 45.3875 93.0538 44.8155V41.4605H94.1098V44.6945C94.1098 45.2665 94.2455 45.6955 94.5168 45.9815C94.7955 46.2675 95.1841 46.4105 95.6828 46.4105C96.0495 46.4105 96.3685 46.3372 96.6398 46.1905C96.9111 46.0365 97.1201 45.8165 97.2668 45.5305C97.4135 45.2372 97.4868 44.8852 97.4868 44.4745V41.4605H98.5428V47.2905H97.5418V45.7175L97.7068 46.1355C97.5161 46.5242 97.2301 46.8249 96.8488 47.0375C96.4675 47.2502 96.0385 47.3565 95.5618 47.3565ZM102.555 47.3565C101.968 47.3565 101.514 47.1989 101.191 46.8835C100.868 46.5682 100.707 46.1172 100.707 45.5305V40.1845H101.763V45.4865C101.763 45.8019 101.84 46.0439 101.994 46.2125C102.155 46.3812 102.383 46.4655 102.676 46.4655C103.006 46.4655 103.281 46.3739 103.501 46.1905L103.831 46.9495C103.67 47.0889 103.475 47.1915 103.248 47.2575C103.028 47.3235 102.797 47.3565 102.555 47.3565ZM99.7171 42.3295V41.4605H103.435V42.3295H99.7171ZM65.9885 58.3785C65.4018 58.3785 64.8592 58.2832 64.3605 58.0925C63.8692 57.8945 63.4402 57.6195 63.0735 57.2675C62.7142 56.9082 62.4318 56.4902 62.2265 56.0135C62.0212 55.5369 61.9185 55.0125 61.9185 54.4405C61.9185 53.8685 62.0212 53.3442 62.2265 52.8675C62.4318 52.3909 62.7178 51.9765 63.0845 51.6245C63.4512 51.2652 63.8802 50.9902 64.3715 50.7995C64.8702 50.6015 65.4128 50.5025 65.9995 50.5025C66.5935 50.5025 67.1398 50.6052 67.6385 50.8105C68.1445 51.0085 68.5735 51.3055 68.9255 51.7015L68.2105 52.3945C67.9172 52.0865 67.5872 51.8592 67.2205 51.7125C66.8538 51.5585 66.4615 51.4815 66.0435 51.4815C65.6108 51.4815 65.2075 51.5549 64.8335 51.7015C64.4668 51.8482 64.1478 52.0535 63.8765 52.3175C63.6052 52.5815 63.3925 52.8969 63.2385 53.2635C63.0918 53.6229 63.0185 54.0152 63.0185 54.4405C63.0185 54.8659 63.0918 55.2619 63.2385 55.6285C63.3925 55.9879 63.6052 56.2995 63.8765 56.5635C64.1478 56.8275 64.4668 57.0329 64.8335 57.1795C65.2075 57.3262 65.6108 57.3995 66.0435 57.3995C66.4615 57.3995 66.8538 57.3262 67.2205 57.1795C67.5872 57.0255 67.9172 56.7909 68.2105 56.4755L68.9255 57.1685C68.5735 57.5645 68.1445 57.8652 67.6385 58.0705C67.1398 58.2759 66.5898 58.3785 65.9885 58.3785ZM72.5907 58.3565C72.004 58.3565 71.4833 58.2282 71.0287 57.9715C70.574 57.7149 70.2147 57.3629 69.9507 56.9155C69.6867 56.4609 69.5547 55.9475 69.5547 55.3755C69.5547 54.7962 69.6867 54.2829 69.9507 53.8355C70.2147 53.3882 70.574 53.0399 71.0287 52.7905C71.4833 52.5339 72.004 52.4055 72.5907 52.4055C73.17 52.4055 73.687 52.5339 74.1417 52.7905C74.6037 53.0399 74.963 53.3882 75.2197 53.8355C75.4837 54.2755 75.6157 54.7889 75.6157 55.3755C75.6157 55.9549 75.4837 56.4682 75.2197 56.9155C74.963 57.3629 74.6037 57.7149 74.1417 57.9715C73.687 58.2282 73.17 58.3565 72.5907 58.3565ZM72.5907 57.4325C72.9647 57.4325 73.2983 57.3482 73.5917 57.1795C73.8923 57.0109 74.127 56.7725 74.2957 56.4645C74.4643 56.1492 74.5487 55.7862 74.5487 55.3755C74.5487 54.9575 74.4643 54.5982 74.2957 54.2975C74.127 53.9895 73.8923 53.7512 73.5917 53.5825C73.2983 53.4139 72.9647 53.3295 72.5907 53.3295C72.2167 53.3295 71.883 53.4139 71.5897 53.5825C71.2963 53.7512 71.0617 53.9895 70.8857 54.2975C70.7097 54.5982 70.6217 54.9575 70.6217 55.3755C70.6217 55.7862 70.7097 56.1492 70.8857 56.4645C71.0617 56.7725 71.2963 57.0109 71.5897 57.1795C71.883 57.3482 72.2167 57.4325 72.5907 57.4325ZM84.3691 52.4055C84.8384 52.4055 85.2527 52.4972 85.6121 52.6805C85.9714 52.8639 86.2501 53.1425 86.4481 53.5165C86.6534 53.8905 86.7561 54.3635 86.7561 54.9355V58.2905H85.7001V55.0565C85.7001 54.4919 85.5681 54.0665 85.3041 53.7805C85.0401 53.4945 84.6697 53.3515 84.1931 53.3515C83.8411 53.3515 83.5331 53.4249 83.2691 53.5715C83.0051 53.7182 82.7997 53.9345 82.6531 54.2205C82.5137 54.5065 82.4441 54.8622 82.4441 55.2875V58.2905H81.3881V55.0565C81.3881 54.4919 81.2561 54.0665 80.9921 53.7805C80.7354 53.4945 80.3651 53.3515 79.8811 53.3515C79.5364 53.3515 79.2321 53.4249 78.9681 53.5715C78.7041 53.7182 78.4987 53.9345 78.3521 54.2205C78.2054 54.5065 78.1321 54.8622 78.1321 55.2875V58.2905H77.0761V52.4605H78.0881V54.0115L77.9231 53.6155C78.1064 53.2342 78.3887 52.9372 78.7701 52.7245C79.1514 52.5119 79.5951 52.4055 80.1011 52.4055C80.6584 52.4055 81.1387 52.5449 81.5421 52.8235C81.9454 53.0949 82.2094 53.5092 82.3341 54.0665L81.9051 53.8905C82.0811 53.4432 82.3891 53.0839 82.8291 52.8125C83.2691 52.5412 83.7824 52.4055 84.3691 52.4055ZM91.7901 58.3565C91.3061 58.3565 90.8625 58.2465 90.4591 58.0265C90.0631 57.7992 89.7441 57.4655 89.5021 57.0255C89.2675 56.5855 89.1501 56.0355 89.1501 55.3755C89.1501 54.7155 89.2638 54.1655 89.4911 53.7255C89.7258 53.2855 90.0411 52.9555 90.4371 52.7355C90.8405 52.5155 91.2915 52.4055 91.7901 52.4055C92.3621 52.4055 92.8681 52.5302 93.3081 52.7795C93.7481 53.0289 94.0965 53.3772 94.3531 53.8245C94.6098 54.2645 94.7381 54.7815 94.7381 55.3755C94.7381 55.9695 94.6098 56.4902 94.3531 56.9375C94.0965 57.3849 93.7481 57.7332 93.3081 57.9825C92.8681 58.2319 92.3621 58.3565 91.7901 58.3565ZM88.6991 60.4245V52.4605H89.7111V54.0335L89.6451 55.3865L89.7551 56.7395V60.4245H88.6991ZM91.7021 57.4325C92.0761 57.4325 92.4098 57.3482 92.7031 57.1795C93.0038 57.0109 93.2385 56.7725 93.4071 56.4645C93.5831 56.1492 93.6711 55.7862 93.6711 55.3755C93.6711 54.9575 93.5831 54.5982 93.4071 54.2975C93.2385 53.9895 93.0038 53.7512 92.7031 53.5825C92.4098 53.4139 92.0761 53.3295 91.7021 53.3295C91.3355 53.3295 91.0018 53.4139 90.7011 53.5825C90.4078 53.7512 90.1731 53.9895 89.9971 54.2975C89.8285 54.5982 89.7441 54.9575 89.7441 55.3755C89.7441 55.7862 89.8285 56.1492 89.9971 56.4645C90.1731 56.7725 90.4078 57.0109 90.7011 57.1795C91.0018 57.3482 91.3355 57.4325 91.7021 57.4325ZM99.7625 58.2905V57.0585L99.7075 56.8275V54.7265C99.7075 54.2792 99.5755 53.9345 99.3115 53.6925C99.0548 53.4432 98.6661 53.3185 98.1455 53.3185C97.8008 53.3185 97.4635 53.3772 97.1335 53.4945C96.8035 53.6045 96.5248 53.7549 96.2975 53.9455L95.8575 53.1535C96.1581 52.9115 96.5175 52.7282 96.9355 52.6035C97.3608 52.4715 97.8045 52.4055 98.2665 52.4055C99.0658 52.4055 99.6818 52.5999 100.114 52.9885C100.547 53.3772 100.763 53.9712 100.763 54.7705V58.2905H99.7625ZM97.8485 58.3565C97.4158 58.3565 97.0345 58.2832 96.7045 58.1365C96.3818 57.9899 96.1325 57.7882 95.9565 57.5315C95.7805 57.2675 95.6925 56.9705 95.6925 56.6405C95.6925 56.3252 95.7658 56.0392 95.9125 55.7825C96.0665 55.5259 96.3121 55.3205 96.6495 55.1665C96.9941 55.0125 97.4561 54.9355 98.0355 54.9355H99.8835V55.6945H98.0795C97.5515 55.6945 97.1958 55.7825 97.0125 55.9585C96.8291 56.1345 96.7375 56.3472 96.7375 56.5965C96.7375 56.8825 96.8511 57.1135 97.0785 57.2895C97.3058 57.4582 97.6211 57.5425 98.0245 57.5425C98.4205 57.5425 98.7651 57.4545 99.0585 57.2785C99.3591 57.1025 99.5755 56.8459 99.7075 56.5085L99.9165 57.2345C99.7771 57.5792 99.5315 57.8542 99.1795 58.0595C98.8275 58.2575 98.3838 58.3565 97.8485 58.3565ZM105.831 52.4055C106.307 52.4055 106.725 52.4972 107.085 52.6805C107.451 52.8639 107.737 53.1425 107.943 53.5165C108.148 53.8905 108.251 54.3635 108.251 54.9355V58.2905H107.195V55.0565C107.195 54.4919 107.055 54.0665 106.777 53.7805C106.505 53.4945 106.12 53.3515 105.622 53.3515C105.248 53.3515 104.921 53.4249 104.643 53.5715C104.364 53.7182 104.148 53.9345 103.994 54.2205C103.847 54.5065 103.774 54.8622 103.774 55.2875V58.2905H102.718V52.4605H103.73V54.0335L103.565 53.6155C103.755 53.2342 104.049 52.9372 104.445 52.7245C104.841 52.5119 105.303 52.4055 105.831 52.4055ZM110.351 60.4905C110.072 60.4905 109.801 60.4429 109.537 60.3475C109.273 60.2595 109.045 60.1275 108.855 59.9515L109.306 59.1595C109.452 59.2989 109.614 59.4052 109.79 59.4785C109.966 59.5519 110.153 59.5885 110.351 59.5885C110.607 59.5885 110.82 59.5225 110.989 59.3905C111.157 59.2585 111.315 59.0239 111.462 58.6865L111.825 57.8835L111.935 57.7515L114.223 52.4605H115.257L112.43 58.8735C112.261 59.2842 112.07 59.6069 111.858 59.8415C111.652 60.0762 111.425 60.2412 111.176 60.3365C110.926 60.4392 110.651 60.4905 110.351 60.4905ZM111.737 58.4775L109.075 52.4605H110.175L112.441 57.6525L111.737 58.4775Z" fill="white"/>
<rect x="195.5" y="115.791" width="99" height="99" rx="49.5" stroke="white"/>
<path d="M225.764 168.379C225.177 168.379 224.616 168.291 224.081 168.115C223.546 167.931 223.124 167.697 222.816 167.411L223.223 166.553C223.516 166.809 223.89 167.022 224.345 167.191C224.8 167.359 225.273 167.444 225.764 167.444C226.211 167.444 226.574 167.392 226.853 167.29C227.132 167.187 227.337 167.048 227.469 166.872C227.601 166.688 227.667 166.483 227.667 166.256C227.667 165.992 227.579 165.779 227.403 165.618C227.234 165.456 227.011 165.328 226.732 165.233C226.461 165.13 226.16 165.042 225.83 164.969C225.5 164.895 225.166 164.811 224.829 164.716C224.499 164.613 224.195 164.485 223.916 164.331C223.645 164.177 223.425 163.971 223.256 163.715C223.087 163.451 223.003 163.113 223.003 162.703C223.003 162.307 223.106 161.944 223.311 161.614C223.524 161.276 223.846 161.009 224.279 160.811C224.719 160.605 225.276 160.503 225.951 160.503C226.398 160.503 226.842 160.561 227.282 160.679C227.722 160.796 228.103 160.965 228.426 161.185L228.063 162.065C227.733 161.845 227.385 161.687 227.018 161.592C226.651 161.489 226.296 161.438 225.951 161.438C225.518 161.438 225.163 161.493 224.884 161.603C224.605 161.713 224.4 161.859 224.268 162.043C224.143 162.226 224.081 162.431 224.081 162.659C224.081 162.93 224.165 163.146 224.334 163.308C224.51 163.469 224.734 163.597 225.005 163.693C225.284 163.788 225.588 163.876 225.918 163.957C226.248 164.03 226.578 164.114 226.908 164.21C227.245 164.305 227.55 164.43 227.821 164.584C228.1 164.738 228.323 164.943 228.492 165.2C228.661 165.456 228.745 165.786 228.745 166.19C228.745 166.578 228.639 166.941 228.426 167.279C228.213 167.609 227.883 167.876 227.436 168.082C226.996 168.28 226.439 168.379 225.764 168.379ZM232.794 168.357C232.171 168.357 231.621 168.228 231.144 167.972C230.675 167.715 230.308 167.363 230.044 166.916C229.787 166.468 229.659 165.955 229.659 165.376C229.659 164.796 229.784 164.283 230.033 163.836C230.29 163.388 230.638 163.04 231.078 162.791C231.525 162.534 232.028 162.406 232.585 162.406C233.15 162.406 233.648 162.53 234.081 162.78C234.514 163.029 234.851 163.381 235.093 163.836C235.342 164.283 235.467 164.807 235.467 165.409C235.467 165.453 235.463 165.504 235.456 165.563C235.456 165.621 235.452 165.676 235.445 165.728H230.484V164.969H234.895L234.466 165.233C234.473 164.859 234.396 164.525 234.235 164.232C234.074 163.938 233.85 163.711 233.564 163.55C233.285 163.381 232.959 163.297 232.585 163.297C232.218 163.297 231.892 163.381 231.606 163.55C231.32 163.711 231.096 163.942 230.935 164.243C230.774 164.536 230.693 164.873 230.693 165.255V165.431C230.693 165.819 230.781 166.168 230.957 166.476C231.14 166.776 231.393 167.011 231.716 167.18C232.039 167.348 232.409 167.433 232.827 167.433C233.172 167.433 233.483 167.374 233.762 167.257C234.048 167.139 234.297 166.963 234.51 166.729L235.093 167.411C234.829 167.719 234.499 167.953 234.103 168.115C233.714 168.276 233.278 168.357 232.794 168.357ZM236.933 168.291V162.461H237.945V164.045L237.846 163.649C238.008 163.245 238.279 162.937 238.66 162.725C239.042 162.512 239.511 162.406 240.068 162.406V163.429C240.024 163.421 239.98 163.418 239.936 163.418C239.9 163.418 239.863 163.418 239.826 163.418C239.262 163.418 238.814 163.586 238.484 163.924C238.154 164.261 237.989 164.749 237.989 165.387V168.291H236.933ZM243.135 168.291L240.583 162.461H241.683L243.949 167.741H243.421L245.731 162.461H246.765L244.213 168.291H243.135ZM247.751 168.291V162.461H248.807V168.291H247.751ZM248.279 161.339C248.074 161.339 247.901 161.273 247.762 161.141C247.63 161.009 247.564 160.847 247.564 160.657C247.564 160.459 247.63 160.294 247.762 160.162C247.901 160.03 248.074 159.964 248.279 159.964C248.484 159.964 248.653 160.03 248.785 160.162C248.924 160.286 248.994 160.444 248.994 160.635C248.994 160.833 248.928 161.001 248.796 161.141C248.664 161.273 248.492 161.339 248.279 161.339ZM253.364 168.357C252.77 168.357 252.238 168.228 251.769 167.972C251.307 167.715 250.944 167.363 250.68 166.916C250.416 166.468 250.284 165.955 250.284 165.376C250.284 164.796 250.416 164.283 250.68 163.836C250.944 163.388 251.307 163.04 251.769 162.791C252.238 162.534 252.77 162.406 253.364 162.406C253.892 162.406 254.361 162.512 254.772 162.725C255.19 162.93 255.513 163.238 255.74 163.649L254.937 164.166C254.746 163.88 254.512 163.671 254.233 163.539C253.962 163.399 253.668 163.33 253.353 163.33C252.972 163.33 252.631 163.414 252.33 163.583C252.029 163.751 251.791 163.99 251.615 164.298C251.439 164.598 251.351 164.958 251.351 165.376C251.351 165.794 251.439 166.157 251.615 166.465C251.791 166.773 252.029 167.011 252.33 167.18C252.631 167.348 252.972 167.433 253.353 167.433C253.668 167.433 253.962 167.367 254.233 167.235C254.512 167.095 254.746 166.883 254.937 166.597L255.74 167.103C255.513 167.506 255.19 167.818 254.772 168.038C254.361 168.25 253.892 168.357 253.364 168.357ZM259.617 168.357C258.994 168.357 258.444 168.228 257.967 167.972C257.498 167.715 257.131 167.363 256.867 166.916C256.611 166.468 256.482 165.955 256.482 165.376C256.482 164.796 256.607 164.283 256.856 163.836C257.113 163.388 257.461 163.04 257.901 162.791C258.349 162.534 258.851 162.406 259.408 162.406C259.973 162.406 260.472 162.53 260.904 162.78C261.337 163.029 261.674 163.381 261.916 163.836C262.166 164.283 262.29 164.807 262.29 165.409C262.29 165.453 262.287 165.504 262.279 165.563C262.279 165.621 262.276 165.676 262.268 165.728H257.307V164.969H261.718L261.289 165.233C261.297 164.859 261.22 164.525 261.058 164.232C260.897 163.938 260.673 163.711 260.387 163.55C260.109 163.381 259.782 163.297 259.408 163.297C259.042 163.297 258.715 163.381 258.429 163.55C258.143 163.711 257.92 163.942 257.758 164.243C257.597 164.536 257.516 164.873 257.516 165.255V165.431C257.516 165.819 257.604 166.168 257.78 166.476C257.964 166.776 258.217 167.011 258.539 167.18C258.862 167.348 259.232 167.433 259.65 167.433C259.995 167.433 260.307 167.374 260.585 167.257C260.871 167.139 261.121 166.963 261.333 166.729L261.916 167.411C261.652 167.719 261.322 167.953 260.926 168.115C260.538 168.276 260.101 168.357 259.617 168.357ZM265.429 168.357C264.945 168.357 264.483 168.291 264.043 168.159C263.61 168.027 263.269 167.865 263.02 167.675L263.46 166.839C263.709 167.007 264.017 167.15 264.384 167.268C264.75 167.385 265.124 167.444 265.506 167.444C265.997 167.444 266.349 167.374 266.562 167.235C266.782 167.095 266.892 166.901 266.892 166.652C266.892 166.468 266.826 166.325 266.694 166.223C266.562 166.12 266.386 166.043 266.166 165.992C265.953 165.94 265.715 165.896 265.451 165.86C265.187 165.816 264.923 165.764 264.659 165.706C264.395 165.64 264.153 165.552 263.933 165.442C263.713 165.324 263.537 165.167 263.405 164.969C263.273 164.763 263.207 164.492 263.207 164.155C263.207 163.803 263.306 163.495 263.504 163.231C263.702 162.967 263.98 162.765 264.34 162.626C264.706 162.479 265.139 162.406 265.638 162.406C266.019 162.406 266.404 162.453 266.793 162.549C267.189 162.637 267.511 162.765 267.761 162.934L267.31 163.77C267.046 163.594 266.771 163.473 266.485 163.407C266.199 163.341 265.913 163.308 265.627 163.308C265.165 163.308 264.82 163.385 264.593 163.539C264.365 163.685 264.252 163.876 264.252 164.111C264.252 164.309 264.318 164.463 264.45 164.573C264.589 164.675 264.765 164.756 264.978 164.815C265.198 164.873 265.44 164.925 265.704 164.969C265.968 165.005 266.232 165.057 266.496 165.123C266.76 165.181 266.998 165.266 267.211 165.376C267.431 165.486 267.607 165.64 267.739 165.838C267.878 166.036 267.948 166.3 267.948 166.63C267.948 166.982 267.845 167.286 267.64 167.543C267.434 167.799 267.145 168.001 266.771 168.148C266.397 168.287 265.949 168.357 265.429 168.357Z" fill="white"/>
<rect x="315.5" y="528.791" width="99" height="99" rx="49.5" stroke="white"/>
<path d="M350.277 575.291V567.591H351.377V574.334H355.546V575.291H350.277ZM359.175 575.357C358.552 575.357 358.002 575.228 357.525 574.972C357.056 574.715 356.689 574.363 356.425 573.916C356.169 573.468 356.04 572.955 356.04 572.376C356.04 571.796 356.165 571.283 356.414 570.836C356.671 570.388 357.019 570.04 357.459 569.791C357.907 569.534 358.409 569.406 358.966 569.406C359.531 569.406 360.03 569.53 360.462 569.78C360.895 570.029 361.232 570.381 361.474 570.836C361.724 571.283 361.848 571.807 361.848 572.409C361.848 572.453 361.845 572.504 361.837 572.563C361.837 572.621 361.834 572.676 361.826 572.728H356.865V571.969H361.276L360.847 572.233C360.855 571.859 360.778 571.525 360.616 571.232C360.455 570.938 360.231 570.711 359.945 570.55C359.667 570.381 359.34 570.297 358.966 570.297C358.6 570.297 358.273 570.381 357.987 570.55C357.701 570.711 357.478 570.942 357.316 571.243C357.155 571.536 357.074 571.873 357.074 572.255V572.431C357.074 572.819 357.162 573.168 357.338 573.476C357.522 573.776 357.775 574.011 358.097 574.18C358.42 574.348 358.79 574.433 359.208 574.433C359.553 574.433 359.865 574.374 360.143 574.257C360.429 574.139 360.679 573.963 360.891 573.729L361.474 574.411C361.21 574.719 360.88 574.953 360.484 575.115C360.096 575.276 359.659 575.357 359.175 575.357ZM365.867 577.491C365.332 577.491 364.811 577.414 364.305 577.26C363.806 577.113 363.399 576.9 363.084 576.622L363.59 575.808C363.861 576.042 364.195 576.226 364.591 576.358C364.987 576.497 365.401 576.567 365.834 576.567C366.523 576.567 367.029 576.405 367.352 576.083C367.675 575.76 367.836 575.269 367.836 574.609V573.377L367.946 572.222L367.891 571.056V569.461H368.892V574.499C368.892 575.525 368.635 576.281 368.122 576.765C367.609 577.249 366.857 577.491 365.867 577.491ZM365.735 575.049C365.17 575.049 364.664 574.931 364.217 574.697C363.777 574.455 363.425 574.121 363.161 573.696C362.904 573.27 362.776 572.779 362.776 572.222C362.776 571.657 362.904 571.166 363.161 570.748C363.425 570.322 363.777 569.992 364.217 569.758C364.664 569.523 365.17 569.406 365.735 569.406C366.234 569.406 366.688 569.508 367.099 569.714C367.51 569.912 367.836 570.22 368.078 570.638C368.327 571.056 368.452 571.584 368.452 572.222C368.452 572.852 368.327 573.377 368.078 573.795C367.836 574.213 367.51 574.528 367.099 574.741C366.688 574.946 366.234 575.049 365.735 575.049ZM365.856 574.125C366.245 574.125 366.589 574.044 366.89 573.883C367.191 573.721 367.425 573.498 367.594 573.212C367.77 572.926 367.858 572.596 367.858 572.222C367.858 571.848 367.77 571.518 367.594 571.232C367.425 570.946 367.191 570.726 366.89 570.572C366.589 570.41 366.245 570.33 365.856 570.33C365.467 570.33 365.119 570.41 364.811 570.572C364.51 570.726 364.272 570.946 364.096 571.232C363.927 571.518 363.843 571.848 363.843 572.222C363.843 572.596 363.927 572.926 364.096 573.212C364.272 573.498 364.51 573.721 364.811 573.883C365.119 574.044 365.467 574.125 365.856 574.125ZM374.529 575.291V574.059L374.474 573.828V571.727C374.474 571.279 374.342 570.935 374.078 570.693C373.821 570.443 373.432 570.319 372.912 570.319C372.567 570.319 372.23 570.377 371.9 570.495C371.57 570.605 371.291 570.755 371.064 570.946L370.624 570.154C370.924 569.912 371.284 569.728 371.702 569.604C372.127 569.472 372.571 569.406 373.033 569.406C373.832 569.406 374.448 569.6 374.881 569.989C375.313 570.377 375.53 570.971 375.53 571.771V575.291H374.529ZM372.615 575.357C372.182 575.357 371.801 575.283 371.471 575.137C371.148 574.99 370.899 574.788 370.723 574.532C370.547 574.268 370.459 573.971 370.459 573.641C370.459 573.325 370.532 573.039 370.679 572.783C370.833 572.526 371.078 572.321 371.416 572.167C371.76 572.013 372.222 571.936 372.802 571.936H374.65V572.695H372.846C372.318 572.695 371.962 572.783 371.779 572.959C371.595 573.135 371.504 573.347 371.504 573.597C371.504 573.883 371.617 574.114 371.845 574.29C372.072 574.458 372.387 574.543 372.791 574.543C373.187 574.543 373.531 574.455 373.825 574.279C374.125 574.103 374.342 573.846 374.474 573.509L374.683 574.235C374.543 574.579 374.298 574.854 373.946 575.06C373.594 575.258 373.15 575.357 372.615 575.357ZM377.484 575.291V567.129H378.54V575.291H377.484ZM347.795 586.357C347.311 586.357 346.867 586.247 346.464 586.027C346.068 585.799 345.749 585.466 345.507 585.026C345.272 584.586 345.155 584.036 345.155 583.376C345.155 582.716 345.269 582.166 345.496 581.726C345.731 581.286 346.046 580.956 346.442 580.736C346.845 580.516 347.296 580.406 347.795 580.406C348.367 580.406 348.873 580.53 349.313 580.78C349.753 581.029 350.101 581.377 350.358 581.825C350.615 582.265 350.743 582.782 350.743 583.376C350.743 583.97 350.615 584.49 350.358 584.938C350.101 585.385 349.753 585.733 349.313 585.983C348.873 586.232 348.367 586.357 347.795 586.357ZM344.704 588.425V580.461H345.716V582.034L345.65 583.387L345.76 584.74V588.425H344.704ZM347.707 585.433C348.081 585.433 348.415 585.348 348.708 585.18C349.009 585.011 349.243 584.773 349.412 584.465C349.588 584.149 349.676 583.786 349.676 583.376C349.676 582.958 349.588 582.598 349.412 582.298C349.243 581.99 349.009 581.751 348.708 581.583C348.415 581.414 348.081 581.33 347.707 581.33C347.34 581.33 347.007 581.414 346.706 581.583C346.413 581.751 346.178 581.99 346.002 582.298C345.833 582.598 345.749 582.958 345.749 583.376C345.749 583.786 345.833 584.149 346.002 584.465C346.178 584.773 346.413 585.011 346.706 585.18C347.007 585.348 347.34 585.433 347.707 585.433ZM354.798 586.357C354.175 586.357 353.625 586.228 353.148 585.972C352.679 585.715 352.312 585.363 352.048 584.916C351.791 584.468 351.663 583.955 351.663 583.376C351.663 582.796 351.788 582.283 352.037 581.836C352.294 581.388 352.642 581.04 353.082 580.791C353.529 580.534 354.032 580.406 354.589 580.406C355.154 580.406 355.652 580.53 356.085 580.78C356.518 581.029 356.855 581.381 357.097 581.836C357.346 582.283 357.471 582.807 357.471 583.409C357.471 583.453 357.467 583.504 357.46 583.563C357.46 583.621 357.456 583.676 357.449 583.728H352.488V582.969H356.899L356.47 583.233C356.477 582.859 356.4 582.525 356.239 582.232C356.078 581.938 355.854 581.711 355.568 581.55C355.289 581.381 354.963 581.297 354.589 581.297C354.222 581.297 353.896 581.381 353.61 581.55C353.324 581.711 353.1 581.942 352.939 582.243C352.778 582.536 352.697 582.873 352.697 583.255V583.431C352.697 583.819 352.785 584.168 352.961 584.476C353.144 584.776 353.397 585.011 353.72 585.18C354.043 585.348 354.413 585.433 354.831 585.433C355.176 585.433 355.487 585.374 355.766 585.257C356.052 585.139 356.301 584.963 356.514 584.729L357.097 585.411C356.833 585.719 356.503 585.953 356.107 586.115C355.718 586.276 355.282 586.357 354.798 586.357ZM358.937 586.291V580.461H359.949V582.045L359.85 581.649C360.012 581.245 360.283 580.937 360.664 580.725C361.046 580.512 361.515 580.406 362.072 580.406V581.429C362.028 581.421 361.984 581.418 361.94 581.418C361.904 581.418 361.867 581.418 361.83 581.418C361.266 581.418 360.818 581.586 360.488 581.924C360.158 582.261 359.993 582.749 359.993 583.387V586.291H358.937ZM365.11 586.357C364.626 586.357 364.164 586.291 363.724 586.159C363.292 586.027 362.951 585.865 362.701 585.675L363.141 584.839C363.391 585.007 363.699 585.15 364.065 585.268C364.432 585.385 364.806 585.444 365.187 585.444C365.679 585.444 366.031 585.374 366.243 585.235C366.463 585.095 366.573 584.901 366.573 584.652C366.573 584.468 366.507 584.325 366.375 584.223C366.243 584.12 366.067 584.043 365.847 583.992C365.635 583.94 365.396 583.896 365.132 583.86C364.868 583.816 364.604 583.764 364.34 583.706C364.076 583.64 363.834 583.552 363.614 583.442C363.394 583.324 363.218 583.167 363.086 582.969C362.954 582.763 362.888 582.492 362.888 582.155C362.888 581.803 362.987 581.495 363.185 581.231C363.383 580.967 363.662 580.765 364.021 580.626C364.388 580.479 364.821 580.406 365.319 580.406C365.701 580.406 366.086 580.453 366.474 580.549C366.87 580.637 367.193 580.765 367.442 580.934L366.991 581.77C366.727 581.594 366.452 581.473 366.166 581.407C365.88 581.341 365.594 581.308 365.308 581.308C364.846 581.308 364.502 581.385 364.274 581.539C364.047 581.685 363.933 581.876 363.933 582.111C363.933 582.309 363.999 582.463 364.131 582.573C364.271 582.675 364.447 582.756 364.659 582.815C364.879 582.873 365.121 582.925 365.385 582.969C365.649 583.005 365.913 583.057 366.177 583.123C366.441 583.181 366.68 583.266 366.892 583.376C367.112 583.486 367.288 583.64 367.42 583.838C367.56 584.036 367.629 584.3 367.629 584.63C367.629 584.982 367.527 585.286 367.321 585.543C367.116 585.799 366.826 586.001 366.452 586.148C366.078 586.287 365.631 586.357 365.11 586.357ZM371.446 586.357C370.859 586.357 370.339 586.228 369.884 585.972C369.429 585.715 369.07 585.363 368.806 584.916C368.542 584.461 368.41 583.948 368.41 583.376C368.41 582.796 368.542 582.283 368.806 581.836C369.07 581.388 369.429 581.04 369.884 580.791C370.339 580.534 370.859 580.406 371.446 580.406C372.025 580.406 372.542 580.534 372.997 580.791C373.459 581.04 373.818 581.388 374.075 581.836C374.339 582.276 374.471 582.789 374.471 583.376C374.471 583.955 374.339 584.468 374.075 584.916C373.818 585.363 373.459 585.715 372.997 585.972C372.542 586.228 372.025 586.357 371.446 586.357ZM371.446 585.433C371.82 585.433 372.154 585.348 372.447 585.18C372.748 585.011 372.982 584.773 373.151 584.465C373.32 584.149 373.404 583.786 373.404 583.376C373.404 582.958 373.32 582.598 373.151 582.298C372.982 581.99 372.748 581.751 372.447 581.583C372.154 581.414 371.82 581.33 371.446 581.33C371.072 581.33 370.738 581.414 370.445 581.583C370.152 581.751 369.917 581.99 369.741 582.298C369.565 582.598 369.477 582.958 369.477 583.376C369.477 583.786 369.565 584.149 369.741 584.465C369.917 584.773 370.152 585.011 370.445 585.18C370.738 585.348 371.072 585.433 371.446 585.433ZM379.045 580.406C379.521 580.406 379.939 580.497 380.299 580.681C380.665 580.864 380.951 581.143 381.157 581.517C381.362 581.891 381.465 582.364 381.465 582.936V586.291H380.409V583.057C380.409 582.492 380.269 582.067 379.991 581.781C379.719 581.495 379.334 581.352 378.836 581.352C378.462 581.352 378.135 581.425 377.857 581.572C377.578 581.718 377.362 581.935 377.208 582.221C377.061 582.507 376.988 582.862 376.988 583.288V586.291H375.932V580.461H376.944V582.034L376.779 581.616C376.969 581.234 377.263 580.937 377.659 580.725C378.055 580.512 378.517 580.406 379.045 580.406ZM385.091 586.357C384.607 586.357 384.145 586.291 383.705 586.159C383.272 586.027 382.931 585.865 382.682 585.675L383.122 584.839C383.371 585.007 383.679 585.15 384.046 585.268C384.413 585.385 384.787 585.444 385.168 585.444C385.659 585.444 386.011 585.374 386.224 585.235C386.444 585.095 386.554 584.901 386.554 584.652C386.554 584.468 386.488 584.325 386.356 584.223C386.224 584.12 386.048 584.043 385.828 583.992C385.615 583.94 385.377 583.896 385.113 583.86C384.849 583.816 384.585 583.764 384.321 583.706C384.057 583.64 383.815 583.552 383.595 583.442C383.375 583.324 383.199 583.167 383.067 582.969C382.935 582.763 382.869 582.492 382.869 582.155C382.869 581.803 382.968 581.495 383.166 581.231C383.364 580.967 383.643 580.765 384.002 580.626C384.369 580.479 384.801 580.406 385.3 580.406C385.681 580.406 386.066 580.453 386.455 580.549C386.851 580.637 387.174 580.765 387.423 580.934L386.972 581.77C386.708 581.594 386.433 581.473 386.147 581.407C385.861 581.341 385.575 581.308 385.289 581.308C384.827 581.308 384.482 581.385 384.255 581.539C384.028 581.685 383.914 581.876 383.914 582.111C383.914 582.309 383.98 582.463 384.112 582.573C384.251 582.675 384.427 582.756 384.64 582.815C384.86 582.873 385.102 582.925 385.366 582.969C385.63 583.005 385.894 583.057 386.158 583.123C386.422 583.181 386.66 583.266 386.873 583.376C387.093 583.486 387.269 583.64 387.401 583.838C387.54 584.036 387.61 584.3 387.61 584.63C387.61 584.982 387.507 585.286 387.302 585.543C387.097 585.799 386.807 586.001 386.433 586.148C386.059 586.287 385.612 586.357 385.091 586.357Z" fill="white"/>
<rect x="195.5" y="528.791" width="99" height="99" rx="49.5" stroke="white"/>
<path d="M229.019 581.379C228.433 581.379 227.872 581.291 227.336 581.115C226.801 580.931 226.379 580.697 226.071 580.411L226.478 579.553C226.772 579.809 227.146 580.022 227.6 580.191C228.055 580.359 228.528 580.444 229.019 580.444C229.467 580.444 229.83 580.392 230.108 580.29C230.387 580.187 230.592 580.048 230.724 579.872C230.856 579.688 230.922 579.483 230.922 579.256C230.922 578.992 230.834 578.779 230.658 578.618C230.49 578.456 230.266 578.328 229.987 578.233C229.716 578.13 229.415 578.042 229.085 577.969C228.755 577.895 228.422 577.811 228.084 577.716C227.754 577.613 227.45 577.485 227.171 577.331C226.9 577.177 226.68 576.971 226.511 576.715C226.343 576.451 226.258 576.113 226.258 575.703C226.258 575.307 226.361 574.944 226.566 574.614C226.779 574.276 227.102 574.009 227.534 573.811C227.974 573.605 228.532 573.503 229.206 573.503C229.654 573.503 230.097 573.561 230.537 573.679C230.977 573.796 231.359 573.965 231.681 574.185L231.318 575.065C230.988 574.845 230.64 574.687 230.273 574.592C229.907 574.489 229.551 574.438 229.206 574.438C228.774 574.438 228.418 574.493 228.139 574.603C227.861 574.713 227.655 574.859 227.523 575.043C227.399 575.226 227.336 575.431 227.336 575.659C227.336 575.93 227.421 576.146 227.589 576.308C227.765 576.469 227.989 576.597 228.26 576.693C228.539 576.788 228.843 576.876 229.173 576.957C229.503 577.03 229.833 577.114 230.163 577.21C230.501 577.305 230.805 577.43 231.076 577.584C231.355 577.738 231.579 577.943 231.747 578.2C231.916 578.456 232 578.786 232 579.19C232 579.578 231.894 579.941 231.681 580.279C231.469 580.609 231.139 580.876 230.691 581.082C230.251 581.28 229.694 581.379 229.019 581.379ZM236.05 581.357C235.426 581.357 234.876 581.228 234.4 580.972C233.93 580.715 233.564 580.363 233.3 579.916C233.043 579.468 232.915 578.955 232.915 578.376C232.915 577.796 233.039 577.283 233.289 576.836C233.545 576.388 233.894 576.04 234.334 575.791C234.781 575.534 235.283 575.406 235.841 575.406C236.405 575.406 236.904 575.53 237.337 575.78C237.769 576.029 238.107 576.381 238.349 576.836C238.598 577.283 238.723 577.807 238.723 578.409C238.723 578.453 238.719 578.504 238.712 578.563C238.712 578.621 238.708 578.676 238.701 578.728H233.74V577.969H238.151L237.722 578.233C237.729 577.859 237.652 577.525 237.491 577.232C237.329 576.938 237.106 576.711 236.82 576.55C236.541 576.381 236.215 576.297 235.841 576.297C235.474 576.297 235.148 576.381 234.862 576.55C234.576 576.711 234.352 576.942 234.191 577.243C234.029 577.536 233.949 577.873 233.949 578.255V578.431C233.949 578.819 234.037 579.168 234.213 579.476C234.396 579.776 234.649 580.011 234.972 580.18C235.294 580.348 235.665 580.433 236.083 580.433C236.427 580.433 236.739 580.374 237.018 580.257C237.304 580.139 237.553 579.963 237.766 579.729L238.349 580.411C238.085 580.719 237.755 580.953 237.359 581.115C236.97 581.276 236.534 581.357 236.05 581.357ZM240.189 581.291V575.461H241.201V577.045L241.102 576.649C241.263 576.245 241.535 575.937 241.916 575.725C242.297 575.512 242.767 575.406 243.324 575.406V576.429C243.28 576.421 243.236 576.418 243.192 576.418C243.155 576.418 243.119 576.418 243.082 576.418C242.517 576.418 242.07 576.586 241.74 576.924C241.41 577.261 241.245 577.749 241.245 578.387V581.291H240.189ZM246.391 581.291L243.839 575.461H244.939L247.205 580.741H246.677L248.987 575.461H250.021L247.469 581.291H246.391ZM251.006 581.291V575.461H252.062V581.291H251.006ZM251.534 574.339C251.329 574.339 251.157 574.273 251.017 574.141C250.885 574.009 250.819 573.847 250.819 573.657C250.819 573.459 250.885 573.294 251.017 573.162C251.157 573.03 251.329 572.964 251.534 572.964C251.74 572.964 251.908 573.03 252.04 573.162C252.18 573.286 252.249 573.444 252.249 573.635C252.249 573.833 252.183 574.001 252.051 574.141C251.919 574.273 251.747 574.339 251.534 574.339ZM256.62 581.357C256.026 581.357 255.494 581.228 255.025 580.972C254.563 580.715 254.2 580.363 253.936 579.916C253.672 579.468 253.54 578.955 253.54 578.376C253.54 577.796 253.672 577.283 253.936 576.836C254.2 576.388 254.563 576.04 255.025 575.791C255.494 575.534 256.026 575.406 256.62 575.406C257.148 575.406 257.617 575.512 258.028 575.725C258.446 575.93 258.768 576.238 258.996 576.649L258.193 577.166C258.002 576.88 257.767 576.671 257.489 576.539C257.217 576.399 256.924 576.33 256.609 576.33C256.227 576.33 255.886 576.414 255.586 576.583C255.285 576.751 255.047 576.99 254.871 577.298C254.695 577.598 254.607 577.958 254.607 578.376C254.607 578.794 254.695 579.157 254.871 579.465C255.047 579.773 255.285 580.011 255.586 580.18C255.886 580.348 256.227 580.433 256.609 580.433C256.924 580.433 257.217 580.367 257.489 580.235C257.767 580.095 258.002 579.883 258.193 579.597L258.996 580.103C258.768 580.506 258.446 580.818 258.028 581.038C257.617 581.25 257.148 581.357 256.62 581.357ZM262.873 581.357C262.249 581.357 261.699 581.228 261.223 580.972C260.753 580.715 260.387 580.363 260.123 579.916C259.866 579.468 259.738 578.955 259.738 578.376C259.738 577.796 259.862 577.283 260.112 576.836C260.368 576.388 260.717 576.04 261.157 575.791C261.604 575.534 262.106 575.406 262.664 575.406C263.228 575.406 263.727 575.53 264.16 575.78C264.592 576.029 264.93 576.381 265.172 576.836C265.421 577.283 265.546 577.807 265.546 578.409C265.546 578.453 265.542 578.504 265.535 578.563C265.535 578.621 265.531 578.676 265.524 578.728H260.563V577.969H264.974L264.545 578.233C264.552 577.859 264.475 577.525 264.314 577.232C264.152 576.938 263.929 576.711 263.643 576.55C263.364 576.381 263.038 576.297 262.664 576.297C262.297 576.297 261.971 576.381 261.685 576.55C261.399 576.711 261.175 576.942 261.014 577.243C260.852 577.536 260.772 577.873 260.772 578.255V578.431C260.772 578.819 260.86 579.168 261.036 579.476C261.219 579.776 261.472 580.011 261.795 580.18C262.117 580.348 262.488 580.433 262.906 580.433C263.25 580.433 263.562 580.374 263.841 580.257C264.127 580.139 264.376 579.963 264.589 579.729L265.172 580.411C264.908 580.719 264.578 580.953 264.182 581.115C263.793 581.276 263.357 581.357 262.873 581.357Z" fill="white"/>
<rect x="38.5" y="528.791" width="99" height="99" rx="49.5" stroke="white"/>
<path d="M82.8496 575.379C82.263 575.379 81.7166 575.28 81.2106 575.082C80.712 574.884 80.2793 574.609 79.9126 574.257C79.546 573.897 79.26 573.479 79.0546 573.003C78.8493 572.526 78.7466 572.005 78.7466 571.441C78.7466 570.876 78.8493 570.355 79.0546 569.879C79.26 569.402 79.546 568.988 79.9126 568.636C80.2793 568.276 80.712 567.998 81.2106 567.8C81.7093 567.602 82.2556 567.503 82.8496 567.503C83.4363 567.503 83.9753 567.602 84.4666 567.8C84.9653 567.99 85.398 568.265 85.7646 568.625C86.1386 568.977 86.4246 569.391 86.6226 569.868C86.828 570.344 86.9306 570.869 86.9306 571.441C86.9306 572.013 86.828 572.537 86.6226 573.014C86.4246 573.49 86.1386 573.908 85.7646 574.268C85.398 574.62 84.9653 574.895 84.4666 575.093C83.9753 575.283 83.4363 575.379 82.8496 575.379ZM82.8496 574.4C83.275 574.4 83.6673 574.326 84.0266 574.18C84.3933 574.033 84.7086 573.828 84.9726 573.564C85.244 573.292 85.453 572.977 85.5996 572.618C85.7536 572.258 85.8306 571.866 85.8306 571.441C85.8306 571.015 85.7536 570.623 85.5996 570.264C85.453 569.904 85.244 569.593 84.9726 569.329C84.7086 569.057 84.3933 568.848 84.0266 568.702C83.6673 568.555 83.275 568.482 82.8496 568.482C82.417 568.482 82.0173 568.555 81.6506 568.702C81.2913 568.848 80.976 569.057 80.7046 569.329C80.4333 569.593 80.2206 569.904 80.0666 570.264C79.92 570.623 79.8466 571.015 79.8466 571.441C79.8466 571.866 79.92 572.258 80.0666 572.618C80.2206 572.977 80.4333 573.292 80.7046 573.564C80.976 573.828 81.2913 574.033 81.6506 574.18C82.0173 574.326 82.417 574.4 82.8496 574.4ZM90.9109 575.357C90.4122 575.357 89.9722 575.265 89.5909 575.082C89.2169 574.898 88.9236 574.62 88.7109 574.246C88.5056 573.864 88.4029 573.388 88.4029 572.816V569.461H89.4589V572.695C89.4589 573.267 89.5946 573.696 89.8659 573.982C90.1446 574.268 90.5332 574.411 91.0319 574.411C91.3986 574.411 91.7176 574.337 91.9889 574.191C92.2602 574.037 92.4692 573.817 92.6159 573.531C92.7626 573.237 92.8359 572.885 92.8359 572.475V569.461H93.8919V575.291H92.8909V573.718L93.0559 574.136C92.8652 574.524 92.5792 574.825 92.1979 575.038C91.8166 575.25 91.3876 575.357 90.9109 575.357ZM95.9022 575.291V569.461H96.9142V571.045L96.8152 570.649C96.9766 570.245 97.2479 569.937 97.6292 569.725C98.0106 569.512 98.4799 569.406 99.0372 569.406V570.429C98.9932 570.421 98.9492 570.418 98.9052 570.418C98.8686 570.418 98.8319 570.418 98.7952 570.418C98.2306 570.418 97.7832 570.586 97.4532 570.924C97.1232 571.261 96.9582 571.749 96.9582 572.387V575.291H95.9022ZM66.1845 586.357C65.5905 586.357 65.0588 586.228 64.5895 585.972C64.1275 585.715 63.7645 585.363 63.5005 584.916C63.2365 584.468 63.1045 583.955 63.1045 583.376C63.1045 582.796 63.2365 582.283 63.5005 581.836C63.7645 581.388 64.1275 581.04 64.5895 580.791C65.0588 580.534 65.5905 580.406 66.1845 580.406C66.7125 580.406 67.1818 580.512 67.5925 580.725C68.0105 580.93 68.3331 581.238 68.5605 581.649L67.7575 582.166C67.5668 581.88 67.3321 581.671 67.0535 581.539C66.7821 581.399 66.4888 581.33 66.1735 581.33C65.7921 581.33 65.4511 581.414 65.1505 581.583C64.8498 581.751 64.6115 581.99 64.4355 582.298C64.2595 582.598 64.1715 582.958 64.1715 583.376C64.1715 583.794 64.2595 584.157 64.4355 584.465C64.6115 584.773 64.8498 585.011 65.1505 585.18C65.4511 585.348 65.7921 585.433 66.1735 585.433C66.4888 585.433 66.7821 585.367 67.0535 585.235C67.3321 585.095 67.5668 584.883 67.7575 584.597L68.5605 585.103C68.3331 585.506 68.0105 585.818 67.5925 586.038C67.1818 586.25 66.7125 586.357 66.1845 586.357ZM72.3387 586.357C71.752 586.357 71.2314 586.228 70.7767 585.972C70.322 585.715 69.9627 585.363 69.6987 584.916C69.4347 584.461 69.3027 583.948 69.3027 583.376C69.3027 582.796 69.4347 582.283 69.6987 581.836C69.9627 581.388 70.322 581.04 70.7767 580.791C71.2314 580.534 71.752 580.406 72.3387 580.406C72.918 580.406 73.435 580.534 73.8897 580.791C74.3517 581.04 74.711 581.388 74.9677 581.836C75.2317 582.276 75.3637 582.789 75.3637 583.376C75.3637 583.955 75.2317 584.468 74.9677 584.916C74.711 585.363 74.3517 585.715 73.8897 585.972C73.435 586.228 72.918 586.357 72.3387 586.357ZM72.3387 585.433C72.7127 585.433 73.0464 585.348 73.3397 585.18C73.6404 585.011 73.875 584.773 74.0437 584.465C74.2124 584.149 74.2967 583.786 74.2967 583.376C74.2967 582.958 74.2124 582.598 74.0437 582.298C73.875 581.99 73.6404 581.751 73.3397 581.583C73.0464 581.414 72.7127 581.33 72.3387 581.33C71.9647 581.33 71.631 581.414 71.3377 581.583C71.0444 581.751 70.8097 581.99 70.6337 582.298C70.4577 582.598 70.3697 582.958 70.3697 583.376C70.3697 583.786 70.4577 584.149 70.6337 584.465C70.8097 584.773 71.0444 585.011 71.3377 585.18C71.631 585.348 71.9647 585.433 72.3387 585.433ZM84.1171 580.406C84.5865 580.406 85.0008 580.497 85.3601 580.681C85.7195 580.864 85.9981 581.143 86.1961 581.517C86.4015 581.891 86.5041 582.364 86.5041 582.936V586.291H85.4481V583.057C85.4481 582.492 85.3161 582.067 85.0521 581.781C84.7881 581.495 84.4178 581.352 83.9411 581.352C83.5891 581.352 83.2811 581.425 83.0171 581.572C82.7531 581.718 82.5478 581.935 82.4011 582.221C82.2618 582.507 82.1921 582.862 82.1921 583.288V586.291H81.1361V583.057C81.1361 582.492 81.0041 582.067 80.7401 581.781C80.4835 581.495 80.1131 581.352 79.6291 581.352C79.2845 581.352 78.9801 581.425 78.7161 581.572C78.4521 581.718 78.2468 581.935 78.1001 582.221C77.9535 582.507 77.8801 582.862 77.8801 583.288V586.291H76.8241V580.461H77.8361V582.012L77.6711 581.616C77.8545 581.234 78.1368 580.937 78.5181 580.725C78.8995 580.512 79.3431 580.406 79.8491 580.406C80.4065 580.406 80.8868 580.545 81.2901 580.824C81.6935 581.095 81.9575 581.509 82.0821 582.067L81.6531 581.891C81.8291 581.443 82.1371 581.084 82.5771 580.813C83.0171 580.541 83.5305 580.406 84.1171 580.406ZM91.5382 586.357C91.0542 586.357 90.6105 586.247 90.2072 586.027C89.8112 585.799 89.4922 585.466 89.2502 585.026C89.0155 584.586 88.8982 584.036 88.8982 583.376C88.8982 582.716 89.0118 582.166 89.2392 581.726C89.4738 581.286 89.7892 580.956 90.1852 580.736C90.5885 580.516 91.0395 580.406 91.5382 580.406C92.1102 580.406 92.6162 580.53 93.0562 580.78C93.4962 581.029 93.8445 581.377 94.1012 581.825C94.3578 582.265 94.4862 582.782 94.4862 583.376C94.4862 583.97 94.3578 584.49 94.1012 584.938C93.8445 585.385 93.4962 585.733 93.0562 585.983C92.6162 586.232 92.1102 586.357 91.5382 586.357ZM88.4472 588.425V580.461H89.4592V582.034L89.3932 583.387L89.5032 584.74V588.425H88.4472ZM91.4502 585.433C91.8242 585.433 92.1578 585.348 92.4512 585.18C92.7518 585.011 92.9865 584.773 93.1552 584.465C93.3312 584.149 93.4192 583.786 93.4192 583.376C93.4192 582.958 93.3312 582.598 93.1552 582.298C92.9865 581.99 92.7518 581.751 92.4512 581.583C92.1578 581.414 91.8242 581.33 91.4502 581.33C91.0835 581.33 90.7498 581.414 90.4492 581.583C90.1558 581.751 89.9212 581.99 89.7452 582.298C89.5765 582.598 89.4922 582.958 89.4922 583.376C89.4922 583.786 89.5765 584.149 89.7452 584.465C89.9212 584.773 90.1558 585.011 90.4492 585.18C90.7498 585.348 91.0835 585.433 91.4502 585.433ZM99.5105 586.291V585.059L99.4555 584.828V582.727C99.4555 582.279 99.3235 581.935 99.0595 581.693C98.8028 581.443 98.4142 581.319 97.8935 581.319C97.5488 581.319 97.2115 581.377 96.8815 581.495C96.5515 581.605 96.2728 581.755 96.0455 581.946L95.6055 581.154C95.9062 580.912 96.2655 580.728 96.6835 580.604C97.1088 580.472 97.5525 580.406 98.0145 580.406C98.8138 580.406 99.4298 580.6 99.8625 580.989C100.295 581.377 100.512 581.971 100.512 582.771V586.291H99.5105ZM97.5965 586.357C97.1638 586.357 96.7825 586.283 96.4525 586.137C96.1298 585.99 95.8805 585.788 95.7045 585.532C95.5285 585.268 95.4405 584.971 95.4405 584.641C95.4405 584.325 95.5138 584.039 95.6605 583.783C95.8145 583.526 96.0602 583.321 96.3975 583.167C96.7422 583.013 97.2042 582.936 97.7835 582.936H99.6315V583.695H97.8275C97.2995 583.695 96.9438 583.783 96.7605 583.959C96.5772 584.135 96.4855 584.347 96.4855 584.597C96.4855 584.883 96.5992 585.114 96.8265 585.29C97.0538 585.458 97.3692 585.543 97.7725 585.543C98.1685 585.543 98.5132 585.455 98.8065 585.279C99.1072 585.103 99.3235 584.846 99.4555 584.509L99.6645 585.235C99.5252 585.579 99.2795 585.854 98.9275 586.06C98.5755 586.258 98.1318 586.357 97.5965 586.357ZM105.579 580.406C106.055 580.406 106.473 580.497 106.833 580.681C107.199 580.864 107.485 581.143 107.691 581.517C107.896 581.891 107.999 582.364 107.999 582.936V586.291H106.943V583.057C106.943 582.492 106.803 582.067 106.525 581.781C106.253 581.495 105.868 581.352 105.37 581.352C104.996 581.352 104.669 581.425 104.391 581.572C104.112 581.718 103.896 581.935 103.742 582.221C103.595 582.507 103.522 582.862 103.522 583.288V586.291H102.466V580.461H103.478V582.034L103.313 581.616C103.503 581.234 103.797 580.937 104.193 580.725C104.589 580.512 105.051 580.406 105.579 580.406ZM110.099 588.491C109.82 588.491 109.549 588.443 109.285 588.348C109.021 588.26 108.793 588.128 108.603 587.952L109.054 587.16C109.2 587.299 109.362 587.405 109.538 587.479C109.714 587.552 109.901 587.589 110.099 587.589C110.355 587.589 110.568 587.523 110.737 587.391C110.905 587.259 111.063 587.024 111.21 586.687L111.573 585.884L111.683 585.752L113.971 580.461H115.005L112.178 586.874C112.009 587.284 111.818 587.607 111.606 587.842C111.4 588.076 111.173 588.241 110.924 588.337C110.674 588.439 110.399 588.491 110.099 588.491ZM111.485 586.478L108.823 580.461H109.923L112.189 585.653L111.485 586.478Z" fill="white"/>
<path d="M38.3536 164.937C38.5488 165.132 38.5488 165.449 38.3536 165.644L35.1716 168.826C34.9763 169.021 34.6597 169.021 34.4645 168.826C34.2692 168.631 34.2692 168.314 34.4645 168.119L37.2929 165.291L34.4645 162.462C34.2692 162.267 34.2692 161.95 34.4645 161.755C34.6597 161.56 34.9763 161.56 35.1716 161.755L38.3536 164.937ZM1 164.791L38 164.791L38 165.791L1 165.791L1 164.791Z" fill="white"/>
<path d="M38.3536 279.937C38.5488 280.132 38.5488 280.449 38.3536 280.644L35.1716 283.826C34.9763 284.021 34.6597 284.021 34.4645 283.826C34.2692 283.631 34.2692 283.314 34.4645 283.119L37.2929 280.291L34.4645 277.462C34.2692 277.267 34.2692 276.95 34.4645 276.755C34.6597 276.56 34.9763 276.56 35.1716 276.755L38.3536 279.937ZM1 279.791L38 279.791L38 280.791L1 280.791L1 279.791Z" fill="white"/>
<path d="M38.3536 394.937C38.5488 395.132 38.5488 395.449 38.3536 395.644L35.1716 398.826C34.9763 399.021 34.6597 399.021 34.4645 398.826C34.2692 398.631 34.2692 398.314 34.4645 398.119L37.2929 395.291L34.4645 392.462C34.2692 392.267 34.2692 391.95 34.4645 391.755C34.6597 391.56 34.9763 391.56 35.1716 391.755L38.3536 394.937ZM1 394.791L38 394.791L38 395.791L1 395.791L1 394.791Z" fill="white"/>
<path d="M38.3536 49.937C38.5488 50.1322 38.5488 50.4488 38.3536 50.6441L35.1716 53.8261C34.9763 54.0213 34.6597 54.0213 34.4645 53.8261C34.2692 53.6308 34.2692 53.3142 34.4645 53.119L37.2929 50.2905L34.4645 47.4621C34.2692 47.2668 34.2692 46.9503 34.4645 46.755C34.6597 46.5597 34.9763 46.5597 35.1716 46.755L38.3536 49.937ZM9 49.7905H38V50.7905H9V49.7905Z" fill="white"/>
<path d="M9.10665 50.2905L4 50.2905C2.34315 50.2905 1 51.6337 1 53.2905L1.00002 575.291C1.00002 576.947 2.34317 578.291 4.00002 578.291L39 578.291" stroke="white"/>
<path d="M195.354 165.644C195.549 165.449 195.549 165.132 195.354 164.937L192.172 161.755C191.976 161.56 191.66 161.56 191.464 161.755C191.269 161.95 191.269 162.267 191.464 162.462L194.293 165.291L191.464 168.119C191.269 168.314 191.269 168.631 191.464 168.826C191.66 169.021 191.976 169.021 192.172 168.826L195.354 165.644ZM166 165.791L195 165.791L195 164.791L166 164.791L166 165.791Z" fill="white"/>
<path d="M195.354 279.937C195.549 280.132 195.549 280.449 195.354 280.644L192.172 283.826C191.976 284.021 191.66 284.021 191.464 283.826C191.269 283.631 191.269 283.314 191.464 283.119L194.293 280.291L191.464 277.462C191.269 277.267 191.269 276.95 191.464 276.755C191.66 276.56 191.976 276.56 192.172 276.755L195.354 279.937ZM158 279.791L195 279.791L195 280.791L158 280.791L158 279.791Z" fill="white"/>
<path d="M195.354 394.937C195.549 395.132 195.549 395.449 195.354 395.644L192.172 398.826C191.976 399.021 191.66 399.021 191.464 398.826C191.269 398.631 191.269 398.314 191.464 398.119L194.293 395.291L191.464 392.462C191.269 392.267 191.269 391.95 191.464 391.755C191.66 391.56 191.976 391.56 192.172 391.755L195.354 394.937ZM158 394.791L195 394.791L195 395.791L158 395.791L158 394.791Z" fill="white"/>
<path d="M166.107 165.291L161 165.291C159.343 165.291 158 166.634 158 168.291L158 575.291C158 576.947 159.343 578.291 161 578.291L196 578.291" stroke="white"/>
<rect x="38.5" y="345.791" width="99" height="99" rx="49.5" stroke="white"/>
<path d="M71.3064 398.379C70.7197 398.379 70.177 398.283 69.6784 398.093C69.187 397.895 68.758 397.62 68.3914 397.268C68.032 396.908 67.7497 396.49 67.5444 396.014C67.339 395.537 67.2364 395.013 67.2364 394.441C67.2364 393.869 67.339 393.344 67.5444 392.868C67.7497 392.391 68.0357 391.977 68.4024 391.625C68.769 391.265 69.198 390.99 69.6894 390.8C70.188 390.602 70.7307 390.503 71.3174 390.503C71.9114 390.503 72.4577 390.605 72.9564 390.811C73.4624 391.009 73.8914 391.306 74.2434 391.702L73.5284 392.395C73.235 392.087 72.905 391.859 72.5384 391.713C72.1717 391.559 71.7794 391.482 71.3614 391.482C70.9287 391.482 70.5254 391.555 70.1514 391.702C69.7847 391.848 69.4657 392.054 69.1944 392.318C68.923 392.582 68.7104 392.897 68.5564 393.264C68.4097 393.623 68.3364 394.015 68.3364 394.441C68.3364 394.866 68.4097 395.262 68.5564 395.629C68.7104 395.988 68.923 396.3 69.1944 396.564C69.4657 396.828 69.7847 397.033 70.1514 397.18C70.5254 397.326 70.9287 397.4 71.3614 397.4C71.7794 397.4 72.1717 397.326 72.5384 397.18C72.905 397.026 73.235 396.791 73.5284 396.476L74.2434 397.169C73.8914 397.565 73.4624 397.865 72.9564 398.071C72.4577 398.276 71.9077 398.379 71.3064 398.379ZM77.9085 398.357C77.3219 398.357 76.8012 398.228 76.3465 397.972C75.8919 397.715 75.5325 397.363 75.2685 396.916C75.0045 396.461 74.8725 395.948 74.8725 395.376C74.8725 394.796 75.0045 394.283 75.2685 393.836C75.5325 393.388 75.8919 393.04 76.3465 392.791C76.8012 392.534 77.3219 392.406 77.9085 392.406C78.4879 392.406 79.0049 392.534 79.4595 392.791C79.9215 393.04 80.2809 393.388 80.5375 393.836C80.8015 394.276 80.9335 394.789 80.9335 395.376C80.9335 395.955 80.8015 396.468 80.5375 396.916C80.2809 397.363 79.9215 397.715 79.4595 397.972C79.0049 398.228 78.4879 398.357 77.9085 398.357ZM77.9085 397.433C78.2825 397.433 78.6162 397.348 78.9095 397.18C79.2102 397.011 79.4449 396.773 79.6135 396.465C79.7822 396.149 79.8665 395.786 79.8665 395.376C79.8665 394.958 79.7822 394.598 79.6135 394.298C79.4449 393.99 79.2102 393.751 78.9095 393.583C78.6162 393.414 78.2825 393.33 77.9085 393.33C77.5345 393.33 77.2009 393.414 76.9075 393.583C76.6142 393.751 76.3795 393.99 76.2035 394.298C76.0275 394.598 75.9395 394.958 75.9395 395.376C75.9395 395.786 76.0275 396.149 76.2035 396.465C76.3795 396.773 76.6142 397.011 76.9075 397.18C77.2009 397.348 77.5345 397.433 77.9085 397.433ZM85.5069 392.406C85.9836 392.406 86.4016 392.497 86.7609 392.681C87.1276 392.864 87.4136 393.143 87.6189 393.517C87.8243 393.891 87.9269 394.364 87.9269 394.936V398.291H86.8709V395.057C86.8709 394.492 86.7316 394.067 86.4529 393.781C86.1816 393.495 85.7966 393.352 85.2979 393.352C84.9239 393.352 84.5976 393.425 84.3189 393.572C84.0403 393.718 83.8239 393.935 83.6699 394.221C83.5233 394.507 83.4499 394.862 83.4499 395.288V398.291H82.3939V392.461H83.4059V394.034L83.2409 393.616C83.4316 393.234 83.7249 392.937 84.1209 392.725C84.5169 392.512 84.9789 392.406 85.5069 392.406ZM91.8832 398.357C91.2966 398.357 90.8419 398.199 90.5192 397.884C90.1966 397.568 90.0352 397.117 90.0352 396.531V391.185H91.0912V396.487C91.0912 396.802 91.1682 397.044 91.3222 397.213C91.4836 397.381 91.7109 397.466 92.0042 397.466C92.3342 397.466 92.6092 397.374 92.8292 397.191L93.1592 397.95C92.9979 398.089 92.8036 398.192 92.5762 398.258C92.3562 398.324 92.1252 398.357 91.8832 398.357ZM89.0452 393.33V392.461H92.7632V393.33H89.0452ZM98.0549 398.291V397.059L97.9999 396.828V394.727C97.9999 394.279 97.8679 393.935 97.6039 393.693C97.3473 393.443 96.9586 393.319 96.4379 393.319C96.0933 393.319 95.7559 393.377 95.4259 393.495C95.0959 393.605 94.8173 393.755 94.5899 393.946L94.1499 393.154C94.4506 392.912 94.8099 392.728 95.2279 392.604C95.6533 392.472 96.0969 392.406 96.5589 392.406C97.3583 392.406 97.9743 392.6 98.4069 392.989C98.8396 393.377 99.0559 393.971 99.0559 394.771V398.291H98.0549ZM96.1409 398.357C95.7083 398.357 95.3269 398.283 94.9969 398.137C94.6743 397.99 94.4249 397.788 94.2489 397.532C94.0729 397.268 93.9849 396.971 93.9849 396.641C93.9849 396.325 94.0583 396.039 94.2049 395.783C94.3589 395.526 94.6046 395.321 94.9419 395.167C95.2866 395.013 95.7486 394.936 96.3279 394.936H98.1759V395.695H96.3719C95.8439 395.695 95.4883 395.783 95.3049 395.959C95.1216 396.135 95.0299 396.347 95.0299 396.597C95.0299 396.883 95.1436 397.114 95.3709 397.29C95.5983 397.458 95.9136 397.543 96.3169 397.543C96.7129 397.543 97.0576 397.455 97.3509 397.279C97.6516 397.103 97.8679 396.846 97.9999 396.509L98.2089 397.235C98.0696 397.579 97.8239 397.854 97.4719 398.06C97.1199 398.258 96.6763 398.357 96.1409 398.357ZM103.551 398.357C102.957 398.357 102.425 398.228 101.956 397.972C101.494 397.715 101.131 397.363 100.867 396.916C100.603 396.468 100.471 395.955 100.471 395.376C100.471 394.796 100.603 394.283 100.867 393.836C101.131 393.388 101.494 393.04 101.956 392.791C102.425 392.534 102.957 392.406 103.551 392.406C104.079 392.406 104.548 392.512 104.959 392.725C105.377 392.93 105.7 393.238 105.927 393.649L105.124 394.166C104.933 393.88 104.699 393.671 104.42 393.539C104.149 393.399 103.855 393.33 103.54 393.33C103.159 393.33 102.818 393.414 102.517 393.583C102.216 393.751 101.978 393.99 101.802 394.298C101.626 394.598 101.538 394.958 101.538 395.376C101.538 395.794 101.626 396.157 101.802 396.465C101.978 396.773 102.216 397.011 102.517 397.18C102.818 397.348 103.159 397.433 103.54 397.433C103.855 397.433 104.149 397.367 104.42 397.235C104.699 397.095 104.933 396.883 105.124 396.597L105.927 397.103C105.7 397.506 105.377 397.818 104.959 398.038C104.548 398.25 104.079 398.357 103.551 398.357ZM109.372 398.357C108.785 398.357 108.33 398.199 108.008 397.884C107.685 397.568 107.524 397.117 107.524 396.531V391.185H108.58V396.487C108.58 396.802 108.657 397.044 108.811 397.213C108.972 397.381 109.199 397.466 109.493 397.466C109.823 397.466 110.098 397.374 110.318 397.191L110.648 397.95C110.486 398.089 110.292 398.192 110.065 398.258C109.845 398.324 109.614 398.357 109.372 398.357ZM106.534 393.33V392.461H110.252V393.33H106.534Z" fill="white"/>
</svg>
