<svg width="13" height="14" viewBox="0 0 13 14" fill="none" xmlns="http://www.w3.org/2000/svg">
<circle cx="6.5" cy="7.20898" r="6.5" fill="#E51A4B"/>
<path d="M9 7.74709C9 8.72659 8.79363 9.46589 8.3809 9.965C7.97167 10.461 7.34732 10.709 6.50787 10.709C5.68241 10.709 5.05981 10.4672 4.64008 9.98372C4.22385 9.49709 4.01049 8.77806 4 7.82663V6.64749C4 5.66799 4.20462 4.93336 4.61385 4.44361C5.02658 3.95386 5.65442 3.70898 6.49738 3.70898C7.33333 3.70898 7.95593 3.94762 8.36516 4.42489C8.77789 4.90217 8.98951 5.61652 9 6.56794V7.74709ZM7.72508 6.47436C7.72508 5.83488 7.62714 5.36696 7.43127 5.07062C7.2354 4.77115 6.9241 4.62142 6.49738 4.62142C6.08115 4.62142 5.7751 4.76335 5.57922 5.04722C5.38335 5.32797 5.28017 5.76781 5.26967 6.36674V7.91086C5.26967 8.54722 5.36936 9.02137 5.56873 9.33332C5.7681 9.64526 6.08115 9.80123 6.50787 9.80123C6.9171 9.80123 7.21966 9.65774 7.41553 9.37075C7.6114 9.08064 7.71459 8.62832 7.72508 8.0138V6.47436Z" fill="white"/>
</svg>
