<svg width="185" height="319" viewBox="0 0 185 319" fill="none" xmlns="http://www.w3.org/2000/svg">
<path opacity="0.5" d="M184.657 319H-13.3432V277.6C22.9568 242.2 48.0068 216.55 61.8068 200.65C99.0068 158.05 117.607 122.2 117.607 93.0999C117.607 80.1999 114.157 70.1499 107.257 62.9499C100.357 55.7499 90.4568 52.1499 77.5568 52.1499C54.4568 52.1499 39.3068 66.2499 32.1068 94.4499L-11.0932 75.0999C-6.89317 51.9999 3.60683 33.8499 20.4068 20.6499C37.5068 7.1499 58.5068 0.399902 83.4068 0.399902C111.607 0.399902 133.507 8.4999 149.107 24.6999C164.707 40.5999 172.507 59.9499 172.507 82.7499C172.507 98.9499 169.057 116.2 162.157 134.5C155.257 152.2 147.307 167.65 138.307 180.85C129.007 194.65 118.057 208.15 105.457 221.35C94.6568 233.35 84.7568 243.55 75.7568 251.95C71.2568 256.15 63.9068 262.45 53.7068 270.85H184.657V319Z" fill="#EEF8FE"/>
</svg>
