<svg width="101" height="14" viewBox="0 0 101 14" fill="none" xmlns="http://www.w3.org/2000/svg">
<path d="M7.53118 10.9333H0.212662V9.54386L3.66659 6.02105C4.14081 5.52515 4.49036 5.0924 4.71524 4.72281C4.94501 4.35322 5.0599 4.00234 5.0599 3.67018C5.0599 3.21637 4.94012 2.86082 4.70057 2.60351C4.46102 2.34152 4.11881 2.21053 3.67393 2.21053C3.19483 2.21053 2.81594 2.36959 2.53728 2.68772C2.26351 3.00117 2.12662 3.4152 2.12662 3.92982H0C0 3.3076 0.153997 2.73918 0.461991 2.22456C0.774874 1.70994 1.21486 1.3076 1.78196 1.01754C2.34906 0.722807 2.99194 0.575439 3.71059 0.575439C4.81057 0.575439 5.66367 0.82807 6.26988 1.33333C6.88097 1.8386 7.18652 2.55205 7.18652 3.47368C7.18652 3.97895 7.04964 4.49357 6.77587 5.01754C6.50209 5.54152 6.03277 6.15205 5.36789 6.84912L2.94061 9.29825H7.53118V10.9333Z" fill="#123172"/>
<path d="M16.023 6.70877C16.023 8.12164 15.7175 9.20234 15.1064 9.95088C14.4953 10.6994 13.6006 11.0737 12.4224 11.0737C11.2589 11.0737 10.3691 10.7064 9.75314 9.97193C9.13715 9.23743 8.82183 8.1848 8.80716 6.81404V4.93333C8.80716 3.50643 9.11515 2.42339 9.73114 1.68421C10.352 0.945029 11.2442 0.575439 12.4078 0.575439C13.5713 0.575439 14.461 0.94269 15.077 1.67719C15.693 2.40702 16.0083 3.45731 16.023 4.82807V6.70877ZM13.9037 4.64561C13.9037 3.79883 13.7815 3.18363 13.5371 2.8C13.2975 2.4117 12.9211 2.21754 12.4078 2.21754C11.9091 2.21754 11.54 2.40234 11.3004 2.77193C11.0658 3.13684 10.9411 3.70994 10.9264 4.49123V6.97544C10.9264 7.80819 11.0438 8.42807 11.2784 8.83509C11.518 9.23743 11.8993 9.4386 12.4224 9.4386C12.9406 9.4386 13.3146 9.24444 13.5444 8.85614C13.7742 8.46784 13.8939 7.87368 13.9037 7.07368V4.64561Z" fill="#123172"/>
<path d="M24.6468 6.70877C24.6468 8.12164 24.3413 9.20234 23.7302 9.95088C23.1191 10.6994 22.2244 11.0737 21.0462 11.0737C19.8827 11.0737 18.993 10.7064 18.377 9.97193C17.761 9.23743 17.4457 8.1848 17.431 6.81404V4.93333C17.431 3.50643 17.739 2.42339 18.355 1.68421C18.9758 0.945029 19.868 0.575439 21.0316 0.575439C22.1951 0.575439 23.0849 0.94269 23.7009 1.67719C24.3169 2.40702 24.6322 3.45731 24.6468 4.82807V6.70877ZM22.5276 4.64561C22.5276 3.79883 22.4053 3.18363 22.1609 2.8C21.9213 2.4117 21.5449 2.21754 21.0316 2.21754C20.5329 2.21754 20.1638 2.40234 19.9243 2.77193C19.6896 3.13684 19.5649 3.70994 19.5503 4.49123V6.97544C19.5503 7.80819 19.6676 8.42807 19.9023 8.83509C20.1418 9.23743 20.5231 9.4386 21.0462 9.4386C21.5645 9.4386 21.9385 9.24444 22.1682 8.85614C22.398 8.46784 22.5178 7.87368 22.5276 7.07368V4.64561Z" fill="#123172"/>
<path d="M37.0546 7.20702C37.0546 8.37661 36.7759 9.31462 36.2186 10.0211C35.6662 10.7228 34.9182 11.0737 33.9747 11.0737C33.1729 11.0737 32.5251 10.807 32.0314 10.2737V13.8526H29.9121V3.34035H31.8774L31.9507 4.08421C32.464 3.49474 33.1338 3.2 33.96 3.2C34.9378 3.2 35.698 3.5462 36.2406 4.2386C36.7833 4.93099 37.0546 5.88538 37.0546 7.10175V7.20702ZM34.9353 7.05965C34.9353 6.35322 34.8033 5.80819 34.5393 5.42456C34.2802 5.04094 33.9013 4.84912 33.4027 4.84912C32.7378 4.84912 32.2807 5.0924 32.0314 5.57895V8.68772C32.2905 9.1883 32.7525 9.4386 33.4173 9.4386C34.4293 9.4386 34.9353 8.64561 34.9353 7.05965Z" fill="#123172"/>
<path d="M41.2492 8.06316L42.7158 3.34035H44.9891L41.7992 12.1123L41.6232 12.5123C41.149 13.5041 40.3668 14 39.2766 14C38.9686 14 38.6557 13.9556 38.3379 13.8667V12.3298L38.6606 12.3368C39.0614 12.3368 39.3597 12.2784 39.5552 12.1614C39.7557 12.0444 39.9121 11.8503 40.0245 11.5789L40.2739 10.9544L37.4946 3.34035H39.7752L41.2492 8.06316Z" fill="#123172"/>
<path d="M49.763 3.7614C50.7799 3.7614 51.5914 4.08421 52.1976 4.72983C52.8038 5.37544 53.1069 6.25263 53.1069 7.3614V7.45965C53.1069 8.55439 52.7696 9.43158 52.095 10.0912C51.4203 10.7509 50.5134 11.0807 49.3744 11.0807C48.2304 11.0807 47.3186 10.7251 46.6391 10.014C45.9644 9.29825 45.6271 8.32749 45.6271 7.10175V6.76491C45.6369 5.05731 45.9375 3.72164 46.5291 2.75789C47.1255 1.78947 48.0202 1.17895 49.213 0.926316C49.8388 0.795322 50.2421 0.666667 50.423 0.540351C50.6039 0.409357 50.6943 0.22924 50.6943 0H52.4103C52.4103 0.734503 52.2025 1.28655 51.787 1.65614C51.3763 2.02573 50.643 2.31111 49.587 2.51228C48.9613 2.63392 48.4675 2.87018 48.1057 3.22105C47.7439 3.57193 47.4995 4.0655 47.3724 4.70175C48.047 4.07485 48.8439 3.7614 49.763 3.7614ZM49.3597 5.40351C48.8561 5.40351 48.4601 5.56491 48.1717 5.88772C47.8882 6.21053 47.7464 6.7345 47.7464 7.45965C47.7464 8.10526 47.8857 8.59883 48.1644 8.94035C48.443 9.27719 48.8464 9.44561 49.3744 9.44561C49.8877 9.44561 50.2837 9.27953 50.5623 8.94737C50.841 8.6152 50.9828 8.12632 50.9877 7.4807V7.31228C50.9877 6.69006 50.8434 6.21754 50.555 5.89474C50.2714 5.56725 49.873 5.40351 49.3597 5.40351Z" fill="#123172"/>
<path d="M54.4856 9.93684C54.4856 9.61404 54.598 9.35205 54.8229 9.15088C55.0527 8.94971 55.3387 8.84912 55.6809 8.84912C56.028 8.84912 56.314 8.94971 56.5389 9.15088C56.7687 9.35205 56.8835 9.61404 56.8835 9.93684C56.8835 10.255 56.7711 10.5146 56.5462 10.7158C56.3213 10.9123 56.0329 11.0105 55.6809 11.0105C55.3338 11.0105 55.0478 10.9123 54.8229 10.7158C54.598 10.5146 54.4856 10.255 54.4856 9.93684Z" fill="#123172"/>
<path d="M66.6513 5.57895C66.6513 5.31228 66.5585 5.10643 66.3727 4.9614C66.1918 4.8117 65.9327 4.73684 65.5954 4.73684C65.2483 4.73684 64.9647 4.80702 64.7447 4.94737C64.5296 5.08304 64.4221 5.27719 64.4221 5.52982H62.3028C62.3028 4.84211 62.601 4.28304 63.1974 3.85263C63.7938 3.42222 64.5565 3.20702 65.4854 3.20702C66.5071 3.20702 67.3089 3.39883 67.8907 3.78246C68.4773 4.16608 68.7706 4.71111 68.7706 5.41754C68.7706 5.75439 68.6631 6.0655 68.448 6.35088C68.2378 6.63158 67.9395 6.85614 67.5533 7.02456C68.4578 7.32866 68.91 7.91579 68.91 8.78596C68.91 9.48304 68.5971 10.0398 67.9713 10.4561C67.3504 10.8678 66.5218 11.0737 65.4854 11.0737C64.5223 11.0737 63.7303 10.8585 63.1094 10.4281C62.4885 9.99766 62.1781 9.41754 62.1781 8.68772H64.2974C64.2974 8.94503 64.4172 9.15322 64.6567 9.31228C64.8963 9.47135 65.2092 9.55088 65.5954 9.55088C65.9718 9.55088 66.2651 9.46667 66.4753 9.29825C66.6856 9.12982 66.7907 8.90994 66.7907 8.6386C66.7907 8.30643 66.6905 8.07018 66.49 7.92982C66.2896 7.7848 65.9889 7.71228 65.588 7.71228H64.4367V6.39298H65.6614C66.3214 6.37427 66.6513 6.10292 66.6513 5.57895Z" fill="#123172"/>
<path d="M74.7985 10.9333C74.7007 10.7509 74.6299 10.524 74.5859 10.2526C74.0725 10.8 73.4052 11.0737 72.5839 11.0737C71.8066 11.0737 71.1613 10.8585 70.6479 10.4281C70.1395 9.99766 69.8853 9.45497 69.8853 8.8C69.8853 7.99532 70.1957 7.37778 70.8166 6.94737C71.4424 6.51696 72.3443 6.29942 73.5225 6.29474H74.4979V5.85965C74.4979 5.50877 74.4025 5.22807 74.2119 5.01754C74.0261 4.80702 73.7303 4.70175 73.3245 4.70175C72.9677 4.70175 72.6866 4.78363 72.4812 4.94737C72.2808 5.11111 72.1806 5.33567 72.1806 5.62105H70.0613C70.0613 5.18129 70.203 4.77427 70.4866 4.4C70.7701 4.02573 71.171 3.73333 71.6892 3.52281C72.2075 3.3076 72.7892 3.2 73.4345 3.2C74.4123 3.2 75.1872 3.43626 75.7592 3.90877C76.336 4.37661 76.6245 5.03626 76.6245 5.88772V9.17895C76.6294 9.89942 76.7345 10.4444 76.9398 10.814V10.9333H74.7985ZM73.0459 9.52281C73.3588 9.52281 73.6472 9.45731 73.9112 9.32632C74.1752 9.19064 74.3708 9.01053 74.4979 8.78596V7.4807H73.7059C72.645 7.4807 72.0803 7.83158 72.0119 8.53333L72.0046 8.65263C72.0046 8.90526 72.0975 9.11345 72.2832 9.27719C72.469 9.44094 72.7232 9.52281 73.0459 9.52281Z" fill="#123172"/>
<path d="M84.1117 3.34035V9.29825H86.2896V3.34035H88.4162V9.29825H90.5942V3.34035H92.7135V10.9333H81.9924V3.34035H84.1117Z" fill="#123172"/>
<path d="M101 4.96842H98.4554V10.9333H96.3288V4.96842H93.8281V3.34035H101V4.96842Z" fill="#123172"/>
</svg>
