<svg width="114" height="11" viewBox="0 0 114 11" fill="none" xmlns="http://www.w3.org/2000/svg">
<path d="M4.31942 8.67598H3.39987V3.48603H0.924526V8.67598H0V2.63128H4.31942V8.67598Z" fill="#123172"/>
<path d="M10.3388 5.72067C10.3388 6.6406 10.1516 7.38175 9.77711 7.94413C9.40266 8.50652 8.89566 8.78771 8.25611 8.78771C7.60331 8.78771 7.08969 8.55494 6.71524 8.08939V11H5.79568V2.63128H6.63571L6.68044 3.30168C7.05489 2.78026 7.57515 2.51955 8.2412 2.51955C8.88738 2.51955 9.39769 2.7933 9.77214 3.34078C10.1499 3.88827 10.3388 4.64991 10.3388 5.6257V5.72067ZM9.41923 5.60335C9.41923 4.92179 9.28999 4.38361 9.03152 3.98883C8.77305 3.59404 8.41849 3.39665 7.96782 3.39665C7.41112 3.39665 6.99359 3.67412 6.71524 4.22905V7.11732C6.99028 7.66853 7.41112 7.94413 7.97776 7.94413C8.41849 7.94413 8.76808 7.7486 9.02655 7.35754C9.28834 6.96276 9.41923 6.37803 9.41923 5.60335Z" fill="#123172"/>
<path d="M14.9912 2.63128H15.9108V8.67598H14.9912V4.26816L12.5109 8.67598H11.5914V2.63128H12.5109V7.04469L14.9912 2.63128Z" fill="#123172"/>
<path d="M22.8696 4.28492C22.8696 4.00186 22.7735 3.7784 22.5813 3.61453C22.3891 3.44693 22.1257 3.36313 21.791 3.36313C21.4662 3.36313 21.1945 3.4581 20.9758 3.64804C20.7604 3.83799 20.6527 4.06145 20.6527 4.31844H19.7381C19.7381 3.7933 19.9336 3.36313 20.3247 3.02793C20.7157 2.69274 21.2044 2.52514 21.791 2.52514C22.4206 2.52514 22.911 2.67784 23.2623 2.98324C23.6135 3.28492 23.7891 3.71695 23.7891 4.27933C23.7891 4.55121 23.7162 4.80075 23.5704 5.02793C23.4246 5.25512 23.2175 5.43575 22.9491 5.56983C23.5754 5.80819 23.8886 6.27747 23.8886 6.97765C23.8886 7.53259 23.698 7.97207 23.3169 8.29609C22.9359 8.62011 22.4272 8.78212 21.791 8.78212C21.1713 8.78212 20.6593 8.61266 20.2551 8.27374C19.8541 7.9311 19.6536 7.46927 19.6536 6.88827H20.5682C20.5682 7.1825 20.6842 7.43575 20.9162 7.64805C21.1514 7.85661 21.443 7.96089 21.791 7.96089C22.1422 7.96089 22.4256 7.86965 22.6409 7.68715C22.8563 7.50466 22.964 7.26816 22.964 6.97765C22.964 6.63873 22.8729 6.39665 22.6906 6.2514C22.5117 6.10242 22.2317 6.02793 21.8506 6.02793H20.9311V5.15642H21.9302C22.5564 5.1378 22.8696 4.8473 22.8696 4.28492Z" fill="#123172"/>
<path d="M28.4018 8.67598C28.3488 8.5568 28.3057 8.34451 28.2726 8.03911C27.8451 8.53818 27.3348 8.78771 26.7417 8.78771C26.2115 8.78771 25.7757 8.62011 25.4344 8.28492C25.0964 7.946 24.9274 7.51769 24.9274 7C24.9274 6.37058 25.1395 5.88268 25.5636 5.53631C25.9911 5.18622 26.5909 5.01117 27.363 5.01117H28.2577V4.53631C28.2577 4.17505 28.1616 3.88827 27.9694 3.67598C27.7772 3.45996 27.4939 3.35196 27.1194 3.35196C26.7914 3.35196 26.5163 3.44507 26.2943 3.63129C26.0723 3.8175 25.9613 4.04283 25.9613 4.30726H25.0368C25.0368 4.00559 25.1312 3.71508 25.3201 3.43575C25.5123 3.1527 25.7707 2.92924 26.0955 2.76536C26.4235 2.60149 26.7831 2.51955 27.1741 2.51955C27.7938 2.51955 28.2792 2.6946 28.6305 3.04469C28.9817 3.39106 29.164 3.86965 29.1772 4.48045V7.26257C29.1772 7.8175 29.2402 8.25885 29.3661 8.58659V8.67598H28.4018ZM26.8759 7.88827C27.1642 7.88827 27.4375 7.80447 27.696 7.63687C27.9545 7.46927 28.1417 7.2514 28.2577 6.98324V5.74302H27.537C26.4103 5.74302 25.847 6.11359 25.847 6.85475C25.847 7.17877 25.9431 7.43203 26.1353 7.61453C26.3274 7.79702 26.5743 7.88827 26.8759 7.88827Z" fill="#123172"/>
<path d="M32.2938 6.10056H31.6228V8.67598H30.6982V2.63128H31.6228V5.18994H32.2242L34.0335 2.63128H35.1469L33.0195 5.53631L35.3258 8.67598H34.1578L32.2938 6.10056Z" fill="#123172"/>
<path d="M39.4365 8.67598C39.3835 8.5568 39.3404 8.34451 39.3073 8.03911C38.8798 8.53818 38.3695 8.78771 37.7763 8.78771C37.2461 8.78771 36.8104 8.62011 36.4691 8.28492C36.1311 7.946 35.9621 7.51769 35.9621 7C35.9621 6.37058 36.1741 5.88268 36.5983 5.53631C37.0258 5.18622 37.6256 5.01117 38.3976 5.01117H39.2924V4.53631C39.2924 4.17505 39.1963 3.88827 39.0041 3.67598C38.8119 3.45996 38.5285 3.35196 38.1541 3.35196C37.826 3.35196 37.551 3.44507 37.329 3.63129C37.107 3.8175 36.9959 4.04283 36.9959 4.30726H36.0714C36.0714 4.00559 36.1659 3.71508 36.3547 3.43575C36.5469 3.1527 36.8054 2.92924 37.1301 2.76536C37.4582 2.60149 37.8177 2.51955 38.2088 2.51955C38.8284 2.51955 39.3139 2.6946 39.6651 3.04469C40.0164 3.39106 40.1987 3.86965 40.2119 4.48045V7.26257C40.2119 7.8175 40.2749 8.25885 40.4008 8.58659V8.67598H39.4365ZM37.9105 7.88827C38.1988 7.88827 38.4722 7.80447 38.7307 7.63687C38.9891 7.46927 39.1764 7.2514 39.2924 6.98324V5.74302H38.5716C37.445 5.74302 36.8816 6.11359 36.8816 6.85475C36.8816 7.17877 36.9777 7.43203 37.1699 7.61453C37.3621 7.79702 37.609 7.88827 37.9105 7.88827Z" fill="#123172"/>
<path d="M44.6109 4.28492C44.6109 4.00186 44.5148 3.7784 44.3226 3.61453C44.1304 3.44693 43.8669 3.36313 43.5322 3.36313C43.2075 3.36313 42.9358 3.4581 42.7171 3.64804C42.5017 3.83799 42.394 4.06145 42.394 4.31844H41.4794C41.4794 3.7933 41.6749 3.36313 42.0659 3.02793C42.4569 2.69274 42.9457 2.52514 43.5322 2.52514C44.1618 2.52514 44.6523 2.67784 45.0035 2.98324C45.3548 3.28492 45.5304 3.71695 45.5304 4.27933C45.5304 4.55121 45.4575 4.80075 45.3117 5.02793C45.1659 5.25512 44.9588 5.43575 44.6904 5.56983C45.3167 5.80819 45.6298 6.27747 45.6298 6.97765C45.6298 7.53259 45.4393 7.97207 45.0582 8.29609C44.6771 8.62011 44.1685 8.78212 43.5322 8.78212C42.9126 8.78212 42.4006 8.61266 41.9963 8.27374C41.5954 7.9311 41.3949 7.46927 41.3949 6.88827H42.3095C42.3095 7.1825 42.4255 7.43575 42.6574 7.64805C42.8927 7.85661 43.1843 7.96089 43.5322 7.96089C43.8835 7.96089 44.1668 7.86965 44.3822 7.68715C44.5976 7.50466 44.7053 7.26816 44.7053 6.97765C44.7053 6.63873 44.6142 6.39665 44.4319 6.2514C44.253 6.10242 43.973 6.02793 43.5919 6.02793H42.6723V5.15642H43.6714C44.2977 5.1378 44.6109 4.8473 44.6109 4.28492Z" fill="#123172"/>
<path d="M49.0545 8.78771C48.3255 8.78771 47.7324 8.51955 47.2751 7.98324C46.8178 7.4432 46.5891 6.72253 46.5891 5.82123V5.63129C46.5891 5.03166 46.6902 4.49721 46.8923 4.02793C47.0978 3.55493 47.3828 3.18622 47.7473 2.92179C48.1151 2.65363 48.5128 2.51955 48.9402 2.51955C49.6394 2.51955 50.1829 2.7784 50.5706 3.29609C50.9583 3.81378 51.1521 4.55493 51.1521 5.51955V5.94972H47.5087C47.522 6.54562 47.676 7.02793 47.971 7.39665C48.2692 7.76164 48.647 7.94413 49.1043 7.94413C49.429 7.94413 49.704 7.86965 49.9294 7.72067C50.1547 7.57169 50.3519 7.3743 50.5209 7.12849L51.0825 7.62011C50.6319 8.39851 49.9559 8.78771 49.0545 8.78771ZM48.9402 3.36872C48.5691 3.36872 48.2576 3.52142 48.0058 3.82682C47.7539 4.12849 47.5982 4.55307 47.5385 5.10056H50.2326V5.02235C50.2061 4.49721 50.0801 4.09125 49.8548 3.80447C49.6295 3.51397 49.3246 3.36872 48.9402 3.36872Z" fill="#123172"/>
<path d="M55.9885 4.10615H56.6794C57.1135 4.0987 57.4548 3.97021 57.7033 3.72067C57.9519 3.47114 58.0761 3.13408 58.0761 2.7095C58.0761 1.75605 57.6536 1.27933 56.8086 1.27933C56.411 1.27933 56.0929 1.40782 55.8543 1.6648C55.619 1.91806 55.5014 2.25512 55.5014 2.67598H54.5818C54.5818 2.03166 54.7906 1.49721 55.2081 1.07263C55.629 0.64432 56.1625 0.430168 56.8086 0.430168C57.4913 0.430168 58.0264 0.633147 58.4141 1.03911C58.8018 1.44507 58.9957 2.00931 58.9957 2.73184C58.9957 3.08566 58.893 3.42831 58.6875 3.75978C58.4854 4.09125 58.2087 4.33892 57.8574 4.50279C58.2551 4.64432 58.5616 4.87896 58.777 5.2067C58.9957 5.53445 59.105 5.93482 59.105 6.40782C59.105 7.1378 58.893 7.71695 58.4688 8.14525C58.0447 8.57356 57.4929 8.78771 56.8136 8.78771C56.1343 8.78771 55.5809 8.58101 55.1534 8.1676C54.7293 7.75419 54.5172 7.20857 54.5172 6.53073H55.4417C55.4417 6.95903 55.566 7.30168 55.8145 7.55866C56.063 7.81564 56.3961 7.94413 56.8136 7.94413C57.2576 7.94413 57.5973 7.81378 57.8326 7.55307C58.0678 7.29237 58.1855 6.91806 58.1855 6.43017C58.1855 5.95717 58.0562 5.59404 57.7978 5.34078C57.5393 5.08752 57.1665 4.95717 56.6794 4.94972H55.9885V4.10615Z" fill="#123172"/>
<path d="M63.9911 2.63128V7.8324H65.9594V2.63128H66.879V7.8324H68.8424V2.63128H69.7669V8.67598H63.0666V2.63128H63.9911Z" fill="#123172"/>
<path d="M75.2147 3.46927H73.4103V8.67598H72.4908V3.46927H70.7213V2.63128H75.2147V3.46927Z" fill="#123172"/>
<path d="M82.1138 2.63128H83.0334V8.67598H82.1138V4.26816L79.6335 8.67598H78.7139V2.63128H79.6335V7.04469L82.1138 2.63128Z" fill="#123172"/>
<path d="M89.3957 2.97765C90.0717 2.97765 90.6118 3.23277 91.0161 3.74302C91.4237 4.24953 91.6275 4.91806 91.6275 5.7486V5.84358C91.6275 6.41341 91.5297 6.92365 91.3342 7.3743C91.1387 7.82123 90.857 8.16946 90.4892 8.41899C90.1247 8.6648 89.7039 8.78771 89.2267 8.78771C88.5043 8.78771 87.9227 8.51769 87.482 7.97765C87.0413 7.43389 86.8209 6.70577 86.8209 5.7933V5.2905C86.8209 4.02048 87.0297 3.01117 87.4472 2.26257C87.8681 1.51397 88.4877 1.05773 89.3062 0.893855C89.7701 0.800745 90.0833 0.687151 90.2457 0.553073C90.408 0.418994 90.4892 0.234637 90.4892 0H91.2447C91.2447 0.465549 91.1503 0.828678 90.9614 1.08939C90.7758 1.35009 90.4776 1.53445 90.0667 1.64246L89.3808 1.81564C88.834 1.96089 88.4231 2.2067 88.1481 2.55307C87.8764 2.89572 87.6991 3.35382 87.6162 3.92737C88.1033 3.29423 88.6965 2.97765 89.3957 2.97765ZM89.2167 3.82682C88.7661 3.82682 88.4082 3.99814 88.1431 4.34078C87.878 4.6797 87.7455 5.15084 87.7455 5.75419V5.84358C87.7455 6.49162 87.878 7.00559 88.1431 7.38548C88.4115 7.76164 88.7727 7.94972 89.2267 7.94972C89.684 7.94972 90.0452 7.75978 90.3103 7.37989C90.5754 7 90.7079 6.44507 90.7079 5.71508C90.7079 5.14525 90.5737 4.68901 90.3053 4.34637C90.0402 4 89.6774 3.82682 89.2167 3.82682Z" fill="#123172"/>
<path d="M92.4178 5.59777C92.4178 5.00559 92.5205 4.473 92.726 4C92.9347 3.527 93.223 3.16201 93.5908 2.90503C93.962 2.64804 94.3845 2.51955 94.8583 2.51955C95.5907 2.51955 96.1822 2.80447 96.6328 3.3743C97.0868 3.94413 97.3138 4.70205 97.3138 5.64805V5.72067C97.3138 6.30912 97.2127 6.83799 97.0106 7.30726C96.8118 7.77281 96.5251 8.13594 96.1507 8.39665C95.7796 8.65736 95.3521 8.78771 94.8683 8.78771C94.1393 8.78771 93.5478 8.50279 93.0938 7.93296C92.6431 7.36313 92.4178 6.60894 92.4178 5.67039V5.59777ZM93.3423 5.72067C93.3423 6.39106 93.4798 6.92924 93.7549 7.3352C94.0332 7.74115 94.4044 7.94413 94.8683 7.94413C95.3355 7.94413 95.7066 7.73929 95.9817 7.32961C96.2567 6.9162 96.3942 6.33892 96.3942 5.59777C96.3942 4.93482 96.2534 4.39851 95.9717 3.98883C95.6934 3.57542 95.3223 3.36872 94.8583 3.36872C94.4044 3.36872 94.0382 3.57169 93.7598 3.97765C93.4815 4.38361 93.3423 4.96462 93.3423 5.72067Z" fill="#123172"/>
<path d="M102.796 2.63128V8.67598H101.872V3.48603H100.043L99.9333 5.7486C99.8736 6.78771 99.7179 7.53073 99.4661 7.97765C99.2175 8.42458 98.8215 8.65736 98.2781 8.67598H97.9103V7.76536L98.1737 7.74302C98.4719 7.70577 98.6857 7.5121 98.8149 7.16201C98.9442 6.81192 99.027 6.16387 99.0634 5.21788L99.1629 2.63128H102.796Z" fill="#123172"/>
<path d="M106.504 8.78771C105.775 8.78771 105.182 8.51955 104.725 7.98324C104.268 7.4432 104.039 6.72253 104.039 5.82123V5.63129C104.039 5.03166 104.14 4.49721 104.342 4.02793C104.548 3.55493 104.833 3.18622 105.197 2.92179C105.565 2.65363 105.963 2.51955 106.39 2.51955C107.089 2.51955 107.633 2.7784 108.02 3.29609C108.408 3.81378 108.602 4.55493 108.602 5.51955V5.94972H104.959C104.972 6.54562 105.126 7.02793 105.421 7.39665C105.719 7.76164 106.097 7.94413 106.554 7.94413C106.879 7.94413 107.154 7.86965 107.379 7.72067C107.605 7.57169 107.802 7.3743 107.971 7.12849L108.532 7.62011C108.082 8.39851 107.406 8.78771 106.504 8.78771ZM106.39 3.36872C106.019 3.36872 105.707 3.52142 105.456 3.82682C105.204 4.12849 105.048 4.55307 104.988 5.10056H107.682V5.02235C107.656 4.49721 107.53 4.09125 107.305 3.80447C107.079 3.51397 106.774 3.36872 106.39 3.36872Z" fill="#123172"/>
<path d="M111.902 8.78771C111.173 8.78771 110.58 8.51955 110.123 7.98324C109.666 7.4432 109.437 6.72253 109.437 5.82123V5.63129C109.437 5.03166 109.538 4.49721 109.74 4.02793C109.946 3.55493 110.231 3.18622 110.595 2.92179C110.963 2.65363 111.361 2.51955 111.788 2.51955C112.487 2.51955 113.031 2.7784 113.418 3.29609C113.806 3.81378 114 4.55493 114 5.51955V5.94972H110.357C110.37 6.54562 110.524 7.02793 110.819 7.39665C111.117 7.76164 111.495 7.94413 111.952 7.94413C112.277 7.94413 112.552 7.86965 112.777 7.72067C113.003 7.57169 113.2 7.3743 113.369 7.12849L113.93 7.62011C113.48 8.39851 112.804 8.78771 111.902 8.78771ZM111.788 3.36872C111.417 3.36872 111.105 3.52142 110.854 3.82682C110.602 4.12849 110.446 4.55307 110.386 5.10056H113.08V5.02235C113.054 4.49721 112.928 4.09125 112.703 3.80447C112.477 3.51397 112.172 3.36872 111.788 3.36872Z" fill="#123172"/>
</svg>
