<svg width="100" height="14" viewBox="0 0 100 14" fill="none" xmlns="http://www.w3.org/2000/svg">
<path d="M4.63586 10.9333H2.52267V3.11579L0 3.86667V2.21754L4.40918 0.701754H4.63586V10.9333Z" fill="#123172"/>
<path d="M15.0409 3.43158C15.0409 3.92749 14.9118 4.36725 14.6534 4.75088C14.395 5.1345 14.0392 5.44094 13.5858 5.67018C14.1026 5.90877 14.512 6.2386 14.8143 6.65965C15.1165 7.07602 15.2676 7.56725 15.2676 8.13333C15.2676 9.04094 14.9459 9.75906 14.3024 10.2877C13.659 10.8117 12.784 11.0737 11.6774 11.0737C10.5708 11.0737 9.69338 10.8094 9.04504 10.2807C8.3967 9.75205 8.07254 9.03626 8.07254 8.13333C8.07254 7.56725 8.22365 7.07368 8.52588 6.65263C8.82812 6.23158 9.23516 5.90409 9.747 5.67018C9.29365 5.44094 8.9378 5.1345 8.67944 4.75088C8.42595 4.36725 8.29921 3.92749 8.29921 3.43158C8.29921 2.5614 8.60144 1.86901 9.20591 1.35439C9.81037 0.835088 10.6318 0.575439 11.6701 0.575439C12.7035 0.575439 13.5225 0.832749 14.1269 1.34737C14.7363 1.85731 15.0409 2.55205 15.0409 3.43158ZM13.1471 7.98597C13.1471 7.54152 13.0131 7.18597 12.745 6.9193C12.4768 6.65263 12.1161 6.5193 11.6628 6.5193C11.2143 6.5193 10.856 6.65263 10.5879 6.9193C10.3198 7.18129 10.1857 7.53684 10.1857 7.98597C10.1857 8.42105 10.3173 8.77193 10.5806 9.0386C10.8438 9.30526 11.2094 9.4386 11.6774 9.4386C12.1356 9.4386 12.4939 9.30994 12.7523 9.05263C13.0155 8.79532 13.1471 8.43977 13.1471 7.98597ZM12.9278 3.52982C12.9278 3.13216 12.8181 2.81404 12.5987 2.57544C12.3794 2.33216 12.0698 2.21053 11.6701 2.21053C11.2752 2.21053 10.9681 2.32749 10.7488 2.5614C10.5294 2.79532 10.4197 3.11813 10.4197 3.52982C10.4197 3.93684 10.5294 4.26433 10.7488 4.51228C10.9681 4.76023 11.2777 4.88421 11.6774 4.88421C12.0771 4.88421 12.3842 4.76023 12.5987 4.51228C12.8181 4.26433 12.9278 3.93684 12.9278 3.52982Z" fill="#123172"/>
<path d="M23.8666 6.70877C23.8666 8.12164 23.562 9.20234 22.9526 9.95088C22.3433 10.6994 21.4512 11.0737 20.2764 11.0737C19.1162 11.0737 18.229 10.7064 17.6148 9.97193C17.0006 9.23743 16.6862 8.1848 16.6715 6.81404V4.93333C16.6715 3.50643 16.9786 2.42339 17.5929 1.68421C18.212 0.945029 19.1016 0.575439 20.2618 0.575439C21.422 0.575439 22.3092 0.94269 22.9234 1.67719C23.5376 2.40702 23.852 3.45731 23.8666 4.82807V6.70877ZM21.7534 4.64561C21.7534 3.79883 21.6316 3.18363 21.3878 2.8C21.149 2.4117 20.7736 2.21754 20.2618 2.21754C19.7646 2.21754 19.3965 2.40234 19.1576 2.77193C18.9237 3.13684 18.7994 3.70994 18.7847 4.49123V6.97544C18.7847 7.80819 18.9017 8.42807 19.1357 8.83509C19.3746 9.23743 19.7548 9.4386 20.2764 9.4386C20.7931 9.4386 21.166 9.24444 21.3951 8.85614C21.6243 8.46784 21.7437 7.87368 21.7534 7.07368V4.64561Z" fill="#123172"/>
<path d="M36.2387 7.20702C36.2387 8.37661 35.9608 9.31462 35.4051 10.0211C34.8542 10.7228 34.1084 11.0737 33.1676 11.0737C32.3681 11.0737 31.7222 10.807 31.2299 10.2737V13.8526H29.1167V3.34035H31.0763L31.1495 4.08421C31.6613 3.49474 32.3291 3.2 33.153 3.2C34.1279 3.2 34.8859 3.5462 35.427 4.2386C35.9681 4.93099 36.2387 5.88538 36.2387 7.10175V7.20702ZM34.1255 7.05965C34.1255 6.35322 33.9939 5.80819 33.7306 5.42456C33.4723 5.04094 33.0945 4.84912 32.5973 4.84912C31.9343 4.84912 31.4785 5.0924 31.2299 5.57895V8.68772C31.4883 9.1883 31.9489 9.4386 32.6119 9.4386C33.6209 9.4386 34.1255 8.64561 34.1255 7.05965Z" fill="#123172"/>
<path d="M40.4212 8.06316L41.8836 3.34035H44.1503L40.9696 12.1123L40.7941 12.5123C40.3212 13.5041 39.5413 14 38.4542 14C38.1471 14 37.8351 13.9556 37.5183 13.8667V12.3298L37.84 12.3368C38.2397 12.3368 38.5371 12.2784 38.7321 12.1614C38.9319 12.0444 39.0879 11.8503 39.2001 11.5789L39.4487 10.9544L36.6774 3.34035H38.9515L40.4212 8.06316Z" fill="#123172"/>
<path d="M48.9105 3.7614C49.9244 3.7614 50.7336 4.08421 51.3381 4.72983C51.9426 5.37544 52.2448 6.25263 52.2448 7.3614V7.45965C52.2448 8.55439 51.9085 9.43158 51.2357 10.0912C50.563 10.7509 49.6588 11.0807 48.523 11.0807C47.3823 11.0807 46.4731 10.7251 45.7956 10.014C45.1228 9.29825 44.7865 8.32749 44.7865 7.10175V6.76491C44.7962 5.05731 45.096 3.72164 45.6859 2.75789C46.2806 1.78947 47.1727 1.17895 48.3621 0.926316C48.9861 0.795322 49.3882 0.666667 49.5686 0.540351C49.749 0.409357 49.8391 0.22924 49.8391 0H51.5502C51.5502 0.734503 51.343 1.28655 50.9286 1.65614C50.5192 2.02573 49.788 2.31111 48.735 2.51228C48.111 2.63392 47.6187 2.87018 47.258 3.22105C46.8972 3.57193 46.6535 4.0655 46.5268 4.70175C47.1995 4.07485 47.9941 3.7614 48.9105 3.7614ZM48.5083 5.40351C48.0062 5.40351 47.6114 5.56491 47.3238 5.88772C47.041 6.21053 46.8997 6.7345 46.8997 7.45965C46.8997 8.10526 47.0386 8.59883 47.3165 8.94035C47.5943 9.27719 47.9965 9.44561 48.523 9.44561C49.0348 9.44561 49.4297 9.27953 49.7075 8.94737C49.9854 8.6152 50.1267 8.12632 50.1316 7.4807V7.31228C50.1316 6.69006 49.9878 6.21754 49.7002 5.89474C49.4175 5.56725 49.0202 5.40351 48.5083 5.40351Z" fill="#123172"/>
<path d="M53.6195 9.93684C53.6195 9.61404 53.7316 9.35205 53.9558 9.15088C54.1849 8.94971 54.4701 8.84912 54.8113 8.84912C55.1575 8.84912 55.4426 8.94971 55.6669 9.15088C55.896 9.35205 56.0105 9.61404 56.0105 9.93684C56.0105 10.255 55.8984 10.5146 55.6742 10.7158C55.4499 10.9123 55.1623 11.0105 54.8113 11.0105C54.4652 11.0105 54.1801 10.9123 53.9558 10.7158C53.7316 10.5146 53.6195 10.255 53.6195 9.93684Z" fill="#123172"/>
<path d="M65.7502 5.57895C65.7502 5.31228 65.6576 5.10643 65.4724 4.9614C65.292 4.8117 65.0336 4.73684 64.6973 4.73684C64.3512 4.73684 64.0684 4.80702 63.8491 4.94737C63.6346 5.08304 63.5273 5.27719 63.5273 5.52982H61.4142C61.4142 4.84211 61.7115 4.28304 62.3062 3.85263C62.9009 3.42222 63.6614 3.20702 64.5876 3.20702C65.6064 3.20702 66.4059 3.39883 66.986 3.78246C67.5709 4.16608 67.8634 4.71111 67.8634 5.41754C67.8634 5.75439 67.7562 6.0655 67.5417 6.35088C67.3321 6.63158 67.0347 6.85614 66.6496 7.02456C67.5514 7.32866 68.0023 7.91579 68.0023 8.78596C68.0023 9.48304 67.6904 10.0398 67.0664 10.4561C66.4473 10.8678 65.621 11.0737 64.5876 11.0737C63.6273 11.0737 62.8376 10.8585 62.2185 10.4281C61.5994 9.99766 61.2899 9.41754 61.2899 8.68772H63.403C63.403 8.94503 63.5225 9.15322 63.7613 9.31228C64.0002 9.47135 64.3122 9.55088 64.6973 9.55088C65.0726 9.55088 65.3651 9.46667 65.5747 9.29825C65.7843 9.12982 65.8892 8.90994 65.8892 8.6386C65.8892 8.30643 65.7892 8.07018 65.5894 7.92982C65.3895 7.7848 65.0897 7.71228 64.69 7.71228H63.542V6.39298H64.7631C65.4212 6.37427 65.7502 6.10292 65.7502 5.57895Z" fill="#123172"/>
<path d="M73.8739 10.9333C73.7764 10.7509 73.7058 10.524 73.6619 10.2526C73.15 10.8 72.4846 11.0737 71.6657 11.0737C70.8906 11.0737 70.2471 10.8585 69.7353 10.4281C69.2283 9.99766 68.9748 9.45497 68.9748 8.8C68.9748 7.99532 69.2844 7.37778 69.9035 6.94737C70.5274 6.51696 71.4268 6.29942 72.6016 6.29474H73.5741V5.85965C73.5741 5.50877 73.4791 5.22807 73.289 5.01754C73.1037 4.80702 72.8088 4.70175 72.4042 4.70175C72.0484 4.70175 71.7681 4.78363 71.5633 4.94737C71.3635 5.11111 71.2635 5.33567 71.2635 5.62105H69.1503C69.1503 5.18129 69.2917 4.77427 69.5744 4.4C69.8572 4.02573 70.2569 3.73333 70.7736 3.52281C71.2903 3.3076 71.8704 3.2 72.5139 3.2C73.4888 3.2 74.2615 3.43626 74.8318 3.90877C75.407 4.37661 75.6946 5.03626 75.6946 5.88772V9.17895C75.6995 9.89942 75.8043 10.4444 76.0091 10.814V10.9333H73.8739ZM72.1264 9.52281C72.4383 9.52281 72.7259 9.45731 72.9892 9.32632C73.2524 9.19064 73.4474 9.01053 73.5741 8.78596V7.4807H72.7844C71.7266 7.4807 71.1636 7.83158 71.0954 8.53333L71.088 8.65263C71.088 8.90526 71.1807 9.11345 71.3659 9.27719C71.5511 9.44094 71.8046 9.52281 72.1264 9.52281Z" fill="#123172"/>
<path d="M83.1603 3.34035V9.29825H85.332V3.34035H87.4525V9.29825H89.6242V3.34035H91.7374V10.9333H81.0471V3.34035H83.1603Z" fill="#123172"/>
<path d="M100 4.96842H97.4627V10.9333H95.3422V4.96842H92.8488V3.34035H100V4.96842Z" fill="#123172"/>
</svg>
