<svg width="11" height="11" viewBox="0 0 11 11" fill="none" xmlns="http://www.w3.org/2000/svg">
<path d="M9.75 4.375H6.375V1C6.375 0.601562 6.02344 0.25 5.625 0.25H4.875C4.45312 0.25 4.125 0.601562 4.125 1V4.375H0.75C0.328125 4.375 0 4.72656 0 5.125V5.875C0 6.29688 0.328125 6.625 0.75 6.625H4.125V10C4.125 10.4219 4.45312 10.75 4.875 10.75H5.625C6.02344 10.75 6.375 10.4219 6.375 10V6.625H9.75C10.1484 6.625 10.5 6.29688 10.5 5.875V5.125C10.5 4.72656 10.1484 4.375 9.75 4.375Z" fill="#123172"/>
</svg>
