<svg width="75" height="9" viewBox="0 0 75 9" fill="none" xmlns="http://www.w3.org/2000/svg">
<path d="M4.3071 7.02114H3.39017V2.60201H0.921887V7.02114H0V1.87421H4.3071V7.02114Z" fill="#123172"/>
<path d="M10.3093 4.50476C10.3093 5.28805 10.1226 5.91913 9.74921 6.39799C9.37583 6.87685 8.87027 7.11628 8.23255 7.11628C7.58161 7.11628 7.06946 6.91808 6.69607 6.52167V9H5.77914V1.87421H6.61677L6.66138 2.44503C7.03476 2.00106 7.55353 1.77907 8.21768 1.77907C8.86201 1.77907 9.37087 2.01216 9.74425 2.47833C10.1209 2.9445 10.3093 3.59302 10.3093 4.42389V4.50476ZM9.39235 4.40486C9.39235 3.82452 9.26348 3.36628 9.00575 3.03013C8.74802 2.69397 8.39446 2.5259 7.94508 2.5259C7.38997 2.5259 6.97363 2.76216 6.69607 3.23467V5.69397C6.97033 6.16332 7.38997 6.39799 7.955 6.39799C8.39446 6.39799 8.74306 6.2315 9.00079 5.89852C9.26183 5.56237 9.39235 5.06448 9.39235 4.40486Z" fill="#123172"/>
<path d="M14.9485 1.87421H15.8654V7.02114H14.9485V3.26797L12.4752 7.02114H11.5583V1.87421H12.4752V5.63214L14.9485 1.87421Z" fill="#123172"/>
<path d="M22.8043 3.28224C22.8043 3.04123 22.7085 2.85095 22.5169 2.71142C22.3252 2.56871 22.0625 2.49736 21.7288 2.49736C21.405 2.49736 21.134 2.57822 20.9159 2.73996C20.7012 2.90169 20.5938 3.09197 20.5938 3.31078H19.6818C19.6818 2.86364 19.8768 2.49736 20.2667 2.21195C20.6566 1.92653 21.1439 1.78383 21.7288 1.78383C22.3566 1.78383 22.8456 1.91385 23.1959 2.17389C23.5461 2.43076 23.7213 2.79863 23.7213 3.27748C23.7213 3.50899 23.6486 3.72146 23.5032 3.9149C23.3578 4.10835 23.1513 4.26216 22.8836 4.37632C23.5081 4.57928 23.8204 4.97886 23.8204 5.57505C23.8204 6.04757 23.6304 6.42178 23.2504 6.69767C22.8704 6.97357 22.3632 7.11152 21.7288 7.11152C21.1109 7.11152 20.6004 6.96723 20.1973 6.67865C19.7974 6.38689 19.5975 5.99366 19.5975 5.49894H20.5095C20.5095 5.74947 20.6252 5.96512 20.8565 6.14588C21.0911 6.32347 21.3818 6.41226 21.7288 6.41226C22.079 6.41226 22.3616 6.33457 22.5763 6.17918C22.7911 6.02378 22.8985 5.82241 22.8985 5.57505C22.8985 5.28647 22.8076 5.08034 22.6259 4.95666C22.4475 4.82981 22.1683 4.76638 21.7883 4.76638H20.8713V4.02431H21.8676C22.4921 4.00846 22.8043 3.7611 22.8043 3.28224Z" fill="#123172"/>
<path d="M28.3208 7.02114C28.2679 6.91966 28.225 6.7389 28.1919 6.47886C27.7657 6.90381 27.2568 7.11628 26.6653 7.11628C26.1367 7.11628 25.7022 6.97357 25.3618 6.68816C25.0248 6.39958 24.8563 6.03488 24.8563 5.59408C24.8563 5.05814 25.0677 4.64271 25.4907 4.34778C25.9169 4.04968 26.515 3.90063 27.2849 3.90063H28.177V3.4963C28.177 3.18869 28.0812 2.9445 27.8896 2.76374C27.6979 2.57981 27.4154 2.48784 27.042 2.48784C26.7149 2.48784 26.4407 2.56712 26.2193 2.72569C25.9979 2.88425 25.8872 3.07611 25.8872 3.30127H24.9653C24.9653 3.0444 25.0595 2.79704 25.2478 2.5592C25.4395 2.31818 25.6972 2.12791 26.021 1.98837C26.3481 1.84884 26.7066 1.77907 27.0965 1.77907C27.7144 1.77907 28.1985 1.92812 28.5488 2.22622C28.899 2.52114 29.0808 2.92865 29.094 3.44873V5.81765C29.094 6.29017 29.1568 6.66596 29.2823 6.94503V7.02114H28.3208ZM26.7992 6.35042C27.0866 6.35042 27.3592 6.27907 27.617 6.13636C27.8747 5.99366 28.0614 5.80814 28.177 5.57981V4.52378H27.4584C26.3349 4.52378 25.7732 4.83932 25.7732 5.4704C25.7732 5.7463 25.869 5.96195 26.0607 6.11734C26.2523 6.27273 26.4985 6.35042 26.7992 6.35042Z" fill="#123172"/>
<path d="M32.2016 4.82822H31.5325V7.02114H30.6106V1.87421H31.5325V4.05285H32.1322L33.9364 1.87421H35.0466L32.9253 4.34778L35.225 7.02114H34.0603L32.2016 4.82822Z" fill="#123172"/>
<path d="M39.3239 7.02114C39.2711 6.91966 39.2281 6.7389 39.1951 6.47886C38.7688 6.90381 38.26 7.11628 37.6685 7.11628C37.1398 7.11628 36.7053 6.97357 36.365 6.68816C36.028 6.39958 35.8594 6.03488 35.8594 5.59408C35.8594 5.05814 36.0709 4.64271 36.4939 4.34778C36.9201 4.04968 37.5182 3.90063 38.2881 3.90063H39.1802V3.4963C39.1802 3.18869 39.0844 2.9445 38.8927 2.76374C38.7011 2.57981 38.4186 2.48784 38.0452 2.48784C37.7181 2.48784 37.4438 2.56712 37.2224 2.72569C37.0011 2.88425 36.8904 3.07611 36.8904 3.30127H35.9685C35.9685 3.0444 36.0626 2.79704 36.251 2.5592C36.4426 2.31818 36.7004 2.12791 37.0242 1.98837C37.3513 1.84884 37.7098 1.77907 38.0997 1.77907C38.7176 1.77907 39.2017 1.92812 39.5519 2.22622C39.9022 2.52114 40.0839 2.92865 40.0971 3.44873V5.81765C40.0971 6.29017 40.1599 6.66596 40.2855 6.94503V7.02114H39.3239ZM37.8023 6.35042C38.0898 6.35042 38.3624 6.27907 38.6201 6.13636C38.8779 5.99366 39.0646 5.80814 39.1802 5.57981V4.52378H38.4615C37.3381 4.52378 36.7764 4.83932 36.7764 5.4704C36.7764 5.7463 36.8722 5.96195 37.0638 6.11734C37.2555 6.27273 37.5017 6.35042 37.8023 6.35042Z" fill="#123172"/>
<path d="M44.4835 3.28224C44.4835 3.04123 44.3877 2.85095 44.1961 2.71142C44.0044 2.56871 43.7417 2.49736 43.408 2.49736C43.0842 2.49736 42.8132 2.57822 42.5952 2.73996C42.3804 2.90169 42.273 3.09197 42.273 3.31078H41.361C41.361 2.86364 41.556 2.49736 41.9459 2.21195C42.3358 1.92653 42.8232 1.78383 43.408 1.78383C44.0358 1.78383 44.5248 1.91385 44.8751 2.17389C45.2253 2.43076 45.4005 2.79863 45.4005 3.27748C45.4005 3.50899 45.3278 3.72146 45.1824 3.9149C45.037 4.10835 44.8305 4.26216 44.5628 4.37632C45.1874 4.57928 45.4996 4.97886 45.4996 5.57505C45.4996 6.04757 45.3096 6.42178 44.9296 6.69767C44.5496 6.97357 44.0424 7.11152 43.408 7.11152C42.7901 7.11152 42.2796 6.96723 41.8765 6.67865C41.4767 6.38689 41.2768 5.99366 41.2768 5.49894H42.1887C42.1887 5.74947 42.3044 5.96512 42.5357 6.14588C42.7703 6.32347 43.0611 6.41226 43.408 6.41226C43.7583 6.41226 44.0408 6.33457 44.2556 6.17918C44.4703 6.02378 44.5777 5.82241 44.5777 5.57505C44.5777 5.28647 44.4869 5.08034 44.3051 4.95666C44.1267 4.82981 43.8475 4.76638 43.4675 4.76638H42.5506V4.02431H43.5468C44.1713 4.00846 44.4835 3.7611 44.4835 3.28224Z" fill="#123172"/>
<path d="M48.9146 7.11628C48.1876 7.11628 47.5962 6.88795 47.1402 6.43129C46.6842 5.97146 46.4562 5.35782 46.4562 4.59038V4.42865C46.4562 3.91808 46.557 3.463 46.7585 3.06342C46.9634 2.66068 47.2476 2.34672 47.611 2.12156C47.9778 1.89323 48.3743 1.77907 48.8006 1.77907C49.4978 1.77907 50.0396 1.99947 50.4263 2.44027C50.8128 2.88108 51.0061 3.51216 51.0061 4.33351V4.69979H47.3731C47.3863 5.20719 47.54 5.61786 47.8341 5.93182C48.1314 6.2426 48.5081 6.39799 48.9641 6.39799C49.2879 6.39799 49.5622 6.33457 49.7869 6.20772C50.0116 6.08087 50.2082 5.91279 50.3767 5.70349L50.9368 6.12209C50.4874 6.78488 49.8133 7.11628 48.9146 7.11628ZM48.8006 2.50211C48.4305 2.50211 48.1199 2.63214 47.8688 2.89218C47.6176 3.14905 47.4623 3.51057 47.4029 3.97674H50.0892V3.91015C50.0628 3.463 49.9372 3.11734 49.7125 2.87315C49.4878 2.62579 49.1838 2.50211 48.8006 2.50211Z" fill="#123172"/>
<path d="M59.2238 7.02114H54.4954V6.38848L56.9935 3.72463C57.3635 3.32188 57.618 2.99524 57.7567 2.74471C57.8988 2.49101 57.9699 2.22939 57.9699 1.95983C57.9699 1.59831 57.8559 1.3018 57.6279 1.0703C57.3999 0.838795 57.0959 0.723044 56.7159 0.723044C56.2599 0.723044 55.9047 0.848309 55.6503 1.09884C55.3992 1.34619 55.2736 1.69186 55.2736 2.13584H54.3567C54.3567 1.49841 54.5698 0.983087 54.996 0.589852C55.4256 0.196617 55.9989 0 56.7159 0C57.3867 0 57.917 0.169662 58.3069 0.508985C58.6968 0.845137 58.8918 1.29387 58.8918 1.85518C58.8918 2.537 58.4391 3.34884 57.5337 4.2907L55.6007 6.30285H59.2238V7.02114Z" fill="#123172"/>
<path d="M63.8085 1.87421V6.30285H65.7712V1.87421H66.6881V6.30285H68.6459V1.87421H69.5678V7.02114H62.8866V1.87421H63.8085Z" fill="#123172"/>
<path d="M75 2.58774H73.2008V7.02114H72.2839V2.58774H70.5194V1.87421H75V2.58774Z" fill="#123172"/>
</svg>
