<svg width="102" height="36" viewBox="0 0 102 36" fill="none" xmlns="http://www.w3.org/2000/svg">
<path d="M92 0H0V36H92V0Z" fill="#DAEEF9"/>
<path d="M13.534 9.5C13.534 8.48 13.874 7.62333 14.554 6.93C15.2473 6.23667 16.1207 5.89 17.174 5.89C18.2273 5.89 19.0973 6.22333 19.784 6.89C20.4773 7.56333 20.824 8.43333 20.824 9.5C20.824 10.5467 20.4773 11.41 19.784 12.09C19.0907 12.77 18.2207 13.11 17.174 13.11C16.1207 13.11 15.2507 12.7767 14.564 12.11C13.8773 11.4433 13.534 10.5733 13.534 9.5ZM14.834 9.5C14.834 10.2067 15.0573 10.7933 15.504 11.26C15.9507 11.7267 16.5073 11.96 17.174 11.96C17.894 11.96 18.464 11.7267 18.884 11.26C19.3107 10.7933 19.524 10.2067 19.524 9.5C19.524 8.78667 19.2973 8.19667 18.844 7.73C18.3907 7.27 17.834 7.04 17.174 7.04C16.5007 7.04 15.9407 7.27 15.494 7.73C15.054 8.19 14.834 8.78 14.834 9.5ZM26.1373 13H24.9873V9.58H23.0673V13H21.9173V8.5H26.1373V13ZM31.5254 13H30.3754V9.65H29.1854L29.1554 10.13C29.0687 10.9433 28.9421 11.5633 28.7754 11.99C28.6154 12.4167 28.4087 12.7067 28.1554 12.86C27.9087 13.0067 27.5654 13.0833 27.1254 13.09L27.0254 11.97C27.1721 11.9767 27.3087 11.9367 27.4354 11.85C27.5821 11.7433 27.7121 11.52 27.8254 11.18C27.9387 10.84 28.0121 10.4133 28.0454 9.9L28.1154 8.5H31.5254V13ZM33.156 9.66L32.866 8.82C33.3527 8.53333 33.8827 8.39 34.456 8.39C35.0827 8.39 35.5393 8.54333 35.826 8.85C36.1127 9.15667 36.256 9.62667 36.256 10.26V13H35.256V12.48C34.9893 12.8667 34.546 13.06 33.926 13.06C33.4993 13.06 33.156 12.9367 32.896 12.69C32.6427 12.4367 32.516 12.1 32.516 11.68C32.516 11.2133 32.666 10.8533 32.966 10.6C33.266 10.3467 33.6627 10.22 34.156 10.22C34.5627 10.22 34.9027 10.3167 35.176 10.51C35.1893 10.11 35.1293 9.81667 34.996 9.63C34.8693 9.44333 34.6493 9.35 34.336 9.35C33.9893 9.35 33.596 9.45333 33.156 9.66ZM34.306 12.09C34.6927 12.09 34.9827 11.9533 35.176 11.68V11.22C34.9893 11.0733 34.726 11 34.386 11C34.1727 11 33.9993 11.05 33.866 11.15C33.7327 11.25 33.666 11.3867 33.666 11.56C33.666 11.72 33.726 11.85 33.846 11.95C33.966 12.0433 34.1193 12.09 34.306 12.09ZM38.4449 9.65H36.9649V8.5H41.0649V9.65H39.5949V13H38.4449V9.65ZM42.238 9.66L41.948 8.82C42.4347 8.53333 42.9647 8.39 43.538 8.39C44.1647 8.39 44.6214 8.54333 44.908 8.85C45.1947 9.15667 45.338 9.62667 45.338 10.26V13H44.338V12.48C44.0714 12.8667 43.628 13.06 43.008 13.06C42.5814 13.06 42.238 12.9367 41.978 12.69C41.7247 12.4367 41.598 12.1 41.598 11.68C41.598 11.2133 41.748 10.8533 42.048 10.6C42.348 10.3467 42.7447 10.22 43.238 10.22C43.6447 10.22 43.9847 10.3167 44.258 10.51C44.2714 10.11 44.2114 9.81667 44.078 9.63C43.9514 9.44333 43.7314 9.35 43.418 9.35C43.0714 9.35 42.678 9.45333 42.238 9.66ZM43.388 12.09C43.7747 12.09 44.0647 11.9533 44.258 11.68V11.22C44.0714 11.0733 43.808 11 43.468 11C43.2547 11 43.0814 11.05 42.948 11.15C42.8147 11.25 42.748 11.3867 42.748 11.56C42.748 11.72 42.808 11.85 42.928 11.95C43.048 12.0433 43.2014 12.09 43.388 12.09ZM48.4461 9.5C48.4461 8.48 48.7861 7.62333 49.4661 6.93C50.1594 6.23667 51.0328 5.89 52.0861 5.89C53.1394 5.89 54.0094 6.22333 54.6961 6.89C55.3894 7.56333 55.7361 8.43333 55.7361 9.5C55.7361 10.5467 55.3894 11.41 54.6961 12.09C54.0028 12.77 53.1328 13.11 52.0861 13.11C51.0328 13.11 50.1628 12.7767 49.4761 12.11C48.7894 11.4433 48.4461 10.5733 48.4461 9.5ZM49.7461 9.5C49.7461 10.2067 49.9694 10.7933 50.4161 11.26C50.8628 11.7267 51.4194 11.96 52.0861 11.96C52.8061 11.96 53.3761 11.7267 53.7961 11.26C54.2228 10.7933 54.4361 10.2067 54.4361 9.5C54.4361 8.78667 54.2094 8.19667 53.7561 7.73C53.3028 7.27 52.7461 7.04 52.0861 7.04C51.4128 7.04 50.8528 7.27 50.4061 7.73C49.9661 8.19 49.7461 8.78 49.7461 9.5ZM57.9795 13H56.8295V8.5H57.9795V8.95C58.3128 8.59667 58.7428 8.42 59.2695 8.42C60.5028 8.42 61.1195 9.06667 61.1195 10.36V13H59.9695V10.56C59.9695 9.85333 59.6328 9.5 58.9595 9.5C58.5928 9.5 58.2661 9.64333 57.9795 9.93V13ZM62.2884 11.76V6H63.4384V11.29C63.4384 11.7767 63.5684 12.02 63.8284 12.02C63.9751 12.02 64.1318 11.96 64.2984 11.84L64.5384 12.72C64.2251 12.9733 63.8284 13.1 63.3484 13.1C62.6418 13.1 62.2884 12.6533 62.2884 11.76ZM66.5967 13H65.4467V8.5H66.5967V13ZM65.3267 6.88C65.3267 6.68 65.3934 6.52 65.5267 6.4C65.6667 6.27333 65.8401 6.21 66.0467 6.21C66.2267 6.21 66.3801 6.27333 66.5067 6.4C66.6401 6.52667 66.7067 6.68667 66.7067 6.88C66.7067 7.09333 66.6401 7.26667 66.5067 7.4C66.3801 7.53333 66.2267 7.6 66.0467 7.6C65.8401 7.6 65.6667 7.53333 65.5267 7.4C65.3934 7.26667 65.3267 7.09333 65.3267 6.88ZM69.2002 13H68.0502V8.5H69.2002V8.95C69.5335 8.59667 69.9635 8.42 70.4902 8.42C71.7235 8.42 72.3402 9.06667 72.3402 10.36V13H71.1902V10.56C71.1902 9.85333 70.8535 9.5 70.1802 9.5C69.8135 9.5 69.4868 9.64333 69.2002 9.93V13ZM77.0391 11.74L77.3691 12.55C76.9225 12.9233 76.3491 13.11 75.6491 13.11C74.9291 13.11 74.3425 12.8933 73.8891 12.46C73.4491 12.0333 73.2291 11.4633 73.2291 10.75C73.2291 10.0833 73.4458 9.52333 73.8791 9.07C74.3125 8.61667 74.8891 8.39 75.6091 8.39C76.2025 8.39 76.7058 8.58667 77.1191 8.98C77.5325 9.37333 77.7391 9.87333 77.7391 10.48C77.7391 10.7467 77.7158 10.9533 77.6691 11.1H74.4191C74.4658 11.4267 74.6091 11.6833 74.8491 11.87C75.0958 12.0567 75.4025 12.15 75.7691 12.15C76.2691 12.15 76.6925 12.0133 77.0391 11.74ZM75.5591 9.35C74.9058 9.35 74.5125 9.67667 74.3791 10.33H76.5891C76.5958 10.0433 76.5025 9.81 76.3091 9.63C76.1225 9.44333 75.8725 9.35 75.5591 9.35Z" fill="#123172"/>
<path d="M13.3 20.9C13.3 20.292 13.502 19.78 13.906 19.364C14.31 18.948 14.822 18.74 15.442 18.74C16.058 18.74 16.568 18.942 16.972 19.346C17.38 19.75 17.584 20.268 17.584 20.9C17.584 21.516 17.38 22.032 16.972 22.448C16.564 22.856 16.054 23.06 15.442 23.06C14.83 23.06 14.318 22.858 13.906 22.454C13.502 22.05 13.3 21.532 13.3 20.9ZM13.84 20.9C13.84 21.372 13.994 21.772 14.302 22.1C14.61 22.42 14.99 22.58 15.442 22.58C15.914 22.58 16.298 22.42 16.594 22.1C16.894 21.78 17.044 21.38 17.044 20.9C17.044 20.42 16.89 20.02 16.582 19.7C16.274 19.38 15.894 19.22 15.442 19.22C14.982 19.22 14.6 19.378 14.296 19.694C13.992 20.01 13.84 20.412 13.84 20.9ZM20.7487 23H20.2687V20.75H18.7987V23H18.3187V20.3H20.7487V23ZM23.9455 23H23.4655V20.78H22.5175L22.4875 21.236C22.4555 21.608 22.4075 21.918 22.3435 22.166C22.2835 22.41 22.2035 22.594 22.1035 22.718C22.0075 22.838 21.9055 22.922 21.7975 22.97C21.6895 23.014 21.5575 23.036 21.4015 23.036L21.3655 22.568C21.4095 22.572 21.4555 22.566 21.5035 22.55C21.5515 22.53 21.6035 22.49 21.6595 22.43C21.7195 22.37 21.7715 22.29 21.8155 22.19C21.8635 22.09 21.9055 21.95 21.9415 21.77C21.9815 21.586 22.0075 21.376 22.0195 21.14L22.0675 20.3H23.9455V23ZM24.9549 20.87L24.8289 20.486C25.0969 20.322 25.3969 20.24 25.7289 20.24C26.0929 20.24 26.3569 20.33 26.5209 20.51C26.6849 20.69 26.7669 20.968 26.7669 21.344V23H26.3109V22.652C26.0989 22.912 25.8109 23.042 25.4469 23.042C25.1989 23.042 24.9989 22.968 24.8469 22.82C24.6949 22.668 24.6189 22.464 24.6189 22.208C24.6189 21.944 24.7129 21.736 24.9009 21.584C25.0889 21.428 25.3349 21.35 25.6389 21.35C25.9229 21.35 26.1469 21.408 26.3109 21.524C26.3109 21.22 26.2689 21.002 26.1849 20.87C26.1009 20.738 25.9389 20.672 25.6989 20.672C25.4549 20.672 25.2069 20.738 24.9549 20.87ZM25.6149 22.61C25.8829 22.61 26.1149 22.494 26.3109 22.262V21.92C26.1429 21.8 25.9409 21.74 25.7049 21.74C25.5409 21.74 25.4029 21.78 25.2909 21.86C25.1829 21.936 25.1289 22.044 25.1289 22.184C25.1289 22.316 25.1709 22.42 25.2549 22.496C25.3429 22.572 25.4629 22.61 25.6149 22.61ZM28.2187 20.78H27.2287V20.3H29.6887V20.78H28.6987V23H28.2187V20.78ZM30.3573 20.87L30.2313 20.486C30.4993 20.322 30.7993 20.24 31.1313 20.24C31.4953 20.24 31.7593 20.33 31.9233 20.51C32.0873 20.69 32.1693 20.968 32.1693 21.344V23H31.7133V22.652C31.5013 22.912 31.2133 23.042 30.8493 23.042C30.6013 23.042 30.4013 22.968 30.2493 22.82C30.0973 22.668 30.0213 22.464 30.0213 22.208C30.0213 21.944 30.1153 21.736 30.3033 21.584C30.4913 21.428 30.7373 21.35 31.0413 21.35C31.3253 21.35 31.5493 21.408 31.7133 21.524C31.7133 21.22 31.6713 21.002 31.5873 20.87C31.5033 20.738 31.3413 20.672 31.1013 20.672C30.8573 20.672 30.6093 20.738 30.3573 20.87ZM31.0173 22.61C31.2853 22.61 31.5173 22.494 31.7133 22.262V21.92C31.5453 21.8 31.3433 21.74 31.1073 21.74C30.9433 21.74 30.8053 21.78 30.6933 21.86C30.5853 21.936 30.5312 22.044 30.5312 22.184C30.5312 22.316 30.5733 22.42 30.6573 22.496C30.7453 22.572 30.8653 22.61 31.0173 22.61ZM34.1887 20.9C34.1887 20.292 34.3907 19.78 34.7947 19.364C35.1987 18.948 35.7107 18.74 36.3307 18.74C36.9467 18.74 37.4567 18.942 37.8607 19.346C38.2687 19.75 38.4727 20.268 38.4727 20.9C38.4727 21.516 38.2687 22.032 37.8607 22.448C37.4527 22.856 36.9427 23.06 36.3307 23.06C35.7187 23.06 35.2067 22.858 34.7947 22.454C34.3907 22.05 34.1887 21.532 34.1887 20.9ZM34.7287 20.9C34.7287 21.372 34.8827 21.772 35.1907 22.1C35.4987 22.42 35.8787 22.58 36.3307 22.58C36.8027 22.58 37.1867 22.42 37.4827 22.1C37.7827 21.78 37.9327 21.38 37.9327 20.9C37.9327 20.42 37.7787 20.02 37.4707 19.7C37.1627 19.38 36.7827 19.22 36.3307 19.22C35.8707 19.22 35.4887 19.378 35.1847 19.694C34.8807 20.01 34.7287 20.412 34.7287 20.9ZM39.6874 23H39.2074V20.3H39.6874V20.63C39.7874 20.518 39.9174 20.428 40.0774 20.36C40.2414 20.288 40.4054 20.252 40.5694 20.252C41.3174 20.252 41.6914 20.648 41.6914 21.44V23H41.2114V21.53C41.2114 20.978 40.9574 20.702 40.4494 20.702C40.1454 20.702 39.8914 20.818 39.6874 21.05V23ZM42.5004 22.28V18.8H42.9804V22.064C42.9804 22.42 43.0864 22.598 43.2984 22.598C43.4024 22.598 43.5164 22.558 43.6404 22.478L43.7484 22.844C43.5764 22.98 43.3644 23.048 43.1124 23.048C42.7044 23.048 42.5004 22.792 42.5004 22.28ZM44.8526 23H44.3726V20.3H44.8526V23ZM44.3126 19.286C44.3126 19.202 44.3426 19.134 44.4026 19.082C44.4626 19.026 44.5366 18.998 44.6246 18.998C44.7086 18.998 44.7786 19.026 44.8346 19.082C44.8906 19.134 44.9186 19.202 44.9186 19.286C44.9186 19.378 44.8906 19.454 44.8346 19.514C44.7786 19.57 44.7086 19.598 44.6246 19.598C44.5366 19.598 44.4626 19.57 44.4026 19.514C44.3426 19.454 44.3126 19.378 44.3126 19.286ZM46.3261 23H45.8461V20.3H46.3261V20.63C46.4261 20.518 46.5561 20.428 46.7161 20.36C46.8801 20.288 47.0441 20.252 47.2081 20.252C47.9561 20.252 48.3301 20.648 48.3301 21.44V23H47.8501V21.53C47.8501 20.978 47.5961 20.702 47.0881 20.702C46.7841 20.702 46.5301 20.818 46.3261 21.05V23ZM51.269 22.328L51.419 22.706C51.159 22.942 50.821 23.06 50.405 23.06C49.965 23.06 49.615 22.932 49.355 22.676C49.091 22.42 48.959 22.078 48.959 21.65C48.959 21.246 49.083 20.91 49.331 20.642C49.575 20.374 49.915 20.24 50.351 20.24C50.711 20.24 51.009 20.356 51.245 20.588C51.485 20.816 51.605 21.112 51.605 21.476C51.605 21.592 51.595 21.7 51.575 21.8H49.499C49.519 22.052 49.613 22.25 49.781 22.394C49.953 22.538 50.173 22.61 50.441 22.61C50.793 22.61 51.069 22.516 51.269 22.328ZM50.327 20.69C50.091 20.69 49.895 20.756 49.739 20.888C49.587 21.02 49.497 21.194 49.469 21.41H51.107C51.095 21.186 51.019 21.01 50.879 20.882C50.743 20.754 50.559 20.69 50.327 20.69ZM55.6799 22.262L55.9079 22.61C55.6759 22.91 55.3299 23.06 54.8699 23.06C54.4379 23.06 54.0879 22.932 53.8199 22.676C53.5559 22.42 53.4239 22.078 53.4239 21.65C53.4239 21.254 53.5539 20.92 53.8139 20.648C54.0739 20.376 54.3999 20.24 54.7919 20.24C55.2639 20.24 55.6179 20.358 55.8539 20.594L55.6319 20.972C55.4239 20.784 55.1659 20.69 54.8579 20.69C54.6059 20.69 54.3879 20.782 54.2039 20.966C54.0239 21.146 53.9339 21.374 53.9339 21.65C53.9339 21.942 54.0259 22.174 54.2099 22.346C54.3979 22.522 54.6299 22.61 54.9059 22.61C55.2179 22.61 55.4759 22.494 55.6799 22.262ZM58.5171 22.328L58.6671 22.706C58.4071 22.942 58.0691 23.06 57.6531 23.06C57.2131 23.06 56.8631 22.932 56.6031 22.676C56.3391 22.42 56.2071 22.078 56.2071 21.65C56.2071 21.246 56.3311 20.91 56.5791 20.642C56.8231 20.374 57.1631 20.24 57.5991 20.24C57.9591 20.24 58.2571 20.356 58.4931 20.588C58.7331 20.816 58.8531 21.112 58.8531 21.476C58.8531 21.592 58.8431 21.7 58.8231 21.8H56.7471C56.7671 22.052 56.8611 22.25 57.0291 22.394C57.2011 22.538 57.4211 22.61 57.6891 22.61C58.0411 22.61 58.3171 22.516 58.5171 22.328ZM57.5751 20.69C57.3391 20.69 57.1431 20.756 56.9871 20.888C56.8351 21.02 56.7451 21.194 56.7171 21.41H58.3551C58.3431 21.186 58.2671 21.01 58.1271 20.882C57.9911 20.754 57.8071 20.69 57.5751 20.69ZM61.5443 20.99L59.9843 23H59.5043V20.3H59.9843V22.31L61.5443 20.3H62.0243V23H61.5443V20.99ZM59.8883 18.92H60.3383C60.3623 19.236 60.5163 19.394 60.8003 19.394C61.0683 19.394 61.2143 19.236 61.2383 18.92H61.6883C61.6883 19.164 61.6043 19.366 61.4363 19.526C61.2723 19.682 61.0603 19.76 60.8003 19.76C60.5163 19.76 60.2923 19.684 60.1283 19.532C59.9683 19.376 59.8883 19.172 59.8883 18.92ZM64.4448 20.3H64.9248V23H64.4448V21.95C64.2368 22.082 63.9868 22.148 63.6948 22.148C63.0548 22.148 62.7348 21.804 62.7348 21.116V20.3H63.2448V21.062C63.2448 21.486 63.4388 21.698 63.8268 21.698C64.0788 21.698 64.2848 21.642 64.4448 21.53V20.3ZM65.9354 20.87L65.8094 20.486C66.0774 20.322 66.3774 20.24 66.7094 20.24C67.0734 20.24 67.3374 20.33 67.5014 20.51C67.6654 20.69 67.7474 20.968 67.7474 21.344V23H67.2914V22.652C67.0794 22.912 66.7914 23.042 66.4274 23.042C66.1794 23.042 65.9794 22.968 65.8274 22.82C65.6754 22.668 65.5994 22.464 65.5994 22.208C65.5994 21.944 65.6934 21.736 65.8814 21.584C66.0694 21.428 66.3154 21.35 66.6194 21.35C66.9034 21.35 67.1274 21.408 67.2914 21.524C67.2914 21.22 67.2494 21.002 67.1654 20.87C67.0814 20.738 66.9194 20.672 66.6794 20.672C66.4354 20.672 66.1874 20.738 65.9354 20.87ZM66.5954 22.61C66.8634 22.61 67.0954 22.494 67.2914 22.262V21.92C67.1234 21.8 66.9214 21.74 66.6854 21.74C66.5214 21.74 66.3834 21.78 66.2714 21.86C66.1634 21.936 66.1094 22.044 66.1094 22.184C66.1094 22.316 66.1514 22.42 66.2354 22.496C66.3234 22.572 66.4434 22.61 66.5954 22.61ZM70.6271 22.262L70.8551 22.61C70.6231 22.91 70.2771 23.06 69.8171 23.06C69.3851 23.06 69.0351 22.932 68.7671 22.676C68.5031 22.42 68.3711 22.078 68.3711 21.65C68.3711 21.254 68.5011 20.92 68.7611 20.648C69.0211 20.376 69.3471 20.24 69.7391 20.24C70.2111 20.24 70.5651 20.358 70.8011 20.594L70.5791 20.972C70.3711 20.784 70.1131 20.69 69.8051 20.69C69.5531 20.69 69.3351 20.782 69.1511 20.966C68.9711 21.146 68.8811 21.374 68.8811 21.65C68.8811 21.942 68.9731 22.174 69.1571 22.346C69.3451 22.522 69.5771 22.61 69.8531 22.61C70.1651 22.61 70.4231 22.494 70.6271 22.262ZM15.52 24.74L15.778 25.118C15.682 25.25 15.566 25.34 15.43 25.388C15.282 25.44 15.114 25.48 14.926 25.508C14.742 25.536 14.568 25.586 14.404 25.658C13.996 25.846 13.768 26.28 13.72 26.96H13.732C13.82 26.772 13.962 26.62 14.158 26.504C14.358 26.388 14.572 26.33 14.8 26.33C15.184 26.33 15.488 26.452 15.712 26.696C15.94 26.94 16.054 27.266 16.054 27.674C16.054 28.058 15.924 28.386 15.664 28.658C15.408 28.926 15.076 29.06 14.668 29.06C14.228 29.06 13.88 28.91 13.624 28.61C13.368 28.314 13.24 27.904 13.24 27.38C13.24 26.212 13.574 25.486 14.242 25.202C14.394 25.134 14.57 25.084 14.77 25.052C14.926 25.024 15.038 25.002 15.106 24.986C15.174 24.97 15.246 24.942 15.322 24.902C15.402 24.862 15.468 24.808 15.52 24.74ZM13.75 27.47C13.75 27.814 13.834 28.09 14.002 28.298C14.17 28.506 14.388 28.61 14.656 28.61C14.916 28.61 15.128 28.522 15.292 28.346C15.46 28.174 15.544 27.958 15.544 27.698C15.544 27.422 15.466 27.2 15.31 27.032C15.158 26.864 14.948 26.78 14.68 26.78C14.436 26.78 14.232 26.848 14.068 26.984C13.896 27.124 13.79 27.286 13.75 27.47ZM16.8865 26.87L16.7605 26.486C17.0285 26.322 17.3285 26.24 17.6605 26.24C18.0245 26.24 18.2885 26.33 18.4525 26.51C18.6165 26.69 18.6985 26.968 18.6985 27.344V29H18.2425V28.652C18.0305 28.912 17.7425 29.042 17.3785 29.042C17.1305 29.042 16.9305 28.968 16.7785 28.82C16.6265 28.668 16.5505 28.464 16.5505 28.208C16.5505 27.944 16.6445 27.736 16.8325 27.584C17.0205 27.428 17.2665 27.35 17.5705 27.35C17.8545 27.35 18.0785 27.408 18.2425 27.524C18.2425 27.22 18.2005 27.002 18.1165 26.87C18.0325 26.738 17.8705 26.672 17.6305 26.672C17.3865 26.672 17.1385 26.738 16.8865 26.87ZM17.5465 28.61C17.8145 28.61 18.0465 28.494 18.2425 28.262V27.92C18.0745 27.8 17.8725 27.74 17.6365 27.74C17.4725 27.74 17.3345 27.78 17.2225 27.86C17.1145 27.936 17.0605 28.044 17.0605 28.184C17.0605 28.316 17.1025 28.42 17.1865 28.496C17.2745 28.572 17.3945 28.61 17.5465 28.61ZM21.9623 29H21.4823V27.86H19.9823V29H19.5023V26.3H19.9823V27.41H21.4823V26.3H21.9623V29ZM24.5644 26.3H25.1944L24.0124 27.59L25.3084 29H24.6424L23.4244 27.62L24.5644 26.3ZM23.3104 29H22.8304V26.3H23.3104V29ZM25.8882 28.664C25.6242 28.392 25.4922 28.054 25.4922 27.65C25.4922 27.242 25.6242 26.906 25.8882 26.642C26.1562 26.374 26.5042 26.24 26.9322 26.24C27.3602 26.24 27.7062 26.374 27.9702 26.642C28.2382 26.906 28.3722 27.242 28.3722 27.65C28.3722 28.058 28.2382 28.396 27.9702 28.664C27.7062 28.928 27.3602 29.06 26.9322 29.06C26.5082 29.06 26.1602 28.928 25.8882 28.664ZM26.2662 26.96C26.0902 27.136 26.0022 27.366 26.0022 27.65C26.0022 27.934 26.0882 28.164 26.2602 28.34C26.4362 28.52 26.6602 28.61 26.9322 28.61C27.2042 28.61 27.4262 28.522 27.5982 28.346C27.7742 28.166 27.8622 27.934 27.8622 27.65C27.8622 27.374 27.7742 27.144 27.5982 26.96C27.4262 26.78 27.2042 26.69 26.9322 26.69C26.6602 26.69 26.4382 26.78 26.2662 26.96ZM29.0648 29V26.3C29.0848 26.3 29.1128 26.3 29.1488 26.3C29.1848 26.296 29.2368 26.294 29.3048 26.294C29.3728 26.29 29.4348 26.288 29.4908 26.288C29.7868 26.28 29.9708 26.276 30.0428 26.276C30.8188 26.276 31.2068 26.508 31.2068 26.972C31.2068 27.132 31.1568 27.27 31.0568 27.386C30.9568 27.498 30.8268 27.566 30.6668 27.59V27.602C31.0868 27.678 31.2968 27.89 31.2968 28.238C31.2968 28.762 30.8828 29.024 30.0548 29.024C30.0148 29.024 29.8388 29.02 29.5268 29.012C29.4668 29.012 29.4008 29.01 29.3288 29.006C29.2568 29.006 29.2008 29.004 29.1608 29C29.1208 29 29.0888 29 29.0648 29ZM30.1208 27.788H29.5448V28.616C29.8328 28.628 30.0168 28.634 30.0968 28.634C30.5568 28.634 30.7868 28.49 30.7868 28.202C30.7868 27.926 30.5648 27.788 30.1208 27.788ZM30.0788 26.666C29.9628 26.666 29.7848 26.672 29.5448 26.684V27.488H30.1508C30.3148 27.488 30.4468 27.45 30.5468 27.374C30.6468 27.298 30.6968 27.196 30.6968 27.068C30.6968 26.8 30.4908 26.666 30.0788 26.666ZM34.1057 28.262L34.3337 28.61C34.1017 28.91 33.7557 29.06 33.2957 29.06C32.8637 29.06 32.5137 28.932 32.2457 28.676C31.9817 28.42 31.8497 28.078 31.8497 27.65C31.8497 27.254 31.9797 26.92 32.2397 26.648C32.4997 26.376 32.8257 26.24 33.2177 26.24C33.6897 26.24 34.0437 26.358 34.2797 26.594L34.0577 26.972C33.8497 26.784 33.5917 26.69 33.2837 26.69C33.0317 26.69 32.8137 26.782 32.6297 26.966C32.4497 27.146 32.3597 27.374 32.3597 27.65C32.3597 27.942 32.4517 28.174 32.6357 28.346C32.8237 28.522 33.0557 28.61 33.3317 28.61C33.6437 28.61 33.9017 28.494 34.1057 28.262ZM36.6933 26.3H37.3233L36.1413 27.59L37.4373 29H36.7713L35.5533 27.62L36.6933 26.3ZM35.4393 29H34.9593V26.3H35.4393V29ZM38.0171 28.664C37.7531 28.392 37.6211 28.054 37.6211 27.65C37.6211 27.242 37.7531 26.906 38.0171 26.642C38.2851 26.374 38.6331 26.24 39.0611 26.24C39.4891 26.24 39.8351 26.374 40.0991 26.642C40.3671 26.906 40.5011 27.242 40.5011 27.65C40.5011 28.058 40.3671 28.396 40.0991 28.664C39.8351 28.928 39.4891 29.06 39.0611 29.06C38.6371 29.06 38.2891 28.928 38.0171 28.664ZM38.3951 26.96C38.2191 27.136 38.1311 27.366 38.1311 27.65C38.1311 27.934 38.2171 28.164 38.3891 28.34C38.5651 28.52 38.7891 28.61 39.0611 28.61C39.3331 28.61 39.5551 28.522 39.7271 28.346C39.9031 28.166 39.9911 27.934 39.9911 27.65C39.9911 27.374 39.9031 27.144 39.7271 26.96C39.5551 26.78 39.3331 26.69 39.0611 26.69C38.7891 26.69 38.5671 26.78 38.3951 26.96ZM43.2337 26.99L41.6737 29H41.1937V26.3H41.6737V28.31L43.2337 26.3H43.7137V29H43.2337V26.99ZM41.5777 24.92H42.0277C42.0517 25.236 42.2057 25.394 42.4897 25.394C42.7577 25.394 42.9037 25.236 42.9277 24.92H43.3777C43.3777 25.164 43.2937 25.366 43.1257 25.526C42.9617 25.682 42.7497 25.76 42.4897 25.76C42.2057 25.76 41.9817 25.684 41.8177 25.532C41.6577 25.376 41.5777 25.172 41.5777 24.92ZM47.668 26.3H48.298L47.116 27.59L48.412 29H47.746L46.528 27.62L47.668 26.3ZM46.414 29H45.934V26.3H46.414V29ZM49.0662 26.87L48.9402 26.486C49.2082 26.322 49.5082 26.24 49.8402 26.24C50.2042 26.24 50.4682 26.33 50.6322 26.51C50.7962 26.69 50.8782 26.968 50.8782 27.344V29H50.4222V28.652C50.2102 28.912 49.9222 29.042 49.5582 29.042C49.3102 29.042 49.1102 28.968 48.9582 28.82C48.8062 28.668 48.7302 28.464 48.7302 28.208C48.7302 27.944 48.8242 27.736 49.0122 27.584C49.2002 27.428 49.4462 27.35 49.7502 27.35C50.0342 27.35 50.2582 27.408 50.4222 27.524C50.4222 27.22 50.3802 27.002 50.2962 26.87C50.2122 26.738 50.0502 26.672 49.8102 26.672C49.5662 26.672 49.3182 26.738 49.0662 26.87ZM49.7262 28.61C49.9942 28.61 50.2262 28.494 50.4222 28.262V27.92C50.2542 27.8 50.0522 27.74 49.8162 27.74C49.6522 27.74 49.5142 27.78 49.4022 27.86C49.2942 27.936 49.2402 28.044 49.2402 28.184C49.2402 28.316 49.2822 28.42 49.3662 28.496C49.4542 28.572 49.5742 28.61 49.7262 28.61ZM52.162 30.2H51.682V26.3H52.162V26.618C52.258 26.506 52.39 26.416 52.558 26.348C52.726 26.276 52.9 26.24 53.08 26.24C53.464 26.24 53.766 26.368 53.986 26.624C54.214 26.876 54.328 27.204 54.328 27.608C54.328 28.02 54.198 28.366 53.938 28.646C53.682 28.922 53.344 29.06 52.924 29.06C52.6 29.06 52.346 28.998 52.162 28.874V30.2ZM52.942 26.69C52.622 26.69 52.362 26.814 52.162 27.062V28.4C52.374 28.54 52.614 28.61 52.882 28.61C53.166 28.61 53.392 28.52 53.56 28.34C53.732 28.156 53.818 27.918 53.818 27.626C53.818 27.342 53.74 27.116 53.584 26.948C53.428 26.776 53.214 26.69 52.942 26.69ZM55.5585 26.78H54.5685V26.3H57.0285V26.78H56.0385V29H55.5585V26.78ZM57.6812 28.664C57.4172 28.392 57.2852 28.054 57.2852 27.65C57.2852 27.242 57.4172 26.906 57.6812 26.642C57.9492 26.374 58.2972 26.24 58.7252 26.24C59.1532 26.24 59.4992 26.374 59.7632 26.642C60.0312 26.906 60.1652 27.242 60.1652 27.65C60.1652 28.058 60.0312 28.396 59.7632 28.664C59.4992 28.928 59.1532 29.06 58.7252 29.06C58.3012 29.06 57.9532 28.928 57.6812 28.664ZM58.0592 26.96C57.8832 27.136 57.7952 27.366 57.7952 27.65C57.7952 27.934 57.8812 28.164 58.0532 28.34C58.2292 28.52 58.4532 28.61 58.7252 28.61C58.9972 28.61 59.2192 28.522 59.3912 28.346C59.5672 28.166 59.6552 27.934 59.6552 27.65C59.6552 27.374 59.5672 27.144 59.3912 26.96C59.2192 26.78 58.9972 26.69 58.7252 26.69C58.4532 26.69 58.2312 26.78 58.0592 26.96ZM62.8978 26.99L61.3378 29H60.8578V26.3H61.3378V28.31L62.8978 26.3H63.3778V29H62.8978V26.99ZM61.2418 24.92H61.6918C61.7158 25.236 61.8698 25.394 62.1538 25.394C62.4218 25.394 62.5678 25.236 62.5918 24.92H63.0418C63.0418 25.164 62.9578 25.366 62.7898 25.526C62.6258 25.682 62.4138 25.76 62.1538 25.76C61.8698 25.76 61.6458 25.684 61.4818 25.532C61.3218 25.376 61.2418 25.172 61.2418 24.92Z" fill="#123172"/>
</svg>
