<svg width="71" height="106" viewBox="0 0 71 106" fill="none" xmlns="http://www.w3.org/2000/svg">
<path opacity="0.5" d="M71 110H-3V94.5367C10.5667 81.3145 19.9288 71.734 25.0864 65.7952C38.9894 49.8837 45.9409 36.4934 45.9409 25.6243C45.9409 20.806 44.6515 17.0523 42.0727 14.363C39.4939 11.6737 35.7939 10.3291 30.9727 10.3291C22.3394 10.3291 16.6773 15.5956 13.9864 26.1285L-2.15909 18.9011C-0.589394 10.2731 3.33485 3.49388 9.61364 -1.43645C16.0045 -6.47882 23.853 -9 33.1591 -9C43.6985 -9 51.8833 -5.97458 57.7136 0.0762653C63.5439 6.01506 66.4591 13.2425 66.4591 21.7585C66.4591 27.8093 65.1697 34.2524 62.5909 41.0876C60.0121 47.6987 57.0409 53.4694 53.6773 58.3997C50.2015 63.5541 46.1091 68.5965 41.4 73.5268C37.3636 78.0089 33.6636 81.8187 30.3 84.9562C28.6182 86.525 25.8712 88.8781 22.0591 92.0155H71V110Z" fill="#EEF8FE"/>
</svg>
