<svg width="83" height="126" viewBox="0 0 83 126" fill="none" xmlns="http://www.w3.org/2000/svg">
<path opacity="0.55" d="M35.264 138.266C24.6893 138.266 15.3507 136.137 7.24801 131.88C-0.717321 127.485 -6.62265 121.511 -10.468 113.958L2.92201 96.6539C11.0247 108.602 21.3247 114.576 33.822 114.576C41.1007 114.576 46.8 112.722 50.92 109.014C55.04 105.306 57.1 100.499 57.1 94.5939C57.1 88.0019 54.6967 82.9893 49.89 79.5559C45.2207 75.9853 38.6973 74.1999 30.32 74.1999H20.02V50.5099H29.29C35.6073 50.5099 40.8947 48.6559 45.152 44.9479C49.4093 41.2399 51.538 36.5019 51.538 30.7339C51.538 25.2406 49.9587 20.9833 46.8 17.9619C43.6413 14.8033 39.1093 13.2239 33.204 13.2239C22.08 13.2239 13.016 18.3739 6.01201 28.6739L-7.17199 11.9879C0.793346 -2.9814 15.0073 -10.4661 35.47 -10.4661C47.9674 -10.4661 57.9927 -7.1014 65.546 -0.37207C73.0993 6.21993 76.876 15.0779 76.876 26.2019C76.876 42.5446 69.5287 53.9433 54.834 60.3979V61.0159C63.486 62.5266 70.2154 66.4406 75.022 72.7579C79.966 78.9379 82.438 86.4913 82.438 95.4179C82.438 108.465 77.9747 118.902 69.048 126.73C60.1214 134.421 48.86 138.266 35.264 138.266Z" fill="#EEF8FE"/>
</svg>
