<svg width="20" height="20" viewBox="0 0 20 20" fill="none" xmlns="http://www.w3.org/2000/svg">
<path d="M10 20C15.5228 20 20 15.5228 20 10C20 4.47715 15.5228 0 10 0C4.47715 0 0 4.47715 0 10C0 15.5228 4.47715 20 10 20Z" fill="#123172"/>
<path d="M13.6085 15H7.63005V14.0899C8.89947 12.8485 9.83287 11.8591 10.4302 11.1217C11.485 9.79629 12.0124 8.68555 12.0124 7.78948C12.0124 7.32278 11.8677 6.94476 11.5783 6.6554C11.2983 6.35672 10.9109 6.20737 10.4162 6.20737C9.98688 6.20737 9.60885 6.34738 9.28216 6.6274C8.96481 6.89809 8.75946 7.28078 8.66612 7.77548L7.71405 7.38346C7.82606 6.68341 8.13875 6.12803 8.65212 5.71734C9.17482 5.29731 9.79553 5.08729 10.5143 5.08729C11.373 5.08729 12.0357 5.33464 12.5024 5.82934C12.9691 6.32405 13.2024 6.90275 13.2024 7.56547C13.2024 8.82556 12.6004 10.165 11.3963 11.5838C10.8549 12.2185 10.4209 12.6945 10.0942 13.0119C9.8142 13.2919 9.47818 13.6046 9.08615 13.9499H13.6085V15Z" fill="white"/>
</svg>
