<svg width="173" height="279" viewBox="0 0 173 279" fill="none" xmlns="http://www.w3.org/2000/svg">
<path opacity="0.55" d="M69.8 306.95C46.7 306.95 26.3 302.3 8.6 293C-8.8 283.4 -21.7 270.35 -30.1 253.85L-0.849998 216.05C16.85 242.15 39.35 255.2 66.65 255.2C82.55 255.2 95 251.15 104 243.05C113 234.95 117.5 224.45 117.5 211.55C117.5 197.15 112.25 186.2 101.75 178.7C91.55 170.9 77.3 167 59 167H36.5V115.25H56.75C70.55 115.25 82.1 111.2 91.4 103.1C100.7 95 105.35 84.65 105.35 72.05C105.35 60.05 101.9 50.75 95 44.15C88.1 37.25 78.2 33.8 65.3 33.8C41 33.8 21.2 45.05 5.9 67.55L-22.9 31.1C-5.5 -1.60002 25.55 -17.95 70.25 -17.95C97.55 -17.95 119.45 -10.6 135.95 4.09997C152.45 18.5 160.7 37.85 160.7 62.15C160.7 97.85 144.65 122.75 112.55 136.85V138.2C131.45 141.5 146.15 150.05 156.65 163.85C167.45 177.35 172.85 193.85 172.85 213.35C172.85 241.85 163.1 264.65 143.6 281.75C124.1 298.55 99.5 306.95 69.8 306.95Z" fill="#EEF8FE"/>
</svg>
