<svg width="69" height="8" viewBox="0 0 69 8" fill="none" xmlns="http://www.w3.org/2000/svg">
<path d="M4.95561 0.675214H2.89591V6.22222H2.0553V0.675214H0V0H4.95561V0.675214Z" fill="white"/>
<path d="M5.12285 3.86752C5.12285 3.41453 5.2138 3.00712 5.39571 2.6453C5.58056 2.28348 5.83582 2.00427 6.1615 1.80769C6.49011 1.61111 6.8642 1.51282 7.28377 1.51282C7.9322 1.51282 8.45592 1.73077 8.85496 2.16667C9.25692 2.60256 9.4579 3.18234 9.4579 3.90598V3.96154C9.4579 4.41168 9.36841 4.81624 9.18944 5.17521C9.01339 5.53134 8.7596 5.80912 8.42805 6.00855C8.09944 6.20798 7.72095 6.30769 7.29258 6.30769C6.64708 6.30769 6.12336 6.08974 5.72139 5.65385C5.32236 5.21795 5.12285 4.64103 5.12285 3.92308V3.86752ZM5.94145 3.96154C5.94145 4.47436 6.06321 4.88604 6.30674 5.19658C6.5532 5.50712 6.88181 5.66239 7.29258 5.66239C7.70628 5.66239 8.03489 5.5057 8.27842 5.19231C8.52194 4.87607 8.6437 4.43447 8.6437 3.86752C8.6437 3.3604 8.51901 2.95014 8.26961 2.63675C8.02315 2.32051 7.69454 2.16239 7.28377 2.16239C6.88181 2.16239 6.5576 2.31766 6.31114 2.62821C6.06468 2.93875 5.94145 3.38319 5.94145 3.96154Z" fill="white"/>
<path d="M10.5538 6.22222V1.59829H12.411C13.0448 1.59829 13.5304 1.70655 13.8678 1.92308C14.2081 2.13675 14.3783 2.45157 14.3783 2.86752C14.3783 3.0812 14.3123 3.27493 14.1803 3.44872C14.0482 3.61966 13.8531 3.75071 13.5949 3.84188C13.8824 3.90741 14.1128 4.03561 14.2859 4.2265C14.4619 4.41738 14.5499 4.6453 14.5499 4.91026C14.5499 5.33476 14.3886 5.65954 14.0658 5.88462C13.746 6.10969 13.2927 6.22222 12.7059 6.22222H10.5538ZM11.368 4.19231V5.58547H12.7147C13.055 5.58547 13.3088 5.52422 13.4761 5.40171C13.6463 5.2792 13.7313 5.10684 13.7313 4.88462C13.7313 4.42308 13.3822 4.19231 12.6839 4.19231H11.368ZM11.368 3.55983H12.4198C13.1827 3.55983 13.5641 3.34331 13.5641 2.91026C13.5641 2.47721 13.2032 2.25356 12.4814 2.23932H11.368V3.55983Z" fill="white"/>
<path d="M18.5681 6.22222C18.5212 6.13105 18.483 5.96866 18.4537 5.73504C18.0752 6.11681 17.6234 6.30769 17.0982 6.30769C16.6287 6.30769 16.2429 6.17949 15.9407 5.92308C15.6414 5.66382 15.4918 5.33618 15.4918 4.94017C15.4918 4.45869 15.6796 4.08547 16.0551 3.82051C16.4336 3.55271 16.9647 3.4188 17.6483 3.4188H18.4405V3.05556C18.4405 2.7792 18.3554 2.55983 18.1852 2.39744C18.0151 2.23219 17.7642 2.14957 17.4326 2.14957C17.1422 2.14957 16.8986 2.2208 16.7021 2.36325C16.5055 2.5057 16.4072 2.67806 16.4072 2.88034H15.5886C15.5886 2.64957 15.6722 2.42735 15.8395 2.21368C16.0096 1.99715 16.2385 1.82621 16.526 1.70085C16.8165 1.5755 17.1348 1.51282 17.4811 1.51282C18.0297 1.51282 18.4596 1.64672 18.7706 1.91453C19.0816 2.17949 19.243 2.54558 19.2547 3.01282V5.14103C19.2547 5.56553 19.3104 5.90313 19.4219 6.15385V6.22222H18.5681ZM17.217 5.61966C17.4723 5.61966 17.7143 5.55556 17.9432 5.42735C18.172 5.29915 18.3378 5.13248 18.4405 4.92735V3.97863H17.8023C16.8048 3.97863 16.306 4.26211 16.306 4.82906C16.306 5.07692 16.3911 5.27066 16.5612 5.41026C16.7314 5.54986 16.95 5.61966 17.217 5.61966Z" fill="white"/>
<path d="M24.5536 3.96154C24.5536 4.66524 24.3878 5.23219 24.0563 5.66239C23.7247 6.09259 23.2758 6.30769 22.7095 6.30769C22.1315 6.30769 21.6767 6.12963 21.3452 5.7735V8H20.531V1.59829H21.2748L21.3144 2.11111C21.6459 1.71225 22.1066 1.51282 22.6963 1.51282C23.2685 1.51282 23.7203 1.72222 24.0519 2.14103C24.3863 2.55983 24.5536 3.14245 24.5536 3.88889V3.96154ZM23.7394 3.8718C23.7394 3.35043 23.625 2.93875 23.3961 2.63675C23.1672 2.33476 22.8533 2.18376 22.4543 2.18376C21.9613 2.18376 21.5917 2.39601 21.3452 2.82051V5.02991C21.5887 5.45157 21.9613 5.66239 22.4631 5.66239C22.8533 5.66239 23.1628 5.51282 23.3917 5.21368C23.6235 4.91168 23.7394 4.46439 23.7394 3.8718Z" fill="white"/>
<path d="M27.9028 6.22222V1.59829H29.76C30.3938 1.59829 30.8794 1.70655 31.2168 1.92308C31.5571 2.13675 31.7273 2.45157 31.7273 2.86752C31.7273 3.0812 31.6613 3.27493 31.5293 3.44872C31.3972 3.61966 31.2021 3.75071 30.9439 3.84188C31.2315 3.90741 31.4618 4.03561 31.6349 4.2265C31.8109 4.41738 31.899 4.6453 31.899 4.91026C31.899 5.33476 31.7376 5.65954 31.4148 5.88462C31.095 6.10969 30.6417 6.22222 30.0549 6.22222H27.9028ZM28.717 4.19231V5.58547H30.0637C30.4041 5.58547 30.6579 5.52422 30.8251 5.40171C30.9953 5.2792 31.0804 5.10684 31.0804 4.88462C31.0804 4.42308 30.7312 4.19231 30.0329 4.19231H28.717ZM28.717 3.55983H29.7688C30.5317 3.55983 30.9131 3.34331 30.9131 2.91026C30.9131 2.47721 30.5522 2.25356 29.8305 2.23932H28.717V3.55983Z" fill="white"/>
<path d="M36.6961 4.25214H36.102V6.22222H35.2834V1.59829H36.102V3.55556H36.6345L38.2365 1.59829H39.2223L37.3387 3.82051L39.3808 6.22222H38.3465L36.6961 4.25214Z" fill="white"/>
<path d="M39.7681 3.86752C39.7681 3.41453 39.859 3.00712 40.0409 2.6453C40.2258 2.28348 40.4811 2.00427 40.8067 1.80769C41.1353 1.61111 41.5094 1.51282 41.929 1.51282C42.5774 1.51282 43.1012 1.73077 43.5002 2.16667C43.9022 2.60256 44.1031 3.18234 44.1031 3.90598V3.96154C44.1031 4.41168 44.0136 4.81624 43.8347 5.17521C43.6586 5.53134 43.4048 5.80912 43.0733 6.00855C42.7447 6.20798 42.3662 6.30769 41.9378 6.30769C41.2923 6.30769 40.7686 6.08974 40.3666 5.65385C39.9676 5.21795 39.7681 4.64103 39.7681 3.92308V3.86752ZM40.5867 3.96154C40.5867 4.47436 40.7084 4.88604 40.952 5.19658C41.1984 5.50712 41.527 5.66239 41.9378 5.66239C42.3515 5.66239 42.6801 5.5057 42.9236 5.19231C43.1672 4.87607 43.2889 4.43447 43.2889 3.86752C43.2889 3.3604 43.1642 2.95014 42.9148 2.63675C42.6684 2.32051 42.3398 2.16239 41.929 2.16239C41.527 2.16239 41.2028 2.31766 40.9564 2.62821C40.7099 2.93875 40.5867 3.38319 40.5867 3.96154Z" fill="white"/>
<path d="M49.1468 3.96154C49.1468 4.66524 48.981 5.23219 48.6494 5.66239C48.3179 6.09259 47.869 6.30769 47.3027 6.30769C46.7247 6.30769 46.2699 6.12963 45.9384 5.7735V8H45.1242V1.59829H45.868L45.9076 2.11111C46.2391 1.71225 46.6998 1.51282 47.2895 1.51282C47.8617 1.51282 48.3135 1.72222 48.645 2.14103C48.9795 2.55983 49.1468 3.14245 49.1468 3.88889V3.96154ZM48.3326 3.8718C48.3326 3.35043 48.2181 2.93875 47.9893 2.63675C47.7604 2.33476 47.4465 2.18376 47.0475 2.18376C46.5545 2.18376 46.1848 2.39601 45.9384 2.82051V5.02991C46.1819 5.45157 46.5545 5.66239 47.0563 5.66239C47.4465 5.66239 47.756 5.51282 47.9849 5.21368C48.2167 4.91168 48.3326 4.46439 48.3326 3.8718Z" fill="white"/>
<path d="M52.8041 2.86325C52.8041 2.64672 52.719 2.47578 52.5488 2.35043C52.3786 2.22222 52.1454 2.15812 51.849 2.15812C51.5615 2.15812 51.3209 2.23077 51.1272 2.37607C50.9365 2.52137 50.8412 2.69231 50.8412 2.88889H50.0314C50.0314 2.48718 50.2045 2.15812 50.5507 1.90171C50.8969 1.6453 51.3297 1.51709 51.849 1.51709C52.4065 1.51709 52.8407 1.6339 53.1517 1.86752C53.4627 2.09829 53.6183 2.42878 53.6183 2.85897C53.6183 3.06695 53.5537 3.25783 53.4246 3.43162C53.2955 3.60541 53.1121 3.74359 52.8745 3.84615C53.429 4.02849 53.7063 4.38746 53.7063 4.92308C53.7063 5.34758 53.5376 5.68376 53.2002 5.93162C52.8627 6.17949 52.4124 6.30342 51.849 6.30342C51.3004 6.30342 50.847 6.17379 50.4891 5.91453C50.1341 5.65242 49.9566 5.29915 49.9566 4.8547H50.7664C50.7664 5.07977 50.8691 5.2735 51.0744 5.4359C51.2828 5.59544 51.5409 5.67521 51.849 5.67521C52.16 5.67521 52.4109 5.60541 52.6016 5.46581C52.7923 5.32621 52.8877 5.1453 52.8877 4.92308C52.8877 4.66382 52.807 4.47863 52.6456 4.36752C52.4872 4.25356 52.2393 4.19658 51.9018 4.19658H51.0876V3.52991H51.9723C52.5268 3.51567 52.8041 3.29345 52.8041 2.86325Z" fill="white"/>
<path d="M57.8433 1.59829H58.6575V6.22222H57.8433V2.85043L55.6471 6.22222H54.833V1.59829H55.6471V4.97436L57.8433 1.59829Z" fill="white"/>
<path d="M63.8551 6.22222H63.0409V4.24786H60.8536V6.22222H60.035V1.59829H60.8536V3.60256H63.0409V1.59829H63.8551V6.22222Z" fill="white"/>
<path d="M67.1427 6.30769C66.4973 6.30769 65.9721 6.10256 65.5672 5.69231C65.1623 5.2792 64.9598 4.72792 64.9598 4.03846V3.89316C64.9598 3.43447 65.0493 3.02564 65.2283 2.66667C65.4102 2.30484 65.6625 2.02279 65.9853 1.82051C66.3109 1.61538 66.663 1.51282 67.0415 1.51282C67.6606 1.51282 68.1418 1.71083 68.4851 2.10684C68.8284 2.50285 69 3.0698 69 3.80769V4.13675H65.774C65.7858 4.59259 65.9222 4.96154 66.1833 5.24359C66.4474 5.52279 66.7819 5.66239 67.1868 5.66239C67.4743 5.66239 67.7178 5.60541 67.9173 5.49145C68.1169 5.37749 68.2914 5.2265 68.4411 5.03846L68.9384 5.41453C68.5394 6.00997 67.9408 6.30769 67.1427 6.30769ZM67.0415 2.16239C66.7129 2.16239 66.4371 2.2792 66.2141 2.51282C65.9911 2.74359 65.8532 3.06838 65.8004 3.48718H68.1858V3.42735C68.1623 3.02564 68.0508 2.7151 67.8513 2.49573C67.6518 2.2735 67.3819 2.16239 67.0415 2.16239Z" fill="white"/>
</svg>
