<svg width="100" height="15" viewBox="0 0 100 15" fill="none" xmlns="http://www.w3.org/2000/svg">
<path d="M4.63586 11.7143H2.52267V3.33835L0 4.14286V2.37594L4.40918 0.75188H4.63586V11.7143Z" fill="#123172"/>
<path d="M13.8345 0.654135V2.44361H13.6297C12.6743 2.45865 11.9041 2.71429 11.3191 3.21053C10.739 3.70677 10.3905 4.39599 10.2735 5.2782C10.8389 4.68672 11.5531 4.39098 12.4159 4.39098C13.3421 4.39098 14.0782 4.73183 14.6242 5.41353C15.1701 6.09524 15.4431 6.99248 15.4431 8.10526C15.4431 8.81704 15.292 9.46115 14.9898 10.0376C14.6924 10.614 14.2683 11.0627 13.7175 11.3835C13.1715 11.7043 12.5524 11.8647 11.8602 11.8647C10.739 11.8647 9.83231 11.4637 9.1401 10.6617C8.45276 9.85965 8.1091 8.78947 8.1091 7.45113V6.66917C8.1091 5.4812 8.32602 4.43358 8.75987 3.52632C9.1986 2.61404 9.825 1.90977 10.6391 1.41353C11.458 0.912281 12.4062 0.659148 13.4835 0.654135H13.8345ZM11.7724 6.13534C11.4312 6.13534 11.1217 6.22807 10.8438 6.41353C10.566 6.59399 10.3612 6.83459 10.2296 7.13534V7.79699C10.2296 8.52381 10.3685 9.09273 10.6464 9.50376C10.9242 9.90977 11.3142 10.1128 11.8163 10.1128C12.2697 10.1128 12.6353 9.92982 12.9131 9.56391C13.1959 9.19298 13.3372 8.71429 13.3372 8.12782C13.3372 7.53133 13.1959 7.05013 12.9131 6.68421C12.6304 6.3183 12.2502 6.13534 11.7724 6.13534Z" fill="#123172"/>
<path d="M23.8666 7.18797C23.8666 8.70175 23.562 9.85965 22.9526 10.6617C22.3433 11.4637 21.4512 11.8647 20.2764 11.8647C19.1162 11.8647 18.229 11.4712 17.6148 10.6842C17.0006 9.89724 16.6862 8.76942 16.6715 7.30075V5.28571C16.6715 3.75689 16.9786 2.59649 17.5929 1.80451C18.212 1.01253 19.1016 0.616541 20.2618 0.616541C21.422 0.616541 22.3092 1.01003 22.9234 1.79699C23.5376 2.57895 23.852 3.70426 23.8666 5.17293V7.18797ZM21.7534 4.97744C21.7534 4.07018 21.6316 3.41103 21.3878 3C21.149 2.58396 20.7736 2.37594 20.2618 2.37594C19.7646 2.37594 19.3965 2.57393 19.1576 2.96992C18.9237 3.3609 18.7994 3.97494 18.7847 4.81203V7.47368C18.7847 8.36592 18.9017 9.03008 19.1357 9.46617C19.3746 9.89724 19.7548 10.1128 20.2764 10.1128C20.7931 10.1128 21.166 9.90476 21.3951 9.48872C21.6243 9.07268 21.7437 8.43609 21.7534 7.57895V4.97744Z" fill="#123172"/>
<path d="M36.2387 7.7218C36.2387 8.97494 35.9608 9.97995 35.4051 10.7368C34.8542 11.4887 34.1084 11.8647 33.1676 11.8647C32.3681 11.8647 31.7222 11.5789 31.2299 11.0075V14.8421H29.1167V3.57895H31.0763L31.1495 4.37594C31.6613 3.74436 32.3291 3.42857 33.153 3.42857C34.1279 3.42857 34.8859 3.7995 35.427 4.54135C35.9681 5.28321 36.2387 6.30576 36.2387 7.60902V7.7218ZM34.1255 7.56391C34.1255 6.80702 33.9939 6.22306 33.7306 5.81203C33.4723 5.401 33.0945 5.19549 32.5973 5.19549C31.9343 5.19549 31.4785 5.45614 31.2299 5.97744V9.30827C31.4883 9.84461 31.9489 10.1128 32.6119 10.1128C33.6209 10.1128 34.1255 9.26316 34.1255 7.56391Z" fill="#123172"/>
<path d="M40.4212 8.6391L41.8836 3.57895H44.1503L40.9696 12.9774L40.7941 13.406C40.3212 14.4687 39.5413 15 38.4542 15C38.1471 15 37.8351 14.9524 37.5183 14.8571V13.2105L37.84 13.218C38.2397 13.218 38.5371 13.1554 38.7321 13.0301C38.9319 12.9048 39.0879 12.6967 39.2001 12.406L39.4487 11.7368L36.6774 3.57895H38.9515L40.4212 8.6391Z" fill="#123172"/>
<path d="M48.9105 4.03008C49.9244 4.03008 50.7336 4.37594 51.3381 5.06767C51.9426 5.7594 52.2448 6.69925 52.2448 7.88722V7.99248C52.2448 9.16541 51.9085 10.1053 51.2357 10.812C50.563 11.5188 49.6588 11.8722 48.523 11.8722C47.3823 11.8722 46.4731 11.4912 45.7956 10.7293C45.1228 9.96241 44.7865 8.92231 44.7865 7.60902V7.24812C44.7962 5.41855 45.096 3.98747 45.6859 2.95489C46.2806 1.91729 47.1727 1.26316 48.3621 0.992481C48.9861 0.85213 49.3882 0.714286 49.5686 0.578947C49.749 0.438596 49.8391 0.245614 49.8391 0H51.5502C51.5502 0.786967 51.343 1.37845 50.9286 1.77444C50.5192 2.17043 49.788 2.47619 48.735 2.69173C48.111 2.82206 47.6187 3.07519 47.258 3.45113C46.8972 3.82707 46.6535 4.35589 46.5268 5.03759C47.1995 4.36591 47.9941 4.03008 48.9105 4.03008ZM48.5083 5.78947C48.0062 5.78947 47.6114 5.96241 47.3238 6.30827C47.041 6.65414 46.8997 7.21554 46.8997 7.99248C46.8997 8.68421 47.0386 9.21303 47.3165 9.57895C47.5943 9.93985 47.9965 10.1203 48.523 10.1203C49.0348 10.1203 49.4297 9.94236 49.7075 9.58647C49.9854 9.23058 50.1267 8.70677 50.1316 8.01504V7.83459C50.1316 7.16792 49.9878 6.66165 49.7002 6.31579C49.4175 5.96491 49.0202 5.78947 48.5083 5.78947Z" fill="#123172"/>
<path d="M53.6195 10.6466C53.6195 10.3008 53.7316 10.0201 53.9558 9.80451C54.1849 9.58897 54.4701 9.4812 54.8113 9.4812C55.1575 9.4812 55.4426 9.58897 55.6669 9.80451C55.896 10.0201 56.0105 10.3008 56.0105 10.6466C56.0105 10.9875 55.8984 11.2657 55.6742 11.4812C55.4499 11.6917 55.1623 11.797 54.8113 11.797C54.4652 11.797 54.1801 11.6917 53.9558 11.4812C53.7316 11.2657 53.6195 10.9875 53.6195 10.6466Z" fill="#123172"/>
<path d="M65.7502 5.97744C65.7502 5.69173 65.6576 5.47118 65.4724 5.31579C65.292 5.15539 65.0336 5.07519 64.6973 5.07519C64.3512 5.07519 64.0684 5.15038 63.8491 5.30075C63.6346 5.44612 63.5273 5.65414 63.5273 5.92481H61.4142C61.4142 5.18797 61.7115 4.58897 62.3062 4.12782C62.9009 3.66667 63.6614 3.43609 64.5876 3.43609C65.6064 3.43609 66.4059 3.6416 66.986 4.05263C67.5709 4.46366 67.8634 5.04762 67.8634 5.80451C67.8634 6.16541 67.7562 6.49875 67.5417 6.80451C67.3321 7.10526 67.0347 7.34586 66.6496 7.52632C67.5514 7.85213 68.0023 8.4812 68.0023 9.41353C68.0023 10.1604 67.6904 10.7569 67.0664 11.203C66.4473 11.6441 65.621 11.8647 64.5876 11.8647C63.6273 11.8647 62.8376 11.6341 62.2185 11.1729C61.5994 10.7118 61.2899 10.0902 61.2899 9.30827H63.403C63.403 9.58396 63.5225 9.80702 63.7613 9.97744C64.0002 10.1479 64.3122 10.2331 64.6973 10.2331C65.0726 10.2331 65.3651 10.1429 65.5747 9.96241C65.7843 9.78195 65.8892 9.54637 65.8892 9.25564C65.8892 8.89975 65.7892 8.64662 65.5894 8.49624C65.3895 8.34085 65.0897 8.26316 64.69 8.26316H63.542V6.84962H64.7631C65.4212 6.82957 65.7502 6.53885 65.7502 5.97744Z" fill="#123172"/>
<path d="M73.8739 11.7143C73.7764 11.5188 73.7058 11.2757 73.6619 10.985C73.15 11.5714 72.4846 11.8647 71.6657 11.8647C70.8906 11.8647 70.2471 11.6341 69.7353 11.1729C69.2283 10.7118 68.9748 10.1303 68.9748 9.42857C68.9748 8.56642 69.2844 7.90476 69.9035 7.44361C70.5274 6.98246 71.4268 6.74937 72.6016 6.74436H73.5741V6.2782C73.5741 5.90226 73.4791 5.6015 73.289 5.37594C73.1037 5.15038 72.8088 5.03759 72.4042 5.03759C72.0484 5.03759 71.7681 5.12531 71.5633 5.30075C71.3635 5.47619 71.2635 5.71679 71.2635 6.02256H69.1503C69.1503 5.55138 69.2917 5.11529 69.5744 4.71429C69.8572 4.31328 70.2569 4 70.7736 3.77444C71.2903 3.54386 71.8704 3.42857 72.5139 3.42857C73.4888 3.42857 74.2615 3.6817 74.8318 4.18797C75.407 4.68922 75.6946 5.39599 75.6946 6.30827V9.83459C75.6995 10.6065 75.8043 11.1905 76.0091 11.5865V11.7143H73.8739ZM72.1264 10.203C72.4383 10.203 72.7259 10.1328 72.9892 9.99248C73.2524 9.84712 73.4474 9.65414 73.5741 9.41353V8.01504H72.7844C71.7266 8.01504 71.1636 8.39098 71.0954 9.14286L71.088 9.27068C71.088 9.54135 71.1807 9.76441 71.3659 9.93985C71.5511 10.1153 71.8046 10.203 72.1264 10.203Z" fill="#123172"/>
<path d="M83.1603 3.57895V9.96241H85.332V3.57895H87.4525V9.96241H89.6242V3.57895H91.7374V11.7143H81.0471V3.57895H83.1603Z" fill="#123172"/>
<path d="M100 5.32331H97.4627V11.7143H95.3422V5.32331H92.8488V3.57895H100V5.32331Z" fill="#123172"/>
</svg>
