<svg width="23" height="16" viewBox="0 0 23 16" fill="none" xmlns="http://www.w3.org/2000/svg">
<path d="M0.805195 2.93878H21.7403C22.185 2.93878 22.5455 2.64641 22.5455 2.28571V0.653061C22.5455 0.292367 22.185 0 21.7403 0H0.805195C0.360476 0 0 0.292367 0 0.653061V2.28571C0 2.64641 0.360476 2.93878 0.805195 2.93878ZM0.805195 9.46939H21.7403C22.185 9.46939 22.5455 9.17702 22.5455 8.81633V7.18367C22.5455 6.82298 22.185 6.53061 21.7403 6.53061H0.805195C0.360476 6.53061 0 6.82298 0 7.18367V8.81633C0 9.17702 0.360476 9.46939 0.805195 9.46939ZM0.805195 16H21.7403C22.185 16 22.5455 15.7076 22.5455 15.3469V13.7143C22.5455 13.3536 22.185 13.0612 21.7403 13.0612H0.805195C0.360476 13.0612 0 13.3536 0 13.7143V15.3469C0 15.7076 0.360476 16 0.805195 16Z" fill="#123172"/>
</svg>
