<svg width="20" height="20" viewBox="0 0 20 20" fill="none" xmlns="http://www.w3.org/2000/svg">
<path d="M10 20C15.5228 20 20 15.5228 20 10C20 4.47715 15.5228 0 10 0C4.47715 0 0 4.47715 0 10C0 15.5228 4.47715 20 10 20Z" fill="#123172"/>
<path d="M10.4582 15.14C9.76753 15.14 9.16082 14.9953 8.63812 14.706C8.12475 14.4166 7.74205 14.0013 7.49004 13.4599L8.13408 12.6618C8.3581 13.0912 8.67545 13.4272 9.08615 13.6699C9.49685 13.9033 9.94021 14.0199 10.4162 14.0199C11.0043 14.0199 11.471 13.8566 11.8163 13.5299C12.171 13.2032 12.3484 12.7785 12.3484 12.2558C12.3484 11.7331 12.1617 11.3177 11.7883 11.0097C11.4243 10.7017 10.9436 10.5477 10.3462 10.5477H9.57618V9.4276H10.2762C10.7336 9.4276 11.1256 9.26892 11.4523 8.95157C11.7977 8.63421 11.9704 8.22818 11.9704 7.73348C11.9704 7.24811 11.8257 6.87009 11.5363 6.5994C11.2563 6.31938 10.8689 6.17937 10.3742 6.17937C9.48751 6.17937 8.81546 6.5854 8.3581 7.39746L7.72805 6.6274C7.95207 6.1327 8.30209 5.75001 8.77813 5.47932C9.2635 5.1993 9.82354 5.05929 10.4582 5.05929C11.2796 5.05929 11.933 5.28331 12.4184 5.73134C12.9131 6.17937 13.1604 6.78141 13.1604 7.53747C13.1604 8.07884 13.0298 8.55487 12.7684 8.96557C12.5071 9.37626 12.129 9.68429 11.6343 9.88963V9.93164C12.213 10.025 12.6751 10.291 13.0204 10.7297C13.3658 11.1684 13.5385 11.6911 13.5385 12.2978C13.5385 13.1565 13.2491 13.8473 12.6704 14.37C12.101 14.8833 11.3636 15.14 10.4582 15.14Z" fill="white"/>
</svg>
