<svg width="37" height="31" viewBox="0 0 37 31" fill="none" xmlns="http://www.w3.org/2000/svg">
<path d="M27.838 15.4098L14.7968 18.656L10.4726 8H30.0001L27.838 15.4098Z" stroke="#123172" stroke-width="2" stroke-linecap="round" stroke-linejoin="round"/>
<circle cx="30.5" cy="6.5" r="6.5" fill="#E51A4B"/>
<path d="M33 7.0381C33 8.0176 32.7936 8.75691 32.3809 9.25602C31.9717 9.75201 31.3473 10 30.5079 10C29.6824 10 29.0598 9.75824 28.6401 9.27473C28.2239 8.7881 28.0105 8.06907 28 7.11765V5.9385C28 4.959 28.2046 4.22438 28.6139 3.73463C29.0266 3.24488 29.6544 3 30.4974 3C31.3333 3 31.9559 3.23864 32.3652 3.71591C32.7779 4.19318 32.9895 4.90753 33 5.85896V7.0381ZM31.7251 5.76537C31.7251 5.12589 31.6271 4.65798 31.4313 4.36163C31.2354 4.06217 30.9241 3.91243 30.4974 3.91243C30.0811 3.91243 29.7751 4.05437 29.5792 4.33824C29.3834 4.61898 29.2802 5.05882 29.2697 5.65775V7.20187C29.2697 7.83824 29.3694 8.31239 29.5687 8.62433C29.7681 8.93627 30.0811 9.09225 30.5079 9.09225C30.9171 9.09225 31.2197 8.94875 31.4155 8.66176C31.6114 8.37166 31.7146 7.91934 31.7251 7.30481V5.76537Z" fill="white"/>
<path d="M27.8373 23.3129L12.7942 23.3244L6.58253 8H1" stroke="#123172" stroke-width="2" stroke-linecap="round" stroke-linejoin="round"/>
<path d="M14.8187 30.0002C15.779 30.0002 16.5575 29.2196 16.5575 28.2567C16.5575 27.2938 15.779 26.5132 14.8187 26.5132C13.8583 26.5132 13.0798 27.2938 13.0798 28.2567C13.0798 29.2196 13.8583 30.0002 14.8187 30.0002Z" stroke="#123172" stroke-width="2" stroke-linecap="round" stroke-linejoin="round"/>
<path d="M25.0807 30.0002C26.041 30.0002 26.8195 29.2196 26.8195 28.2567C26.8195 27.2938 26.041 26.5132 25.0807 26.5132C24.1204 26.5132 23.3419 27.2938 23.3419 28.2567C23.3419 29.2196 24.1204 30.0002 25.0807 30.0002Z" stroke="#123172" stroke-width="2" stroke-linecap="round" stroke-linejoin="round"/>
</svg>
