<svg width="11" height="11" viewBox="0 0 11 11" fill="none" xmlns="http://www.w3.org/2000/svg">
<path d="M4.28591 6.36245C4.8138 6.84351 5.40737 7.25031 6.04957 7.57118C6.34146 7.72832 6.43601 7.51477 6.57579 7.35361C6.71557 7.19245 7.0609 6.65255 7.20479 6.42692C7.34868 6.20129 7.51312 6.08847 7.70635 6.18517C8.10047 6.35582 8.47526 6.56648 8.82457 6.81371C9.1892 7.06239 9.5255 7.34876 9.82768 7.66788C10.0209 7.85725 10.1607 7.91769 9.93045 8.3488C9.64279 8.8471 9.24874 9.27864 8.77523 9.61394C8.49062 9.74895 8.16985 9.79265 7.85846 9.73884C7.15798 9.66658 6.47677 9.46998 5.84813 9.15865C4.90502 8.67993 4.03807 8.06915 3.27457 7.34555C2.53811 6.59668 1.91634 5.7471 1.42869 4.82333C1.11181 4.20949 0.909905 3.5449 0.832578 2.86115C0.779941 2.55725 0.824455 2.24484 0.960022 1.96669C1.30081 1.50039 1.74137 1.11263 2.25091 0.830483C2.69491 0.612911 2.76891 0.741843 2.9498 0.931211C3.27503 1.2292 3.56718 1.56009 3.82135 1.91834C4.07001 2.26863 4.28472 2.64093 4.46268 3.03038C4.55724 3.21974 4.46268 3.38091 4.21191 3.52193C3.96113 3.66295 3.4308 3.98528 3.27046 4.11824C3.11013 4.2512 2.88813 4.35192 3.04435 4.63799C3.37466 5.26642 3.79251 5.8468 4.28591 6.36245V6.36245Z" stroke="white" stroke-width="0.75" stroke-linecap="round" stroke-linejoin="round"/>
</svg>
