<svg width="92" height="36" viewBox="0 0 92 36" fill="none" xmlns="http://www.w3.org/2000/svg">
<path d="M92 0H0V36H92V0Z" fill="#DAEEF9"/>
<path d="M5.45398 7.15H3.18398V6H8.95398V7.15H6.68398V13H5.45398V7.15ZM11.9024 11.74L12.2324 12.55C11.7858 12.9233 11.2124 13.11 10.5124 13.11C9.79242 13.11 9.20576 12.8933 8.75242 12.46C8.31242 12.0333 8.09242 11.4633 8.09242 10.75C8.09242 10.0833 8.30909 9.52333 8.74242 9.07C9.17576 8.61667 9.75242 8.39 10.4724 8.39C11.0658 8.39 11.5691 8.58667 11.9824 8.98C12.3958 9.37333 12.6024 9.87333 12.6024 10.48C12.6024 10.7467 12.5791 10.9533 12.5324 11.1H9.28242C9.32909 11.4267 9.47242 11.6833 9.71242 11.87C9.95909 12.0567 10.2658 12.15 10.6324 12.15C11.1324 12.15 11.5558 12.0133 11.9024 11.74ZM10.4224 9.35C9.76909 9.35 9.37576 9.67667 9.24242 10.33H11.4524C11.4591 10.0433 11.3658 9.81 11.1724 9.63C10.9858 9.44333 10.7358 9.35 10.4224 9.35ZM14.6787 15H13.5287V8.5H14.6787V8.93C14.8253 8.77 15.0253 8.64 15.2787 8.54C15.532 8.44 15.7953 8.39 16.0687 8.39C16.6887 8.39 17.182 8.60333 17.5487 9.03C17.922 9.46333 18.1087 10.0133 18.1087 10.68C18.1087 11.38 17.8887 11.96 17.4487 12.42C17.0087 12.88 16.4353 13.11 15.7287 13.11C15.2753 13.11 14.9253 13.0367 14.6787 12.89V15ZM15.7087 9.47C15.3087 9.47 14.9653 9.63333 14.6787 9.96V11.78C14.952 11.9533 15.2687 12.04 15.6287 12.04C16.0087 12.04 16.312 11.9167 16.5387 11.67C16.772 11.4233 16.8887 11.1033 16.8887 10.71C16.8887 10.3367 16.782 10.0367 16.5687 9.81C16.362 9.58333 16.0753 9.47 15.7087 9.47ZM20.2548 13H19.1048V8.5H20.1448L21.6748 10.38L23.1248 8.5H24.1348V13H22.9848V10.25L21.6548 11.93H21.6248L20.2548 10.25V13ZM28.6634 10.15L26.5634 13H25.4134V8.5H26.5634V11.35L28.6634 8.5H29.8134V13H28.6634V10.15ZM35.367 13H34.217V11.28H32.247V13H31.097V8.5H32.247V10.2H34.217V8.5H35.367V13ZM36.9939 9.66L36.7039 8.82C37.1906 8.53333 37.7206 8.39 38.2939 8.39C38.9206 8.39 39.3772 8.54333 39.6639 8.85C39.9506 9.15667 40.0939 9.62667 40.0939 10.26V13H39.0939V12.48C38.8272 12.8667 38.3839 13.06 37.7639 13.06C37.3372 13.06 36.9939 12.9367 36.7339 12.69C36.4806 12.4367 36.3539 12.1 36.3539 11.68C36.3539 11.2133 36.5039 10.8533 36.8039 10.6C37.1039 10.3467 37.5006 10.22 37.9939 10.22C38.4006 10.22 38.7406 10.3167 39.0139 10.51C39.0272 10.11 38.9672 9.81667 38.8339 9.63C38.7072 9.44333 38.4872 9.35 38.1739 9.35C37.8272 9.35 37.4339 9.45333 36.9939 9.66ZM38.1439 12.09C38.5306 12.09 38.8206 11.9533 39.0139 11.68V11.22C38.8272 11.0733 38.5639 11 38.2239 11C38.0106 11 37.8372 11.05 37.7039 11.15C37.5706 11.25 37.5039 11.3867 37.5039 11.56C37.5039 11.72 37.5639 11.85 37.6839 11.95C37.8039 12.0433 37.9572 12.09 38.1439 12.09ZM45.3828 13H44.2328V9.65H43.0428L43.0128 10.13C42.9261 10.9433 42.7995 11.5633 42.6328 11.99C42.4728 12.4167 42.2661 12.7067 42.0128 12.86C41.7661 13.0067 41.4228 13.0833 40.9828 13.09L40.8828 11.97C41.0295 11.9767 41.1661 11.9367 41.2928 11.85C41.4395 11.7433 41.5695 11.52 41.6828 11.18C41.7961 10.84 41.8695 10.4133 41.9028 9.9L41.9728 8.5H45.3828V13Z" fill="#123172"/>
<path d="M3.3 20.9C3.3 20.292 3.502 19.78 3.906 19.364C4.31 18.948 4.822 18.74 5.442 18.74C6.058 18.74 6.568 18.942 6.972 19.346C7.38 19.75 7.584 20.268 7.584 20.9C7.584 21.516 7.38 22.032 6.972 22.448C6.564 22.856 6.054 23.06 5.442 23.06C4.83 23.06 4.318 22.858 3.906 22.454C3.502 22.05 3.3 21.532 3.3 20.9ZM3.84 20.9C3.84 21.372 3.994 21.772 4.302 22.1C4.61 22.42 4.99 22.58 5.442 22.58C5.914 22.58 6.298 22.42 6.594 22.1C6.894 21.78 7.044 21.38 7.044 20.9C7.044 20.42 6.89 20.02 6.582 19.7C6.274 19.38 5.894 19.22 5.442 19.22C4.982 19.22 4.6 19.378 4.296 19.694C3.992 20.01 3.84 20.412 3.84 20.9ZM10.7487 23H10.2687V20.75H8.79872V23H8.31872V20.3H10.7487V23ZM13.9455 23H13.4655V20.78H12.5175L12.4875 21.236C12.4555 21.608 12.4075 21.918 12.3435 22.166C12.2835 22.41 12.2035 22.594 12.1035 22.718C12.0075 22.838 11.9055 22.922 11.7975 22.97C11.6895 23.014 11.5575 23.036 11.4015 23.036L11.3655 22.568C11.4095 22.572 11.4555 22.566 11.5035 22.55C11.5515 22.53 11.6035 22.49 11.6595 22.43C11.7195 22.37 11.7715 22.29 11.8155 22.19C11.8635 22.09 11.9055 21.95 11.9415 21.77C11.9815 21.586 12.0075 21.376 12.0195 21.14L12.0675 20.3H13.9455V23ZM14.9549 20.87L14.8289 20.486C15.0969 20.322 15.3969 20.24 15.7289 20.24C16.0929 20.24 16.3569 20.33 16.5209 20.51C16.6849 20.69 16.7669 20.968 16.7669 21.344V23H16.3109V22.652C16.0989 22.912 15.8109 23.042 15.4469 23.042C15.1989 23.042 14.9989 22.968 14.8469 22.82C14.6949 22.668 14.6189 22.464 14.6189 22.208C14.6189 21.944 14.7129 21.736 14.9009 21.584C15.0889 21.428 15.3349 21.35 15.6389 21.35C15.9229 21.35 16.1469 21.408 16.3109 21.524C16.3109 21.22 16.2689 21.002 16.1849 20.87C16.1009 20.738 15.9389 20.672 15.6989 20.672C15.4549 20.672 15.2069 20.738 14.9549 20.87ZM15.6149 22.61C15.8829 22.61 16.1149 22.494 16.3109 22.262V21.92C16.1429 21.8 15.9409 21.74 15.7049 21.74C15.5409 21.74 15.4029 21.78 15.2909 21.86C15.1829 21.936 15.1289 22.044 15.1289 22.184C15.1289 22.316 15.1709 22.42 15.2549 22.496C15.3429 22.572 15.4629 22.61 15.6149 22.61ZM18.2187 20.78H17.2287V20.3H19.6887V20.78H18.6987V23H18.2187V20.78ZM20.3573 20.87L20.2313 20.486C20.4993 20.322 20.7993 20.24 21.1313 20.24C21.4953 20.24 21.7593 20.33 21.9233 20.51C22.0873 20.69 22.1693 20.968 22.1693 21.344V23H21.7133V22.652C21.5013 22.912 21.2133 23.042 20.8493 23.042C20.6013 23.042 20.4013 22.968 20.2493 22.82C20.0973 22.668 20.0213 22.464 20.0213 22.208C20.0213 21.944 20.1153 21.736 20.3033 21.584C20.4913 21.428 20.7373 21.35 21.0413 21.35C21.3253 21.35 21.5493 21.408 21.7133 21.524C21.7133 21.22 21.6713 21.002 21.5873 20.87C21.5033 20.738 21.3413 20.672 21.1013 20.672C20.8573 20.672 20.6093 20.738 20.3573 20.87ZM21.0173 22.61C21.2853 22.61 21.5173 22.494 21.7133 22.262V21.92C21.5453 21.8 21.3433 21.74 21.1073 21.74C20.9433 21.74 20.8053 21.78 20.6933 21.86C20.5853 21.936 20.5312 22.044 20.5312 22.184C20.5312 22.316 20.5733 22.42 20.6573 22.496C20.7453 22.572 20.8653 22.61 21.0173 22.61ZM25.8687 20.3H26.3487V23H25.8687V21.95C25.6607 22.082 25.4107 22.148 25.1187 22.148C24.4787 22.148 24.1587 21.804 24.1587 21.116V20.3H24.6687V21.062C24.6687 21.486 24.8627 21.698 25.2507 21.698C25.5027 21.698 25.7087 21.642 25.8687 21.53V20.3ZM29.3452 22.328L29.4952 22.706C29.2352 22.942 28.8972 23.06 28.4812 23.06C28.0412 23.06 27.6912 22.932 27.4312 22.676C27.1672 22.42 27.0352 22.078 27.0352 21.65C27.0352 21.246 27.1592 20.91 27.4072 20.642C27.6512 20.374 27.9912 20.24 28.4272 20.24C28.7872 20.24 29.0852 20.356 29.3212 20.588C29.5612 20.816 29.6812 21.112 29.6812 21.476C29.6812 21.592 29.6712 21.7 29.6512 21.8H27.5752C27.5952 22.052 27.6892 22.25 27.8572 22.394C28.0292 22.538 28.2492 22.61 28.5172 22.61C28.8692 22.61 29.1452 22.516 29.3452 22.328ZM28.4032 20.69C28.1672 20.69 27.9712 20.756 27.8152 20.888C27.6632 21.02 27.5732 21.194 27.5452 21.41H29.1832C29.1712 21.186 29.0952 21.01 28.9552 20.882C28.8192 20.754 28.6352 20.69 28.4032 20.69ZM30.8124 24.2H30.3324V20.3H30.8124V20.618C30.9084 20.506 31.0404 20.416 31.2084 20.348C31.3764 20.276 31.5504 20.24 31.7304 20.24C32.1144 20.24 32.4164 20.368 32.6364 20.624C32.8644 20.876 32.9784 21.204 32.9784 21.608C32.9784 22.02 32.8484 22.366 32.5884 22.646C32.3324 22.922 31.9944 23.06 31.5744 23.06C31.2504 23.06 30.9964 22.998 30.8124 22.874V24.2ZM31.5924 20.69C31.2724 20.69 31.0124 20.814 30.8124 21.062V22.4C31.0244 22.54 31.2644 22.61 31.5324 22.61C31.8164 22.61 32.0424 22.52 32.2104 22.34C32.3824 22.156 32.4684 21.918 32.4684 21.626C32.4684 21.342 32.3904 21.116 32.2344 20.948C32.0784 20.776 31.8644 20.69 31.5924 20.69ZM35.7964 22.328L35.9464 22.706C35.6864 22.942 35.3484 23.06 34.9324 23.06C34.4924 23.06 34.1424 22.932 33.8824 22.676C33.6184 22.42 33.4864 22.078 33.4864 21.65C33.4864 21.246 33.6104 20.91 33.8584 20.642C34.1024 20.374 34.4424 20.24 34.8784 20.24C35.2384 20.24 35.5364 20.356 35.7724 20.588C36.0124 20.816 36.1324 21.112 36.1324 21.476C36.1324 21.592 36.1224 21.7 36.1024 21.8H34.0264C34.0464 22.052 34.1404 22.25 34.3084 22.394C34.4804 22.538 34.7004 22.61 34.9684 22.61C35.3204 22.61 35.5964 22.516 35.7964 22.328ZM34.8544 20.69C34.6184 20.69 34.4224 20.756 34.2664 20.888C34.1144 21.02 34.0244 21.194 33.9964 21.41H35.6344C35.6224 21.186 35.5464 21.01 35.4064 20.882C35.2704 20.754 35.0864 20.69 34.8544 20.69ZM37.6776 23.06C37.4736 23.06 37.2576 23.026 37.0296 22.958C36.8096 22.886 36.6536 22.798 36.5616 22.694L36.8076 22.334C36.9156 22.422 37.0436 22.494 37.1916 22.55C37.3436 22.602 37.4816 22.628 37.6056 22.628C37.8136 22.628 37.9836 22.588 38.1156 22.508C38.2476 22.424 38.3136 22.316 38.3136 22.184C38.3136 22.072 38.2656 21.986 38.1696 21.926C38.0776 21.866 37.9496 21.836 37.7856 21.836H37.3296V21.446H37.7556C37.8916 21.446 38.0036 21.41 38.0916 21.338C38.1796 21.262 38.2236 21.17 38.2236 21.062C38.2236 20.942 38.1716 20.848 38.0676 20.78C37.9636 20.708 37.8236 20.672 37.6476 20.672C37.3636 20.672 37.0936 20.772 36.8376 20.972L36.6516 20.6C36.7596 20.488 36.9096 20.4 37.1016 20.336C37.2976 20.272 37.5036 20.24 37.7196 20.24C38.0396 20.24 38.2876 20.304 38.4636 20.432C38.6436 20.56 38.7336 20.738 38.7336 20.966C38.7336 21.278 38.5756 21.49 38.2596 21.602V21.614C38.4356 21.634 38.5736 21.704 38.6736 21.824C38.7736 21.94 38.8236 22.082 38.8236 22.25C38.8236 22.498 38.7176 22.696 38.5056 22.844C38.2976 22.988 38.0216 23.06 37.6776 23.06ZM41.5507 20.78H40.5607V20.3H43.0207V20.78H42.0307V23H41.5507V20.78ZM45.5874 22.328L45.7374 22.706C45.4774 22.942 45.1394 23.06 44.7234 23.06C44.2834 23.06 43.9334 22.932 43.6734 22.676C43.4094 22.42 43.2774 22.078 43.2774 21.65C43.2774 21.246 43.4014 20.91 43.6494 20.642C43.8934 20.374 44.2334 20.24 44.6694 20.24C45.0294 20.24 45.3274 20.356 45.5634 20.588C45.8034 20.816 45.9234 21.112 45.9234 21.476C45.9234 21.592 45.9134 21.7 45.8934 21.8H43.8174C43.8374 22.052 43.9314 22.25 44.0994 22.394C44.2714 22.538 44.4914 22.61 44.7594 22.61C45.1114 22.61 45.3874 22.516 45.5874 22.328ZM44.6454 20.69C44.4094 20.69 44.2134 20.756 44.0574 20.888C43.9054 21.02 43.8154 21.194 43.7874 21.41H45.4254C45.4134 21.186 45.3374 21.01 45.1974 20.882C45.0614 20.754 44.8774 20.69 44.6454 20.69ZM47.0546 24.2H46.5746V20.3H47.0546V20.618C47.1506 20.506 47.2826 20.416 47.4506 20.348C47.6186 20.276 47.7926 20.24 47.9726 20.24C48.3566 20.24 48.6586 20.368 48.8786 20.624C49.1066 20.876 49.2206 21.204 49.2206 21.608C49.2206 22.02 49.0906 22.366 48.8306 22.646C48.5746 22.922 48.2366 23.06 47.8166 23.06C47.4926 23.06 47.2386 22.998 47.0546 22.874V24.2ZM47.8346 20.69C47.5146 20.69 47.2546 20.814 47.0546 21.062V22.4C47.2666 22.54 47.5066 22.61 47.7746 22.61C48.0586 22.61 48.2846 22.52 48.4526 22.34C48.6246 22.156 48.7106 21.918 48.7106 21.626C48.7106 21.342 48.6326 21.116 48.4766 20.948C48.3206 20.776 48.1066 20.69 47.8346 20.69ZM50.3886 23H49.9086V20.3H50.3466L51.3846 21.638L52.3686 20.3H52.7946V23H52.3146V21.032L51.3786 22.286H51.3606L50.3886 21.032V23ZM55.7044 20.99L54.1444 23H53.6644V20.3H54.1444V22.31L55.7044 20.3H56.1844V23H55.7044V20.99ZM59.517 23H59.037V21.86H57.537V23H57.057V20.3H57.537V21.41H59.037V20.3H59.517V23ZM60.5291 20.87L60.4031 20.486C60.6711 20.322 60.9711 20.24 61.3031 20.24C61.6671 20.24 61.9311 20.33 62.0951 20.51C62.2591 20.69 62.3411 20.968 62.3411 21.344V23H61.8851V22.652C61.6731 22.912 61.3851 23.042 61.0211 23.042C60.7731 23.042 60.5731 22.968 60.4211 22.82C60.2691 22.668 60.1931 22.464 60.1931 22.208C60.1931 21.944 60.2871 21.736 60.4751 21.584C60.6631 21.428 60.9091 21.35 61.2131 21.35C61.4971 21.35 61.7211 21.408 61.8851 21.524C61.8851 21.22 61.8431 21.002 61.7591 20.87C61.6751 20.738 61.5131 20.672 61.2731 20.672C61.0291 20.672 60.7811 20.738 60.5291 20.87ZM61.1891 22.61C61.4571 22.61 61.6891 22.494 61.8851 22.262V21.92C61.7171 21.8 61.5151 21.74 61.2791 21.74C61.1151 21.74 60.9771 21.78 60.8651 21.86C60.7571 21.936 60.7031 22.044 60.7031 22.184C60.7031 22.316 60.7451 22.42 60.8291 22.496C60.9171 22.572 61.0371 22.61 61.1891 22.61ZM65.4729 23H64.9929V20.78H64.0449L64.0149 21.236C63.9829 21.608 63.9349 21.918 63.8709 22.166C63.8109 22.41 63.7309 22.594 63.6309 22.718C63.5349 22.838 63.4329 22.922 63.3249 22.97C63.2169 23.014 63.0849 23.036 62.9289 23.036L62.8929 22.568C62.9369 22.572 62.9829 22.566 63.0309 22.55C63.0789 22.53 63.1309 22.49 63.1869 22.43C63.2469 22.37 63.2989 22.29 63.3429 22.19C63.3909 22.09 63.4329 21.95 63.4689 21.77C63.5089 21.586 63.5349 21.376 63.5469 21.14L63.5949 20.3H65.4729V23ZM69.4199 20.3H70.0499L68.8679 21.59L70.1639 23H69.4979L68.2799 21.62L69.4199 20.3ZM68.1659 23H67.6859V20.3H68.1659V23ZM72.5295 20.3H73.0755L71.9955 23C71.7995 23.476 71.6295 23.792 71.4855 23.948C71.3335 24.116 71.1595 24.2 70.9635 24.2C70.7875 24.2 70.6175 24.144 70.4535 24.032L70.6095 23.666C70.7375 23.726 70.8375 23.756 70.9095 23.756C71.0215 23.756 71.1215 23.708 71.2095 23.612C71.3015 23.516 71.3935 23.36 71.4855 23.144L71.5455 23L70.2495 20.3H70.8255L71.6175 22.016C71.6335 22.044 71.6875 22.18 71.7795 22.424C71.8155 22.292 71.8575 22.154 71.9055 22.01L72.5295 20.3ZM74.0487 24.2H73.5687V20.3H74.0487V20.618C74.1447 20.506 74.2767 20.416 74.4447 20.348C74.6127 20.276 74.7867 20.24 74.9667 20.24C75.3507 20.24 75.6527 20.368 75.8727 20.624C76.1007 20.876 76.2147 21.204 76.2147 21.608C76.2147 22.02 76.0847 22.366 75.8247 22.646C75.5687 22.922 75.2307 23.06 74.8107 23.06C74.4867 23.06 74.2327 22.998 74.0487 22.874V24.2ZM74.8287 20.69C74.5087 20.69 74.2487 20.814 74.0487 21.062V22.4C74.2607 22.54 74.5007 22.61 74.7687 22.61C75.0527 22.61 75.2787 22.52 75.4467 22.34C75.6187 22.156 75.7047 21.918 75.7047 21.626C75.7047 21.342 75.6267 21.116 75.4707 20.948C75.3147 20.776 75.1007 20.69 74.8287 20.69ZM77.8147 23H76.9027V20.3H77.3827V21.11H77.8747C78.2427 21.11 78.5127 21.194 78.6847 21.362C78.8567 21.526 78.9427 21.752 78.9427 22.04C78.9427 22.312 78.8527 22.54 78.6727 22.724C78.4927 22.908 78.2067 23 77.8147 23ZM77.7847 21.56H77.3827V22.55H77.7787C78.2147 22.55 78.4327 22.386 78.4327 22.058C78.4327 21.726 78.2167 21.56 77.7847 21.56ZM81.6811 22.328L81.8311 22.706C81.5711 22.942 81.2331 23.06 80.8171 23.06C80.3771 23.06 80.0271 22.932 79.7671 22.676C79.5031 22.42 79.3711 22.078 79.3711 21.65C79.3711 21.246 79.4951 20.91 79.7431 20.642C79.9871 20.374 80.3271 20.24 80.7631 20.24C81.1231 20.24 81.4211 20.356 81.6571 20.588C81.8971 20.816 82.0171 21.112 82.0171 21.476C82.0171 21.592 82.0071 21.7 81.9871 21.8H79.9111C79.9311 22.052 80.0251 22.25 80.1931 22.394C80.3651 22.538 80.5851 22.61 80.8531 22.61C81.2051 22.61 81.4811 22.516 81.6811 22.328ZM80.7391 20.69C80.5031 20.69 80.3071 20.756 80.1511 20.888C79.9991 21.02 79.9091 21.194 79.8811 21.41H81.5191C81.5071 21.186 81.4311 21.01 81.2911 20.882C81.1551 20.754 80.9711 20.69 80.7391 20.69ZM83.1483 24.2H82.6683V20.3H83.1483V20.618C83.2443 20.506 83.3763 20.416 83.5443 20.348C83.7123 20.276 83.8863 20.24 84.0663 20.24C84.4503 20.24 84.7523 20.368 84.9723 20.624C85.2003 20.876 85.3143 21.204 85.3143 21.608C85.3143 22.02 85.1843 22.366 84.9243 22.646C84.6683 22.922 84.3303 23.06 83.9103 23.06C83.5863 23.06 83.3323 22.998 83.1483 22.874V24.2ZM83.9283 20.69C83.6083 20.69 83.3483 20.814 83.1483 21.062V22.4C83.3603 22.54 83.6003 22.61 83.8683 22.61C84.1523 22.61 84.3783 22.52 84.5463 22.34C84.7183 22.156 84.8043 21.918 84.8043 21.626C84.8043 21.342 84.7263 21.116 84.5703 20.948C84.4143 20.776 84.2003 20.69 83.9283 20.69ZM87.8048 20.3H88.3508L87.2708 23C87.0748 23.476 86.9048 23.792 86.7608 23.948C86.6088 24.116 86.4348 24.2 86.2388 24.2C86.0628 24.2 85.8928 24.144 85.7288 24.032L85.8848 23.666C86.0128 23.726 86.1128 23.756 86.1848 23.756C86.2968 23.756 86.3968 23.708 86.4848 23.612C86.5768 23.516 86.6688 23.36 86.7608 23.144L86.8208 23L85.5248 20.3H86.1008L86.8928 22.016C86.9088 22.044 86.9628 22.18 87.0548 22.424C87.0908 22.292 87.1328 22.154 87.1808 22.01L87.8048 20.3ZM5.862 29H5.382V26.75H3.912V29H3.432V26.3H5.862V29ZM7.21083 30.2H6.73083V26.3H7.21083V26.618C7.30683 26.506 7.43883 26.416 7.60683 26.348C7.77483 26.276 7.94883 26.24 8.12883 26.24C8.51283 26.24 8.81483 26.368 9.03483 26.624C9.26283 26.876 9.37683 27.204 9.37683 27.608C9.37683 28.02 9.24683 28.366 8.98683 28.646C8.73083 28.922 8.39283 29.06 7.97283 29.06C7.64883 29.06 7.39483 28.998 7.21083 28.874V30.2ZM7.99083 26.69C7.67083 26.69 7.41083 26.814 7.21083 27.062V28.4C7.42283 28.54 7.66283 28.61 7.93083 28.61C8.21483 28.61 8.44083 28.52 8.60883 28.34C8.78083 28.156 8.86683 27.918 8.86683 27.626C8.86683 27.342 8.78883 27.116 8.63283 26.948C8.47683 26.776 8.26283 26.69 7.99083 26.69ZM12.1048 26.99L10.5448 29H10.0648V26.3H10.5448V28.31L12.1048 26.3H12.5848V29H12.1048V26.99ZM14.883 29.66H14.433V28.55H14.769C14.869 28.426 14.957 28.226 15.033 27.95C15.109 27.67 15.159 27.358 15.183 27.014L15.225 26.3H17.067V28.55H17.517V29.66H17.067V29H14.883V29.66ZM15.675 26.75L15.645 27.2C15.621 27.5 15.573 27.774 15.501 28.022C15.429 28.27 15.355 28.446 15.279 28.55H16.587V26.75H15.675ZM18.2554 28.664C17.9914 28.392 17.8594 28.054 17.8594 27.65C17.8594 27.242 17.9914 26.906 18.2554 26.642C18.5234 26.374 18.8714 26.24 19.2994 26.24C19.7274 26.24 20.0734 26.374 20.3374 26.642C20.6054 26.906 20.7394 27.242 20.7394 27.65C20.7394 28.058 20.6054 28.396 20.3374 28.664C20.0734 28.928 19.7274 29.06 19.2994 29.06C18.8754 29.06 18.5274 28.928 18.2554 28.664ZM18.6334 26.96C18.4574 27.136 18.3694 27.366 18.3694 27.65C18.3694 27.934 18.4554 28.164 18.6274 28.34C18.8034 28.52 19.0274 28.61 19.2994 28.61C19.5714 28.61 19.7934 28.522 19.9654 28.346C20.1414 28.166 20.2294 27.934 20.2294 27.65C20.2294 27.374 20.1414 27.144 19.9654 26.96C19.7934 26.78 19.5714 26.69 19.2994 26.69C19.0274 26.69 18.8054 26.78 18.6334 26.96ZM23.508 28.262L23.736 28.61C23.504 28.91 23.158 29.06 22.698 29.06C22.266 29.06 21.916 28.932 21.648 28.676C21.384 28.42 21.252 28.078 21.252 27.65C21.252 27.254 21.382 26.92 21.642 26.648C21.902 26.376 22.228 26.24 22.62 26.24C23.092 26.24 23.446 26.358 23.682 26.594L23.46 26.972C23.252 26.784 22.994 26.69 22.686 26.69C22.434 26.69 22.216 26.782 22.032 26.966C21.852 27.146 21.762 27.374 21.762 27.65C21.762 27.942 21.854 28.174 22.038 28.346C22.226 28.522 22.458 28.61 22.734 28.61C23.046 28.61 23.304 28.494 23.508 28.262ZM24.9745 26.78H23.9845V26.3H26.4445V26.78H25.4545V29H24.9745V26.78ZM27.1131 26.87L26.9871 26.486C27.2551 26.322 27.5551 26.24 27.8871 26.24C28.2511 26.24 28.5151 26.33 28.6791 26.51C28.8431 26.69 28.9251 26.968 28.9251 27.344V29H28.4691V28.652C28.2571 28.912 27.9691 29.042 27.6051 29.042C27.3571 29.042 27.1571 28.968 27.0051 28.82C26.8531 28.668 26.7771 28.464 26.7771 28.208C26.7771 27.944 26.8711 27.736 27.0591 27.584C27.2471 27.428 27.4931 27.35 27.7971 27.35C28.0811 27.35 28.3051 27.408 28.4691 27.524C28.4691 27.22 28.4271 27.002 28.3431 26.87C28.2591 26.738 28.0971 26.672 27.8571 26.672C27.6131 26.672 27.3651 26.738 27.1131 26.87ZM27.7731 28.61C28.0411 28.61 28.2731 28.494 28.4691 28.262V27.92C28.3011 27.8 28.0991 27.74 27.8631 27.74C27.6991 27.74 27.5611 27.78 27.4491 27.86C27.3411 27.936 27.2871 28.044 27.2871 28.184C27.2871 28.316 27.3291 28.42 27.4131 28.496C27.5011 28.572 27.6211 28.61 27.7731 28.61ZM29.7289 29V26.3C29.7489 26.3 29.7769 26.3 29.8129 26.3C29.8489 26.296 29.9009 26.294 29.9689 26.294C30.0369 26.29 30.0989 26.288 30.1549 26.288C30.4509 26.28 30.6349 26.276 30.7069 26.276C31.4829 26.276 31.8709 26.508 31.8709 26.972C31.8709 27.132 31.8209 27.27 31.7209 27.386C31.6209 27.498 31.4909 27.566 31.3309 27.59V27.602C31.7509 27.678 31.9609 27.89 31.9609 28.238C31.9609 28.762 31.5469 29.024 30.7189 29.024C30.6789 29.024 30.5029 29.02 30.1909 29.012C30.1309 29.012 30.0649 29.01 29.9929 29.006C29.9209 29.006 29.8649 29.004 29.8249 29C29.7849 29 29.7529 29 29.7289 29ZM30.7849 27.788H30.2089V28.616C30.4969 28.628 30.6809 28.634 30.7609 28.634C31.2209 28.634 31.4509 28.49 31.4509 28.202C31.4509 27.926 31.2289 27.788 30.7849 27.788ZM30.7429 26.666C30.6269 26.666 30.4489 26.672 30.2089 26.684V27.488H30.8149C30.9789 27.488 31.1109 27.45 31.2109 27.374C31.3109 27.298 31.3609 27.196 31.3609 27.068C31.3609 26.8 31.1549 26.666 30.7429 26.666ZM34.4277 26.3H35.0577L33.8757 27.59L35.1717 29H34.5057L33.2877 27.62L34.4277 26.3ZM33.1737 29H32.6937V26.3H33.1737V29ZM37.6655 28.328L37.8155 28.706C37.5555 28.942 37.2175 29.06 36.8015 29.06C36.3615 29.06 36.0115 28.932 35.7515 28.676C35.4875 28.42 35.3555 28.078 35.3555 27.65C35.3555 27.246 35.4795 26.91 35.7275 26.642C35.9715 26.374 36.3115 26.24 36.7475 26.24C37.1075 26.24 37.4055 26.356 37.6415 26.588C37.8815 26.816 38.0015 27.112 38.0015 27.476C38.0015 27.592 37.9915 27.7 37.9715 27.8H35.8955C35.9155 28.052 36.0095 28.25 36.1775 28.394C36.3495 28.538 36.5695 28.61 36.8375 28.61C37.1895 28.61 37.4655 28.516 37.6655 28.328ZM36.7235 26.69C36.4875 26.69 36.2915 26.756 36.1355 26.888C35.9835 27.02 35.8935 27.194 35.8655 27.41H37.5035C37.4915 27.186 37.4155 27.01 37.2755 26.882C37.1395 26.754 36.9555 26.69 36.7235 26.69Z" fill="#123172"/>
</svg>
